{"glyphs":{"0":{"ha":861,"x_min":82,"x_max":954,"o":"m 648 607 l 650 614 l 532 614 q 506 608 519 614 q 483 594 493 603 q 465 573 472 585 q 454 547 457 561 l 403 301 l 408 301 l 524 301 q 549 306 536 301 q 571 319 561 311 q 588 339 581 328 q 597 364 595 351 l 648 607 m 317 237 q 280 291 291 258 q 278 364 269 324 l 329 607 q 353 666 336 639 q 394 714 370 694 q 447 746 418 734 q 505 758 475 758 l 621 758 q 687 740 659 758 q 726 690 714 722 l 754 652 q 774 605 769 632 q 774 547 780 578 l 722 304 q 699 245 715 273 q 659 199 682 218 q 608 168 636 179 q 550 157 580 157 l 435 157 q 382 168 404 157 q 345 199 359 179 l 317 237 m 818 729 q 822 797 825 765 q 804 856 818 828 q 759 878 783 870 q 705 886 735 886 l 590 886 q 431 821 505 886 q 370 751 393 789 q 338 668 347 713 l 235 182 q 228 123 229 151 q 237 69 228 95 q 288 39 259 50 q 350 29 317 29 l 465 29 q 624 92 552 29 q 714 243 694 153 l 818 729 m 175 -3 q 147 29 159 10 q 110 243 82 117 l 212 729 q 257 844 225 792 q 342 942 288 897 q 562 1031 443 1031 l 677 1031 q 861 942 797 1031 q 873 924 869 932 q 884 904 878 915 l 904 879 q 945 783 937 835 q 942 668 954 731 l 839 182 q 713 -29 812 58 q 607 -94 661 -73 q 493 -115 553 -115 l 378 -115 q 195 -29 258 -115 l 175 -3 m 704 607 q 705 654 709 632 q 688 693 701 677 q 657 720 676 710 q 615 729 638 729 l 500 729 q 453 720 476 729 q 410 693 429 710 q 377 654 391 677 q 357 607 363 632 l 306 364 q 305 317 300 339 q 322 278 310 295 q 353 252 334 262 q 396 243 372 243 l 511 243 q 559 252 536 243 q 601 278 583 262 q 633 316 620 294 q 653 364 647 338 l 704 607 m 743 243 q 706 149 732 192 q 637 71 680 106 q 460 0 555 0 l 345 0 q 258 18 296 0 q 195 71 220 35 q 165 243 142 143 l 268 729 q 304 822 279 780 q 372 900 330 864 q 550 972 455 972 l 665 972 q 814 900 761 972 q 848 822 840 864 q 846 729 857 780 l 743 243 m 771 243 l 873 729 q 838 921 897 842 q 672 1002 778 1002 l 557 1002 q 355 921 448 1002 q 281 833 309 881 q 240 729 253 786 l 138 243 q 133 138 125 186 q 171 50 140 90 q 242 -10 200 9 q 338 -29 284 -29 l 453 -29 q 557 -10 508 -29 q 654 50 606 9 q 729 138 701 90 q 771 243 758 185 m 625 364 q 611 328 621 345 q 586 299 600 311 q 554 279 572 286 q 518 272 537 272 l 403 272 q 370 279 385 272 q 346 299 355 287 q 334 329 337 312 q 335 364 331 345 l 385 607 q 399 643 389 626 q 424 673 410 660 q 456 693 439 686 q 492 700 473 700 l 607 700 q 640 693 625 700 q 664 673 654 686 q 676 643 673 660 q 675 607 679 626 l 625 364 z "},"1":{"ha":861,"x_min":227,"x_max":766,"o":"m 529 758 l 533 758 l 530 751 l 574 694 l 460 157 l 401 157 l 374 29 l 496 29 l 524 160 l 484 214 l 476 214 l 619 886 l 557 886 l 529 758 m 252 -53 q 233 -31 239 -45 q 231 0 227 -17 l 283 243 q 292 266 286 255 q 308 284 298 276 q 329 297 317 292 q 351 301 340 301 l 354 301 l 428 648 l 406 676 q 387 697 393 684 q 386 729 382 711 l 437 972 q 463 1014 443 996 q 505 1031 482 1031 l 677 1031 q 707 1020 695 1031 q 722 993 718 1010 l 754 949 q 762 911 766 934 l 625 264 l 657 220 q 665 182 669 205 l 614 -61 q 590 -99 608 -83 q 550 -115 571 -115 l 319 -115 q 300 -111 309 -115 q 286 -100 292 -107 l 252 -53 m 286 0 l 339 243 l 396 243 l 500 729 l 441 729 l 493 972 l 665 972 l 511 243 l 570 243 l 518 0 l 286 0 m 511 -29 q 532 -20 523 -29 q 545 0 541 -12 l 597 243 q 593 263 599 254 q 576 272 587 272 l 546 272 l 694 972 q 690 993 696 984 q 672 1002 683 1002 l 500 1002 q 478 993 488 1002 q 465 972 469 984 l 414 729 q 417 709 412 718 q 435 700 423 700 l 464 700 l 374 272 l 345 272 q 323 263 333 272 q 311 243 313 254 l 258 0 q 263 -20 256 -12 q 281 -29 269 -29 l 511 -29 z "},"2":{"ha":861,"x_min":54,"x_max":954,"o":"m 201 29 l 668 29 l 694 157 l 296 157 l 253 214 l 245 214 l 264 297 q 254 270 258 283 q 248 243 251 256 l 201 29 m 357 758 l 591 758 q 646 741 624 758 q 677 694 668 724 l 705 659 q 722 621 717 642 q 722 578 726 601 q 703 533 717 554 q 671 495 690 511 q 631 470 653 479 q 587 461 609 461 l 500 461 q 473 459 486 461 q 447 454 460 458 l 555 454 q 714 518 640 454 q 772 586 749 549 q 804 668 795 624 l 818 729 q 822 797 825 765 q 804 856 818 828 q 759 878 783 870 q 705 886 735 886 l 383 886 l 357 758 m 439 310 q 426 307 431 310 q 414 301 420 304 l 754 301 q 783 291 772 301 q 798 264 794 281 l 831 220 q 839 203 837 212 q 839 182 840 193 l 786 -61 q 778 -82 784 -72 q 763 -99 772 -92 q 744 -111 755 -106 q 724 -115 734 -115 l 147 -115 q 113 -100 125 -115 l 78 -53 q 60 -31 66 -45 q 57 0 54 -17 l 121 304 q 167 419 136 367 q 252 517 199 472 q 472 606 355 606 l 558 606 q 570 607 565 606 q 579 614 575 608 l 301 614 q 267 629 280 614 l 232 676 q 214 697 220 684 q 212 729 208 711 l 264 972 q 289 1014 269 996 q 332 1031 309 1031 l 677 1031 q 861 942 797 1031 q 873 924 869 932 q 884 904 878 915 l 904 879 q 945 783 937 835 q 942 668 954 731 l 928 607 q 802 397 903 484 q 583 310 699 310 l 439 310 m 113 0 l 178 304 q 215 397 189 355 q 282 475 241 439 q 461 547 365 547 l 547 547 q 582 554 565 547 q 614 574 600 562 q 640 602 629 586 q 654 637 650 618 q 654 673 658 656 q 642 702 651 690 q 618 722 632 715 q 586 729 604 729 l 268 729 l 319 972 l 665 972 q 814 900 761 972 q 848 822 840 864 q 846 729 857 780 l 832 668 q 795 575 821 618 q 728 497 768 533 q 642 444 687 462 q 549 425 597 425 l 404 425 q 369 418 387 425 q 338 398 352 410 q 313 370 323 386 q 298 335 302 353 l 281 243 l 743 243 l 690 0 l 113 0 m 685 -29 q 705 -20 695 -29 q 718 0 715 -12 l 771 243 q 766 263 772 254 q 749 272 759 272 l 315 272 l 326 335 q 337 358 330 347 q 354 378 344 370 q 375 391 363 387 q 399 396 387 396 l 543 396 q 743 476 650 396 q 860 668 837 555 l 873 729 q 838 921 897 842 q 672 1002 778 1002 l 325 1002 q 305 993 315 1002 q 292 972 295 984 l 240 729 q 244 709 238 718 q 261 700 251 700 l 578 700 q 617 682 603 700 q 627 637 631 663 q 599 594 620 612 q 553 576 578 576 l 467 576 q 363 556 412 576 q 267 496 313 536 q 191 408 220 455 q 150 304 161 361 l 85 0 q 89 -20 83 -12 q 107 -29 96 -29 l 685 -29 z "},"3":{"ha":861,"x_min":54,"x_max":954,"o":"m 714 243 q 715 311 722 277 q 692 374 709 345 q 650 402 673 389 q 600 425 627 416 l 575 461 l 410 461 l 407 454 l 526 454 q 581 437 558 454 q 612 392 604 420 l 642 354 q 640 355 640 355 q 637 357 639 355 l 642 354 q 657 318 652 338 q 657 273 663 298 q 639 228 652 250 q 607 191 625 207 q 566 166 588 175 q 521 157 543 157 l 228 157 l 201 29 l 465 29 q 547 45 507 29 q 623 92 587 61 q 681 161 658 123 q 714 243 705 199 m 357 758 l 591 758 q 646 741 624 758 q 677 694 668 724 l 705 659 q 722 621 717 642 q 722 578 726 601 l 720 566 q 735 578 728 572 q 750 591 743 585 q 790 651 774 619 q 814 717 806 682 l 818 729 q 822 797 825 765 q 804 856 818 828 q 759 878 783 870 q 705 886 735 886 l 383 886 l 357 758 m 232 676 q 214 697 220 684 q 212 729 208 711 l 264 972 q 289 1014 269 996 q 332 1031 309 1031 l 677 1031 q 861 942 797 1031 q 873 924 869 932 q 884 904 878 915 l 904 879 q 945 783 937 835 q 942 668 954 731 l 939 656 q 917 588 930 620 q 882 524 903 555 l 884 522 l 865 500 q 856 491 861 496 q 847 481 851 486 l 846 481 q 814 452 829 465 q 787 427 800 438 l 802 406 q 843 305 834 363 q 839 182 852 248 q 794 68 825 120 q 711 -28 762 16 q 493 -115 608 -115 l 147 -115 q 113 -100 125 -115 l 78 -53 q 60 -31 66 -45 q 57 0 54 -17 l 110 243 q 118 266 112 255 q 134 284 125 276 q 155 297 144 292 q 178 301 166 301 l 494 301 q 506 303 500 301 q 515 310 511 306 l 353 310 q 318 325 329 310 l 283 374 q 264 395 271 381 q 262 425 258 408 l 289 547 q 298 569 292 559 q 314 588 304 580 q 334 601 323 596 q 357 606 345 606 l 558 606 q 570 607 565 606 q 579 614 575 608 l 301 614 q 267 629 280 614 l 232 676 m 743 243 q 706 150 732 193 q 637 72 680 108 q 460 0 555 0 l 113 0 l 165 243 l 482 243 q 517 250 500 243 q 549 270 534 258 q 573 299 563 283 q 587 335 584 316 q 588 370 591 353 q 576 398 585 386 q 552 418 567 410 q 519 425 538 425 l 318 425 l 345 547 l 547 547 q 582 554 565 547 q 614 574 600 562 q 640 602 629 586 q 654 637 650 618 q 654 673 658 656 q 642 702 651 690 q 618 722 632 715 q 586 729 604 729 l 268 729 l 319 972 l 665 972 q 814 900 761 972 q 848 822 840 864 q 846 729 857 780 l 842 717 q 815 642 833 678 q 768 575 798 606 q 706 520 739 543 q 635 486 673 498 q 694 450 669 473 q 732 394 718 426 q 749 323 746 362 q 743 243 751 285 m 771 243 q 768 385 787 321 q 700 486 750 448 q 746 518 724 500 q 787 558 768 536 l 786 558 q 841 634 820 595 q 869 717 861 673 l 873 729 q 838 921 897 842 q 672 1002 778 1002 l 325 1002 q 305 993 315 1002 q 292 972 295 984 l 240 729 q 244 709 238 718 q 261 700 251 700 l 578 700 q 617 682 603 700 q 627 637 631 663 q 599 594 620 612 q 553 576 578 576 l 351 576 q 329 568 340 576 q 317 547 319 559 l 290 425 q 295 405 288 414 q 313 396 301 396 l 514 396 q 553 378 539 396 q 559 335 566 360 q 551 310 557 321 q 534 290 544 299 q 513 277 524 281 q 489 272 501 272 l 171 272 q 150 263 160 272 q 138 243 140 254 l 85 0 q 89 -20 83 -12 q 107 -29 96 -29 l 453 -29 q 653 52 559 -29 q 728 139 699 92 q 771 243 758 186 z "},"4":{"ha":861,"x_min":90,"x_max":997,"o":"m 644 192 l 686 135 l 664 29 l 668 29 l 850 886 l 846 886 l 726 326 l 332 326 l 289 383 l 282 383 l 336 643 l 332 643 l 237 199 l 646 199 l 644 192 m 437 471 l 619 471 l 726 972 q 751 1014 732 996 q 793 1031 770 1031 l 908 1031 q 937 1020 926 1031 q 953 993 949 1010 l 986 949 q 993 911 997 933 l 786 -61 q 778 -82 784 -72 q 763 -99 772 -92 q 744 -111 755 -106 q 724 -115 734 -115 l 608 -115 q 589 -111 598 -115 q 575 -100 581 -107 l 539 -53 q 522 -31 528 -45 q 519 0 516 -17 l 532 54 l 183 54 q 164 59 173 54 q 149 71 155 63 l 114 118 q 95 139 101 125 q 93 170 90 153 l 212 729 q 221 752 214 741 q 237 770 228 762 q 258 783 247 778 q 281 787 269 787 l 396 787 q 425 777 414 787 q 439 750 435 767 l 471 705 q 480 689 478 698 q 481 668 482 680 l 437 471 m 575 0 l 611 170 l 150 170 l 268 729 l 383 729 l 315 412 l 663 412 l 782 972 l 897 972 l 690 0 l 575 0 m 685 -29 q 705 -20 695 -29 q 718 0 715 -12 l 925 972 q 921 993 927 984 q 903 1002 914 1002 l 787 1002 q 766 993 776 1002 q 753 972 756 984 l 640 441 l 350 441 l 412 729 q 407 749 414 741 q 390 758 401 758 l 275 758 q 253 749 264 758 q 240 729 242 741 l 121 170 q 125 149 119 158 q 143 140 132 140 l 578 140 l 547 0 q 551 -20 544 -12 q 568 -29 557 -29 l 685 -29 z "},"5":{"ha":861,"x_min":54,"x_max":938,"o":"m 726 304 q 731 371 734 340 q 714 431 728 402 q 670 453 693 446 q 616 461 646 461 l 361 461 l 318 518 l 311 518 l 363 758 l 766 758 l 793 886 l 383 886 l 292 454 l 526 454 q 581 437 558 454 q 612 392 604 420 l 642 354 q 657 318 652 338 q 657 273 663 298 q 639 228 652 250 q 607 191 625 207 q 566 166 588 175 q 521 157 543 157 l 228 157 l 201 29 l 465 29 q 547 45 507 29 q 623 92 587 61 q 681 161 658 123 q 714 243 705 199 l 726 304 m 467 606 l 587 606 q 771 517 707 606 q 783 498 779 507 q 793 479 787 489 l 812 453 q 851 243 879 367 l 839 182 q 794 68 825 120 q 711 -28 762 16 q 493 -115 608 -115 l 147 -115 q 113 -100 125 -115 l 78 -53 q 60 -31 66 -45 q 57 0 54 -17 l 110 243 q 118 266 112 255 q 134 284 125 276 q 155 297 144 292 q 178 301 166 301 l 494 301 q 506 303 500 301 q 515 310 511 306 l 237 310 q 203 325 214 310 l 168 374 q 149 395 155 381 q 147 425 143 408 l 264 972 q 289 1014 269 996 q 332 1031 309 1031 l 851 1031 q 880 1020 869 1031 q 895 993 891 1010 l 928 949 q 936 932 933 941 q 936 911 938 922 l 885 668 q 877 647 883 657 q 861 630 870 637 q 841 618 852 623 q 821 614 831 614 l 468 614 l 467 606 m 743 243 q 706 150 732 193 q 637 72 680 108 q 460 0 555 0 l 113 0 l 165 243 l 482 243 q 517 250 500 243 q 549 270 534 258 q 573 299 563 283 q 587 335 584 316 q 588 370 591 353 q 576 398 585 386 q 552 418 567 410 q 519 425 538 425 l 203 425 l 319 972 l 840 972 l 789 729 l 383 729 l 345 547 l 576 547 q 724 475 669 547 q 758 397 749 439 q 754 304 766 355 l 743 243 m 771 243 l 782 304 q 786 408 795 361 q 747 496 777 455 q 677 556 717 536 q 582 576 637 576 l 379 576 l 404 700 l 782 700 q 802 709 793 700 q 815 729 812 718 l 867 972 q 863 993 869 984 q 846 1002 857 1002 l 325 1002 q 305 993 315 1002 q 292 972 295 984 l 175 425 q 179 405 173 414 q 197 396 186 396 l 514 396 q 553 378 539 396 q 559 335 566 360 q 551 310 557 321 q 534 290 544 299 q 513 277 524 281 q 489 272 501 272 l 171 272 q 150 263 160 272 q 138 243 140 254 l 85 0 q 89 -20 83 -12 q 107 -29 96 -29 l 453 -29 q 653 52 559 -29 q 728 139 699 92 q 771 243 758 186 z "},"6":{"ha":861,"x_min":83,"x_max":938,"o":"m 397 253 q 401 248 399 250 l 397 253 m 355 309 q 359 304 357 306 l 355 309 m 439 310 q 426 307 431 310 q 414 301 420 304 l 553 301 q 574 310 563 301 l 439 310 m 726 304 q 731 371 734 340 q 714 431 728 402 q 670 453 693 446 q 616 461 646 461 l 478 461 q 447 454 462 461 l 585 454 q 639 437 616 454 q 671 392 661 420 l 699 354 q 715 318 710 338 q 715 273 721 298 q 697 228 711 250 q 665 191 684 207 q 623 166 646 175 q 578 157 601 157 l 406 157 q 365 166 382 157 q 335 191 347 175 l 306 232 q 274 275 284 248 q 271 335 264 302 q 290 380 276 358 q 322 418 303 401 l 302 446 l 296 446 l 329 607 q 353 667 336 640 q 393 715 370 695 q 446 747 417 736 q 505 758 475 758 l 766 758 l 793 886 l 590 886 q 431 822 503 886 q 370 752 393 791 q 338 668 348 714 l 235 182 q 229 123 229 151 q 237 71 229 95 q 350 29 283 29 l 465 29 q 624 92 552 29 q 714 243 694 153 l 726 304 m 532 614 q 515 611 522 614 q 498 606 507 609 l 587 606 q 771 517 707 606 q 783 498 779 507 q 793 479 787 489 l 812 453 q 851 243 879 367 l 839 182 q 713 -29 812 58 q 607 -94 661 -73 q 493 -115 553 -115 l 378 -115 q 196 -28 260 -115 l 176 -1 q 149 31 161 12 q 110 243 83 120 l 212 729 q 257 846 225 793 q 342 943 289 899 q 447 1009 393 988 q 562 1031 502 1031 l 851 1031 q 880 1020 869 1031 q 895 993 891 1010 l 928 949 q 936 932 933 941 q 936 911 938 922 l 885 668 q 877 647 883 657 q 861 630 870 637 q 841 618 852 623 q 821 614 831 614 l 532 614 m 646 335 q 646 370 650 353 q 634 398 643 386 q 610 418 625 410 q 578 425 596 425 l 404 425 q 369 418 387 425 q 338 398 352 410 q 313 370 323 386 q 298 335 302 353 q 298 299 295 316 q 311 270 302 283 q 335 250 321 258 q 367 243 349 243 l 541 243 q 575 250 558 243 q 607 270 593 258 q 632 299 621 283 q 646 335 642 316 m 743 243 q 706 149 732 192 q 637 71 680 106 q 460 0 555 0 l 345 0 q 259 18 296 0 q 197 72 222 35 q 165 243 142 144 l 268 729 q 304 823 279 781 q 372 901 330 866 q 550 972 454 972 l 840 972 l 789 729 l 500 729 q 452 720 475 729 q 409 694 429 710 q 376 655 390 677 q 357 607 363 633 l 325 450 q 340 488 329 470 q 366 518 351 505 q 399 539 381 532 q 437 547 418 547 l 576 547 q 724 475 669 547 q 758 397 749 439 q 754 304 766 355 l 743 243 m 771 243 l 782 304 q 786 408 795 361 q 747 496 777 455 q 677 556 717 536 q 582 576 637 576 l 443 576 q 407 571 425 576 q 374 555 389 565 l 385 607 q 399 644 389 627 q 424 673 410 661 q 455 693 438 686 q 492 700 473 700 l 782 700 q 802 709 793 700 q 815 729 812 718 l 867 972 q 863 993 869 984 q 846 1002 857 1002 l 557 1002 q 453 982 502 1002 q 355 922 404 963 q 281 834 309 882 q 240 729 253 787 l 138 243 q 172 52 112 131 q 338 -29 232 -29 l 453 -29 q 557 -10 508 -29 q 654 50 606 9 q 729 138 701 90 q 771 243 758 185 m 616 335 q 608 310 614 321 q 591 290 601 299 q 570 277 582 281 q 547 272 559 272 l 374 272 q 336 290 350 272 q 326 335 322 309 q 337 358 330 347 q 354 378 344 370 q 375 391 363 387 q 399 396 387 396 l 572 396 q 594 391 585 396 q 610 378 604 387 q 618 358 616 370 q 616 335 620 347 z "},"7":{"ha":861,"x_min":54,"x_max":997,"o":"m 733 751 l 777 694 l 257 29 l 264 29 l 819 741 l 850 886 l 383 886 l 357 758 l 741 758 l 733 751 m 232 676 q 214 697 220 684 q 212 729 208 711 l 264 972 q 289 1014 269 996 q 332 1031 309 1031 l 908 1031 q 937 1020 926 1031 q 953 993 949 1010 l 986 949 q 993 911 997 933 l 937 653 l 358 -89 q 347 -99 354 -94 q 333 -107 340 -104 q 319 -113 326 -111 q 309 -115 313 -115 l 147 -115 q 111 -100 123 -115 l 78 -54 q 58 -33 63 -47 q 57 -1 54 -18 q 61 13 58 4 q 71 31 63 21 l 528 614 l 301 614 q 267 629 280 614 l 232 676 m 275 0 l 113 0 l 685 729 l 268 729 l 319 972 l 897 972 l 846 729 l 275 0 m 871 721 l 925 972 q 921 993 927 984 q 903 1002 914 1002 l 325 1002 q 305 993 315 1002 q 292 972 295 984 l 240 729 q 244 709 238 718 q 261 700 251 700 l 627 700 l 92 14 q 84 -1 86 6 q 85 -15 83 -9 q 93 -25 87 -21 q 107 -29 98 -29 l 268 -29 q 283 -25 275 -29 q 296 -16 292 -21 l 871 721 z "},"8":{"ha":861,"x_min":96,"x_max":956,"o":"m 421 612 q 422 609 422 610 q 424 607 422 608 l 421 612 m 355 309 q 359 304 357 306 l 355 309 m 397 253 q 401 248 399 250 l 397 253 m 461 557 q 467 551 463 553 l 461 557 m 439 310 q 426 307 431 310 q 414 301 420 304 l 553 301 q 574 310 563 301 l 439 310 m 503 614 q 490 611 495 614 q 479 606 485 609 l 616 606 q 628 607 623 606 q 637 614 632 608 l 503 614 m 722 279 q 724 348 730 315 q 700 412 718 381 q 692 418 696 414 q 682 425 688 422 l 656 461 l 471 461 q 430 469 449 461 q 400 494 410 477 l 370 536 q 338 579 348 552 q 336 637 329 606 q 355 685 341 663 q 388 723 369 707 q 430 749 407 739 q 476 758 452 758 l 650 758 q 704 741 682 758 q 736 694 726 724 l 762 659 q 773 639 770 649 q 779 618 777 629 q 798 655 789 637 q 810 693 806 673 l 818 729 q 822 797 825 765 q 807 856 819 828 q 760 878 785 870 q 705 886 735 886 l 590 886 q 431 822 503 886 q 370 752 393 791 q 338 668 348 714 l 330 632 q 325 577 324 604 q 334 528 325 551 q 355 506 344 516 q 380 486 367 496 q 377 484 378 485 q 374 482 376 484 l 395 453 q 403 454 399 453 q 411 454 407 454 l 585 454 q 639 437 616 454 q 671 392 661 420 l 699 354 q 715 318 710 338 q 715 273 721 298 q 697 228 711 250 q 665 191 684 207 q 623 166 646 175 q 578 157 601 157 l 406 157 q 365 166 382 157 q 335 191 347 175 l 306 232 q 282 257 291 242 q 269 292 274 273 q 253 256 259 274 q 241 218 246 238 l 235 182 q 228 122 227 151 q 237 69 228 94 q 350 29 281 29 l 465 29 q 624 92 552 29 q 714 243 694 153 l 722 279 m 175 -3 q 147 29 159 10 q 105 126 114 74 q 110 243 96 179 l 117 279 q 161 393 130 342 q 239 486 192 444 q 204 693 178 570 l 212 729 q 257 846 225 793 q 342 943 289 899 q 447 1009 393 988 q 562 1031 502 1031 l 677 1031 q 785 1009 739 1031 q 863 943 830 988 q 875 924 870 934 q 885 905 880 915 l 904 880 l 903 880 l 905 879 q 946 783 937 835 q 942 668 956 732 l 935 632 q 890 517 921 568 q 811 425 859 466 l 811 424 q 850 332 842 383 q 846 218 859 281 l 839 182 q 713 -29 812 58 q 607 -94 661 -73 q 493 -115 553 -115 l 378 -115 q 195 -29 258 -115 l 175 -3 m 646 335 q 646 370 650 353 q 634 398 643 386 q 610 418 625 410 q 578 425 596 425 l 404 425 q 369 418 387 425 q 338 398 352 410 q 313 370 323 386 q 298 335 302 353 q 298 299 295 316 q 311 270 302 283 q 335 250 321 258 q 367 243 349 243 l 541 243 q 575 250 558 243 q 607 270 593 258 q 632 299 621 283 q 646 335 642 316 m 711 637 q 711 673 715 656 q 699 702 708 690 q 676 722 690 715 q 644 729 662 729 l 471 729 q 435 722 452 729 q 403 702 418 715 q 378 673 389 690 q 364 637 368 656 q 363 602 360 618 q 376 574 367 586 q 399 554 385 562 q 432 547 414 547 l 606 547 q 641 554 623 547 q 672 574 658 562 q 697 602 686 586 q 711 637 707 618 m 743 243 q 706 149 732 192 q 637 71 680 106 q 460 0 555 0 l 345 0 q 195 71 247 0 q 165 243 142 142 l 172 279 q 225 399 187 347 q 325 486 264 450 q 262 573 279 522 q 260 693 245 625 l 268 729 q 304 823 279 781 q 372 901 330 866 q 550 972 454 972 l 665 972 q 815 901 763 972 q 846 729 867 831 l 838 693 q 685 486 808 557 q 750 279 779 414 l 743 243 m 771 243 l 778 279 q 779 395 791 345 q 730 486 767 446 q 865 693 838 564 l 873 729 q 877 834 885 787 q 839 922 869 882 q 768 982 810 963 q 672 1002 727 1002 l 557 1002 q 453 982 502 1002 q 355 922 404 963 q 281 834 309 882 q 240 729 253 787 l 232 693 q 230 576 218 628 q 278 486 242 525 q 192 395 225 446 q 144 279 158 345 l 138 243 q 171 50 112 128 q 241 -10 200 9 q 338 -29 283 -29 l 453 -29 q 557 -10 508 -29 q 654 50 606 9 q 729 138 701 90 q 771 243 758 185 m 616 335 q 608 310 614 321 q 591 290 601 299 q 570 277 582 281 q 547 272 559 272 l 374 272 q 336 290 350 272 q 326 335 322 309 q 337 358 330 347 q 354 378 344 370 q 375 391 363 387 q 399 396 387 396 l 572 396 q 594 391 585 396 q 610 378 604 387 q 618 358 616 370 q 616 335 620 347 m 684 637 q 673 614 680 625 q 656 594 666 603 q 635 581 646 586 q 611 576 623 576 l 437 576 q 416 581 425 576 q 400 594 406 586 q 392 614 394 603 q 393 637 390 625 q 403 662 396 650 q 419 682 410 673 q 440 695 429 690 q 463 700 451 700 l 636 700 q 658 695 648 700 q 674 682 668 690 q 684 662 681 673 q 684 637 686 650 z "},"9":{"ha":861,"x_min":112,"x_max":954,"o":"m 461 557 q 467 551 463 553 l 461 557 m 421 612 q 422 609 422 610 q 424 607 422 608 l 421 612 m 503 614 q 490 611 495 614 q 479 606 485 609 l 616 606 q 628 607 623 606 q 637 614 632 608 l 503 614 m 818 729 q 822 797 825 765 q 804 856 818 828 q 759 878 783 870 q 705 886 735 886 l 590 886 q 431 822 503 886 q 370 752 393 791 q 338 668 348 714 l 325 607 q 318 549 317 576 q 329 496 319 521 q 378 465 351 476 q 440 454 406 454 l 578 454 q 592 456 585 454 q 607 461 600 457 l 471 461 q 430 469 449 461 q 400 494 410 477 l 370 536 q 338 579 348 552 q 336 637 329 606 q 355 685 341 663 q 388 723 369 707 q 430 749 407 739 q 476 758 452 758 l 650 758 q 704 741 682 758 q 736 694 726 724 l 762 659 q 779 621 774 642 q 781 578 785 601 q 761 533 774 554 q 730 496 747 511 l 755 461 l 722 304 q 699 245 715 273 q 659 199 682 218 q 608 168 636 179 q 550 157 580 157 l 286 157 l 258 29 l 465 29 q 624 92 552 29 q 714 243 694 153 l 818 729 m 267 422 q 252 438 259 430 q 239 456 245 446 q 195 553 205 500 q 199 668 185 605 l 212 729 q 257 846 225 793 q 342 943 289 899 q 447 1009 393 988 q 562 1031 502 1031 l 677 1031 q 861 942 797 1031 q 873 924 869 932 q 884 904 878 915 l 904 879 q 945 783 937 835 q 942 668 954 731 l 839 182 q 713 -29 812 58 q 607 -94 661 -73 q 493 -115 553 -115 l 204 -115 q 185 -111 194 -115 q 171 -100 176 -107 l 136 -53 q 118 -31 123 -45 q 115 0 112 -17 l 168 243 q 177 266 170 255 q 193 284 183 276 q 213 297 202 292 q 236 301 224 301 l 524 301 q 555 310 540 301 l 468 310 q 286 397 350 310 l 267 422 m 711 637 q 711 673 715 656 q 699 702 708 690 q 676 722 690 715 q 644 729 662 729 l 471 729 q 435 722 452 729 q 403 702 418 715 q 378 673 389 690 q 364 637 368 656 q 363 602 360 618 q 376 574 367 586 q 399 554 385 562 q 432 547 414 547 l 606 547 q 641 554 623 547 q 672 574 658 562 q 697 602 686 586 q 711 637 707 618 m 743 243 q 706 149 732 192 q 637 71 680 106 q 460 0 555 0 l 171 0 l 224 243 l 511 243 q 559 252 536 243 q 601 278 583 262 q 633 316 620 294 q 653 364 647 338 l 685 522 q 670 485 681 503 q 644 454 659 467 q 610 433 629 441 q 572 425 591 425 l 433 425 q 350 444 387 425 q 286 497 313 462 q 252 575 260 533 q 256 668 244 618 l 268 729 q 304 823 279 781 q 372 901 330 866 q 550 972 454 972 l 665 972 q 814 900 761 972 q 848 822 840 864 q 846 729 857 780 l 743 243 m 771 243 l 873 729 q 838 921 897 842 q 672 1002 778 1002 l 557 1002 q 453 982 502 1002 q 355 922 404 963 q 281 834 309 882 q 240 729 253 787 l 228 668 q 224 564 215 611 q 262 476 233 516 q 333 416 293 435 q 428 396 373 396 l 567 396 q 602 401 583 396 q 636 415 621 406 l 625 364 q 611 328 621 345 q 586 299 600 311 q 554 279 572 286 q 518 272 537 272 l 229 272 q 208 263 218 272 q 196 243 198 254 l 143 0 q 148 -20 141 -12 q 165 -29 154 -29 l 453 -29 q 557 -10 508 -29 q 654 50 606 9 q 729 138 701 90 q 771 243 758 185 m 684 637 q 673 614 680 625 q 656 594 666 603 q 635 581 646 586 q 611 576 623 576 l 437 576 q 416 581 425 576 q 400 594 406 586 q 392 614 394 603 q 393 637 390 625 q 403 662 396 650 q 419 682 410 673 q 440 695 429 690 q 463 700 451 700 l 636 700 q 658 695 648 700 q 674 682 668 690 q 684 662 681 673 q 684 637 686 650 z "}," ":{"ha":519,"x_min":0,"x_max":0,"o":""},"!":{"ha":446,"x_min":54,"x_max":582,"o":"m 201 29 l 253 29 l 265 83 l 214 83 l 201 29 m 339 566 l 428 886 l 383 886 l 339 566 m 78 -53 q 60 -31 66 -45 q 57 0 54 -17 l 93 170 q 102 192 96 182 q 118 211 109 203 q 139 223 127 218 q 161 228 150 228 l 196 228 l 187 237 q 168 257 175 243 q 164 286 161 271 l 262 968 l 264 972 q 289 1014 269 996 q 332 1031 309 1031 l 493 1031 q 522 1020 511 1031 q 538 993 533 1010 l 570 949 q 578 911 582 934 l 578 908 l 386 227 q 378 210 382 217 q 366 195 374 202 q 366 192 367 193 q 367 189 366 191 l 400 147 q 408 130 406 140 q 407 110 410 120 l 371 -61 q 362 -82 368 -72 q 347 -99 356 -92 q 329 -111 338 -106 q 309 -115 319 -115 l 147 -115 q 113 -100 125 -115 l 78 -53 m 113 0 l 150 170 l 311 170 l 275 0 l 113 0 m 290 292 l 221 292 l 319 972 l 481 972 l 290 292 m 510 970 q 506 992 513 982 q 488 1002 499 1002 l 325 1002 q 303 992 313 1002 q 292 970 294 982 l 193 289 q 198 271 191 279 q 215 262 205 262 l 285 262 q 304 271 294 262 q 318 289 315 279 l 510 970 m 268 -29 q 289 -20 279 -29 q 302 0 299 -12 l 339 170 q 335 190 342 182 q 317 199 328 199 l 155 199 q 134 190 144 199 q 121 170 124 182 l 85 0 q 89 -20 83 -12 q 107 -29 96 -29 l 268 -29 z "},"\"":{"ha":700,"x_min":248,"x_max":848,"o":"m 643 812 l 690 947 l 654 947 l 643 812 m 389 812 l 436 947 l 400 947 l 389 812 m 273 639 q 254 657 261 645 q 248 684 248 670 l 275 1025 l 277 1034 q 286 1056 279 1045 q 301 1074 292 1066 q 321 1087 311 1082 q 345 1092 332 1092 l 507 1092 q 532 1084 522 1092 q 547 1064 542 1076 q 570 1084 557 1076 q 599 1092 583 1092 l 761 1092 q 789 1082 778 1092 q 803 1057 800 1072 l 839 1011 q 846 993 844 1004 q 844 972 848 983 l 843 965 l 724 624 q 714 606 720 614 q 700 591 708 597 q 682 582 692 585 q 664 578 673 578 l 595 578 q 575 583 583 578 q 559 595 566 587 l 528 639 q 508 657 515 645 q 501 684 501 670 l 507 728 l 471 624 q 460 606 467 614 q 446 591 454 597 q 428 582 437 585 q 410 578 418 578 l 340 578 q 320 583 329 578 q 306 595 312 587 l 273 639 m 375 693 l 306 693 l 334 1034 l 494 1034 l 375 693 m 629 693 l 559 693 l 587 1034 l 749 1034 l 629 693 m 775 1029 q 774 1053 781 1043 q 754 1063 768 1063 l 593 1063 q 569 1053 581 1063 q 558 1029 558 1043 l 532 689 q 537 671 530 678 q 554 664 545 664 l 624 664 q 643 671 633 664 q 657 689 653 678 l 775 1029 m 521 1029 q 520 1053 526 1043 q 500 1063 513 1063 l 339 1063 q 316 1053 326 1063 q 304 1029 306 1043 l 278 689 q 283 671 277 678 q 300 664 290 664 l 370 664 q 389 671 380 664 q 403 689 399 678 l 521 1029 z "},"#":{"ha":885,"x_min":157,"x_max":987,"o":"m 403 472 l 408 497 l 383 497 l 403 472 m 667 515 l 693 515 l 675 539 l 667 515 m 741 758 l 765 758 l 747 782 l 741 758 m 510 758 l 534 758 l 517 782 l 510 758 m 704 715 l 711 741 l 686 741 l 704 715 m 436 515 l 461 515 l 443 539 l 436 515 m 633 472 l 639 497 l 615 497 l 633 472 m 473 715 l 481 741 l 456 741 l 473 715 m 897 885 l 901 885 q 930 874 919 885 q 945 847 941 864 l 977 803 q 986 786 984 795 q 986 765 987 777 l 965 668 q 956 647 962 657 q 941 630 949 637 q 922 618 932 623 q 901 614 911 614 l 889 614 q 891 608 891 610 q 893 604 892 606 l 926 559 q 934 543 932 552 q 933 522 937 534 l 913 425 q 904 405 911 414 q 889 387 898 395 q 870 375 881 380 q 850 371 860 371 l 745 371 l 717 275 q 708 256 714 265 q 694 240 702 247 q 676 229 686 233 q 656 225 666 225 l 562 225 q 529 240 541 225 l 493 288 q 492 288 492 288 q 490 290 492 289 l 486 275 q 463 240 481 254 q 424 225 445 225 l 332 225 q 297 240 311 225 l 262 288 q 245 309 251 295 q 244 340 239 323 l 244 345 l 252 371 l 250 371 q 216 386 228 371 l 180 433 q 163 455 169 441 q 160 486 157 469 l 180 583 q 207 624 187 607 q 249 642 226 642 l 258 642 l 232 676 q 214 697 220 684 q 212 729 208 711 l 233 827 q 242 849 235 839 q 258 868 248 860 q 278 880 267 876 q 301 885 290 885 l 403 885 l 431 977 q 440 997 433 987 q 456 1015 447 1007 q 476 1026 465 1022 q 497 1031 486 1031 l 589 1031 q 618 1020 606 1031 q 635 993 631 1010 l 656 960 l 661 977 q 671 997 664 987 q 687 1015 677 1007 q 706 1026 696 1022 q 728 1031 717 1031 l 821 1031 q 849 1020 838 1031 q 864 993 861 1010 l 897 949 q 904 932 901 941 q 904 911 907 922 l 904 907 l 897 885 m 507 729 l 461 583 l 600 583 l 646 729 l 507 729 m 665 486 l 623 340 l 529 340 l 572 486 l 433 486 l 392 340 l 298 340 l 342 486 l 216 486 l 237 583 l 370 583 l 414 729 l 268 729 l 289 827 l 441 827 l 485 972 l 578 972 l 534 827 l 673 827 l 715 972 l 808 972 l 765 827 l 889 827 l 869 729 l 737 729 l 693 583 l 838 583 l 817 486 l 665 486 m 811 457 q 831 466 822 457 q 844 486 841 475 l 865 583 q 862 604 869 595 q 843 612 854 612 l 729 612 l 755 700 l 861 700 q 883 709 873 700 q 897 729 894 718 l 918 827 q 913 847 920 838 q 896 856 906 856 l 802 856 l 836 970 q 833 992 840 982 q 814 1002 827 1002 l 722 1002 q 702 994 711 1002 q 688 975 692 985 l 656 856 l 571 856 l 606 970 q 602 992 609 982 q 583 1002 595 1002 l 490 1002 q 471 994 481 1002 q 457 975 460 985 l 424 856 l 296 856 q 274 847 284 856 q 261 827 263 838 l 240 729 q 244 709 238 718 q 261 700 251 700 l 375 700 l 350 612 l 243 612 q 221 604 231 612 q 208 583 212 595 l 189 486 q 193 466 186 475 q 210 457 199 457 l 306 457 l 271 343 q 274 320 267 330 q 292 311 280 311 l 383 311 q 405 319 395 311 q 418 338 414 327 l 453 457 l 536 457 l 501 343 q 504 320 498 330 q 522 311 511 311 l 615 311 q 636 319 626 311 q 648 338 646 327 l 685 457 l 811 457 m 525 700 l 607 700 l 581 612 l 498 612 l 525 700 z "},"$":{"ha":861,"x_min":79,"x_max":997,"o":"m 741 364 q 744 432 748 401 q 726 490 740 463 q 681 513 705 505 q 628 521 657 521 l 513 521 q 482 528 496 521 q 461 547 469 534 l 428 590 q 403 624 410 603 q 401 668 395 644 q 415 703 405 686 q 440 731 426 719 q 471 751 454 744 q 505 758 488 758 l 823 758 l 850 886 l 682 886 l 639 943 l 632 943 l 646 1007 l 640 1007 l 615 886 q 432 821 506 886 q 338 668 356 758 q 332 609 331 637 q 342 557 332 581 q 453 515 387 515 l 568 515 q 610 502 592 515 q 633 469 627 489 l 665 425 q 677 398 673 414 q 676 364 681 382 q 663 331 673 347 q 640 304 653 315 q 610 285 626 292 q 578 278 594 278 l 256 278 l 228 150 l 403 150 l 403 143 l 444 86 l 432 29 l 437 29 l 463 150 q 566 166 519 150 q 647 214 612 182 q 741 364 722 278 m 751 614 q 783 578 769 596 q 806 539 798 559 l 827 514 q 864 304 890 427 q 820 189 851 241 q 736 93 789 137 q 571 9 660 27 l 555 -61 q 547 -82 553 -72 q 532 -99 541 -92 q 513 -111 523 -106 q 493 -115 503 -115 l 378 -115 q 359 -111 368 -115 q 345 -100 350 -107 l 309 -53 q 291 -31 297 -45 q 289 0 286 -17 l 290 5 l 172 5 q 153 10 161 5 q 139 22 144 15 l 103 69 q 85 90 92 77 q 82 121 79 104 l 135 364 q 143 387 137 376 q 159 405 150 397 q 180 418 169 413 q 203 422 191 422 l 330 422 q 314 438 322 430 q 298 458 306 447 l 279 484 q 252 517 263 499 q 209 614 219 562 q 212 729 199 666 q 343 942 237 852 q 420 996 380 975 q 507 1025 460 1017 l 521 1093 q 530 1116 524 1105 q 546 1134 537 1126 q 566 1147 555 1142 q 589 1152 577 1152 l 704 1152 q 733 1141 722 1152 q 747 1114 744 1131 l 781 1071 q 789 1054 787 1063 q 789 1034 791 1044 l 787 1031 l 908 1031 q 937 1020 926 1031 q 953 993 949 1010 l 986 949 q 993 911 997 933 l 942 668 q 933 647 940 657 q 918 630 927 637 q 899 618 909 623 q 879 614 889 614 l 751 614 m 768 364 q 664 193 745 263 q 577 139 622 157 q 485 121 533 121 l 460 0 l 345 0 l 370 121 l 139 121 l 191 364 l 538 364 q 561 369 549 364 q 582 383 572 374 q 598 402 591 391 q 607 425 605 413 q 600 468 613 450 q 562 486 587 486 l 447 486 q 300 558 353 486 q 268 729 248 630 q 374 900 289 829 q 550 972 456 972 l 576 1093 l 692 1093 l 665 972 l 897 972 l 846 729 l 500 729 q 476 724 488 729 q 455 711 465 720 q 439 691 446 703 q 429 668 432 680 q 429 645 427 656 q 436 626 431 634 q 451 612 442 617 q 472 607 460 607 l 587 607 q 736 536 684 607 q 768 364 789 465 m 796 364 q 799 469 808 422 q 760 557 790 516 q 595 636 701 636 l 479 636 q 459 646 467 636 q 456 668 452 656 q 470 690 459 681 q 492 700 480 700 l 839 700 q 860 709 849 700 q 873 729 870 718 l 925 972 q 921 993 927 984 q 903 1002 914 1002 l 700 1002 l 720 1093 q 716 1114 723 1105 q 697 1122 709 1122 l 582 1122 q 561 1114 572 1122 q 549 1093 551 1105 l 529 1000 q 440 976 483 996 q 357 921 397 956 q 240 729 265 842 q 277 538 216 616 q 441 457 334 457 l 557 457 q 575 447 568 457 q 579 425 583 437 q 566 403 577 412 q 543 393 555 393 l 197 393 q 176 385 186 393 q 163 364 166 376 l 111 121 q 115 100 108 109 q 132 92 121 92 l 335 92 l 315 0 q 320 -20 313 -12 q 338 -29 327 -29 l 453 -29 q 474 -20 465 -29 q 488 0 484 -12 l 507 93 q 595 118 552 98 q 677 172 638 138 q 796 364 773 253 z "},"%":{"ha":1404,"x_min":146,"x_max":1438,"o":"m 1044 192 q 1046 187 1044 189 l 1044 192 m 1002 248 q 1006 243 1003 245 l 1002 248 m 427 526 q 428 523 428 524 q 431 521 429 522 l 427 526 m 386 582 q 389 578 386 578 l 386 582 m 704 29 l 710 29 l 892 886 l 886 886 l 704 29 m 1164 340 l 1103 340 q 1077 330 1089 340 q 1061 304 1065 319 l 1047 240 l 1111 240 q 1135 250 1124 240 q 1150 273 1147 260 l 1164 340 m 547 675 l 488 675 q 461 664 474 675 q 446 637 449 652 l 432 575 l 496 575 q 519 584 509 575 q 532 607 530 593 l 547 675 m 1034 505 q 983 446 1001 478 q 1027 474 1003 463 q 1076 485 1051 485 l 1162 485 q 1218 468 1195 485 q 1249 422 1240 451 l 1276 385 l 1284 371 l 1303 456 q 1297 536 1311 500 q 1269 548 1284 545 q 1236 551 1254 551 l 1149 551 q 1034 505 1086 551 m 418 840 q 389 811 401 825 q 367 781 377 796 q 411 808 387 798 q 461 819 435 819 l 547 819 q 601 802 578 819 q 633 755 624 784 l 661 720 l 668 704 l 686 790 q 682 869 696 833 q 618 886 654 886 l 532 886 q 472 874 501 886 q 418 840 444 862 m 293 456 q 292 385 283 419 q 364 364 321 364 l 452 364 q 509 375 481 364 q 561 407 537 385 q 607 463 590 430 q 567 439 589 447 q 521 431 545 431 l 435 431 q 394 439 412 431 q 364 464 376 447 l 334 505 q 310 536 318 517 l 293 456 m 908 121 q 908 52 900 83 q 940 35 922 40 q 979 29 958 29 l 1065 29 q 1125 40 1096 29 q 1179 72 1154 50 q 1204 99 1193 85 q 1223 129 1215 113 q 1184 104 1206 113 q 1139 96 1162 96 l 1051 96 q 1011 105 1029 96 q 981 131 992 114 l 949 171 q 925 201 931 183 l 908 121 m 979 652 q 1048 685 1013 675 q 1122 696 1084 696 l 1208 696 q 1354 627 1303 696 q 1366 609 1362 618 q 1375 591 1370 601 l 1396 562 q 1430 486 1421 528 q 1426 395 1438 445 l 1368 121 q 1333 29 1358 71 q 1268 -47 1308 -13 q 1093 -115 1187 -115 l 1006 -115 q 923 -98 960 -115 q 861 -46 887 -81 l 839 -16 l 839 -14 l 828 -61 q 819 -82 825 -72 q 804 -99 812 -92 q 784 -111 795 -106 q 764 -115 774 -115 l 648 -115 q 615 -100 627 -115 l 579 -53 q 562 -31 568 -45 q 559 0 556 -17 l 615 258 q 547 228 581 237 q 476 218 513 218 l 390 218 q 245 288 296 218 l 222 317 q 211 330 217 323 q 199 346 205 338 q 167 517 146 418 l 225 790 q 262 883 235 841 q 329 960 288 924 q 505 1031 410 1031 l 591 1031 q 739 960 686 1031 q 748 944 743 952 q 757 928 753 936 l 766 972 q 776 995 769 985 q 792 1014 783 1006 q 812 1026 801 1021 q 833 1031 823 1031 l 949 1031 q 978 1020 966 1031 q 993 993 989 1010 l 1025 949 q 1035 911 1039 932 l 979 652 m 607 699 q 608 734 611 718 q 595 763 604 751 q 572 783 586 776 q 541 790 558 790 l 454 790 q 419 783 437 790 q 387 763 401 776 q 362 734 372 751 q 347 699 351 718 l 328 607 q 328 572 324 589 q 340 544 331 556 q 364 524 350 531 q 396 517 378 517 l 482 517 q 518 524 500 517 q 550 543 536 530 q 574 571 564 555 q 587 607 584 587 l 607 699 m 1223 364 q 1224 399 1227 382 q 1212 428 1221 416 q 1189 448 1203 441 q 1157 456 1175 456 l 1071 456 q 1036 448 1053 456 q 1004 428 1019 441 q 979 399 989 416 q 965 364 969 382 l 946 273 q 945 238 942 255 q 957 209 948 222 q 981 189 966 197 q 1013 182 995 182 l 1099 182 q 1135 189 1118 182 q 1166 208 1152 196 q 1190 237 1180 220 q 1204 273 1200 254 l 1223 364 m 656 517 q 628 446 647 478 q 578 386 608 414 q 443 335 517 335 l 357 335 q 294 348 321 335 q 248 387 266 361 q 221 446 227 414 q 222 517 215 479 l 281 790 q 359 918 297 866 q 493 972 421 972 l 579 972 q 692 918 652 972 q 716 860 711 892 q 714 790 722 828 l 656 517 m 615 0 l 821 972 l 937 972 l 730 0 l 615 0 m 1272 182 q 1244 111 1264 143 q 1193 53 1223 79 q 1060 0 1132 0 l 974 0 q 861 53 904 0 q 837 112 844 80 q 839 182 831 144 l 897 456 q 925 525 905 493 q 975 585 945 557 q 1040 624 1006 610 q 1109 637 1074 637 l 1196 637 q 1259 624 1232 637 q 1307 585 1286 610 q 1331 456 1345 530 l 1272 182 m 1299 182 l 1357 456 q 1331 606 1375 544 q 1276 651 1308 636 q 1202 667 1244 667 l 1116 667 q 960 606 1032 667 q 902 537 924 574 q 869 456 879 500 l 811 182 q 809 101 803 138 q 839 33 816 64 q 893 -14 862 2 q 966 -29 924 -29 l 1054 -29 q 1210 32 1138 -29 q 1299 182 1279 91 m 684 517 l 742 790 q 744 871 750 834 q 714 939 737 908 q 660 986 692 970 q 586 1002 627 1002 l 500 1002 q 419 986 457 1002 q 345 939 381 970 q 253 790 271 879 l 195 517 q 222 367 175 429 q 277 320 245 335 q 351 306 309 306 l 437 306 q 518 320 479 306 q 593 366 556 335 q 684 517 665 428 m 724 -29 q 746 -20 736 -29 q 758 0 755 -12 l 965 972 q 961 993 967 984 q 943 1002 955 1002 l 828 1002 q 807 993 817 1002 q 794 972 798 984 l 587 0 q 592 -20 585 -12 q 608 -29 598 -29 l 724 -29 m 559 607 q 550 583 557 594 q 534 564 543 572 q 513 551 524 555 q 489 546 501 546 l 403 546 q 380 551 391 546 q 364 564 370 555 q 355 584 357 572 q 355 607 353 595 l 375 699 q 385 723 378 711 q 402 743 393 734 q 424 756 412 751 q 449 761 436 761 l 534 761 q 572 743 559 761 q 579 699 585 724 l 559 607 m 1178 273 q 1151 229 1173 246 q 1104 211 1130 211 l 1018 211 q 981 229 994 211 q 972 273 967 248 l 991 364 q 1001 389 994 377 q 1019 409 1008 400 q 1040 422 1029 417 q 1064 427 1052 427 l 1152 427 q 1189 408 1175 427 q 1197 364 1202 390 l 1178 273 z "},"&":{"ha":861,"x_min":83,"x_max":997,"o":"m 414 309 q 418 304 415 306 l 414 309 m 519 557 q 521 554 521 555 q 524 551 522 553 l 519 557 m 456 253 q 457 250 457 251 q 458 248 457 249 l 456 253 m 479 612 q 481 609 481 610 q 482 607 481 608 l 479 612 m 496 310 q 484 307 490 310 q 471 301 477 304 l 514 301 l 515 310 l 496 310 m 338 668 q 342 566 326 614 q 393 521 363 541 q 461 486 423 500 q 460 490 461 488 q 458 494 460 491 l 427 536 q 396 579 406 552 q 395 637 387 606 q 413 685 399 663 q 446 723 427 707 q 488 749 465 739 q 534 758 511 758 l 823 758 l 850 886 l 590 886 q 432 821 506 886 q 338 668 356 758 m 668 29 l 694 157 l 688 157 l 646 214 l 637 214 l 689 454 l 758 454 l 761 461 l 529 461 q 492 467 508 461 q 463 486 476 473 q 460 484 461 485 q 454 482 458 484 l 476 454 l 629 454 l 628 447 l 671 390 l 621 157 l 463 157 q 423 166 441 157 q 393 191 405 175 l 363 232 q 332 274 342 248 q 329 334 323 301 q 267 261 290 299 q 235 182 243 222 q 229 123 229 151 q 237 71 229 95 q 350 29 283 29 l 668 29 m 559 614 q 548 611 553 614 q 536 606 542 609 l 819 606 q 848 595 836 606 q 861 568 859 584 l 896 524 q 904 506 901 516 q 903 486 906 496 l 878 364 q 868 343 875 353 q 853 326 862 334 q 834 314 844 319 q 814 310 824 310 l 796 310 l 791 283 q 794 274 793 278 q 798 264 796 269 l 831 220 q 839 203 837 212 q 839 182 840 193 l 786 -61 q 778 -82 784 -72 q 763 -99 772 -92 q 744 -111 755 -106 q 724 -115 734 -115 l 378 -115 q 196 -28 260 -115 l 176 -1 q 149 31 161 12 q 110 243 83 120 q 163 378 124 315 q 261 485 202 440 q 209 593 221 530 q 212 729 197 656 q 343 942 237 852 q 562 1031 444 1031 l 908 1031 q 937 1020 926 1031 q 953 993 949 1010 l 986 949 q 993 911 997 933 l 942 668 q 933 647 940 657 q 918 630 927 637 q 899 618 909 623 q 879 614 889 614 l 559 614 m 596 425 l 463 425 q 428 418 445 425 q 396 398 410 410 q 371 370 382 386 q 357 335 361 353 q 357 299 353 316 q 370 270 360 283 q 393 250 379 258 q 425 243 408 243 l 558 243 l 596 425 m 345 0 q 259 18 296 0 q 197 72 222 35 q 165 243 142 144 q 193 323 174 285 q 239 394 212 362 q 300 450 266 426 q 375 486 335 473 q 316 523 340 499 q 278 578 292 547 q 262 649 264 610 q 268 729 259 687 q 374 900 289 829 q 550 972 456 972 l 897 972 l 846 729 l 529 729 q 493 722 511 729 q 461 702 476 715 q 436 673 447 690 q 422 637 426 656 q 422 602 418 618 q 434 574 425 586 q 458 554 444 562 q 490 547 472 547 l 807 547 l 781 425 l 711 425 l 673 243 l 743 243 l 690 0 l 345 0 m 685 -29 q 705 -20 695 -29 q 718 0 715 -12 l 771 243 q 766 263 772 254 q 749 272 759 272 l 707 272 l 733 396 l 774 396 q 796 405 785 396 q 808 425 806 414 l 835 547 q 830 568 837 559 q 812 576 824 576 l 496 576 q 457 594 471 576 q 450 637 444 612 q 460 662 453 650 q 476 682 467 673 q 497 695 486 690 q 521 700 509 700 l 839 700 q 860 709 849 700 q 873 729 870 718 l 925 972 q 921 993 927 984 q 903 1002 914 1002 l 557 1002 q 357 921 450 1002 q 240 729 265 842 q 241 588 224 652 q 309 486 259 524 q 199 384 243 448 q 138 243 155 321 q 172 52 112 131 q 338 -29 232 -29 l 685 -29 m 383 335 q 411 378 390 360 q 457 396 432 396 l 561 396 l 536 272 l 432 272 q 393 290 407 272 q 383 335 379 309 z "},"'":{"ha":446,"x_min":248,"x_max":593,"o":"m 389 812 l 436 947 l 400 947 l 389 812 m 273 639 q 254 657 261 645 q 248 684 248 670 l 275 1025 l 277 1034 q 286 1056 279 1045 q 301 1074 292 1066 q 321 1087 311 1082 q 345 1092 332 1092 l 507 1092 q 534 1082 524 1092 q 549 1057 545 1072 l 585 1011 q 592 993 590 1004 q 590 972 593 983 l 589 965 l 471 624 q 460 606 467 614 q 446 591 454 597 q 428 582 437 585 q 410 578 418 578 l 340 578 q 320 583 329 578 q 306 595 312 587 l 273 639 m 375 693 l 306 693 l 334 1034 l 494 1034 l 375 693 m 521 1029 q 520 1053 526 1043 q 500 1063 513 1063 l 339 1063 q 316 1053 326 1063 q 304 1029 306 1043 l 278 689 q 283 671 277 678 q 300 664 290 664 l 370 664 q 389 671 380 664 q 403 689 399 678 l 521 1029 z "},"(":{"ha":572,"x_min":57,"x_max":675,"o":"m 286 121 q 254 174 263 142 q 253 243 244 205 l 355 729 q 375 780 361 756 q 408 824 389 804 q 451 856 427 843 q 501 875 475 869 l 526 986 q 490 968 507 979 q 457 943 473 957 q 397 873 420 911 q 364 790 374 835 l 208 61 q 212 -50 194 -1 q 296 -90 248 -80 l 329 64 q 319 78 323 69 l 286 121 m 375 179 l 382 179 q 411 169 399 179 q 425 142 423 159 l 458 98 q 467 61 471 84 l 412 -193 l 363 -237 q 170 -150 235 -237 l 150 -122 q 136 -107 142 -115 q 122 -92 129 -100 q 82 121 57 -3 l 237 850 q 368 1064 264 975 q 589 1152 470 1152 q 617 1141 606 1152 q 632 1114 629 1131 l 665 1071 q 673 1054 671 1063 q 673 1034 675 1044 l 621 790 q 612 769 618 779 q 598 751 606 759 q 579 739 589 744 q 558 734 568 734 q 532 729 545 734 q 509 714 519 724 q 491 693 498 705 q 481 668 484 682 l 375 179 m 318 -122 q 234 -104 271 -122 q 170 -50 197 -85 q 136 28 144 -14 q 139 121 128 71 l 294 850 q 330 944 304 901 q 399 1022 357 987 q 576 1093 480 1093 l 525 850 q 478 840 501 850 q 436 814 455 831 q 402 776 416 798 q 383 729 389 754 l 281 243 q 280 196 275 218 q 296 157 284 174 q 327 131 308 140 q 370 121 346 121 l 318 -122 m 346 -122 l 397 121 q 394 142 401 134 q 375 150 387 150 q 342 157 357 150 q 319 177 328 165 q 307 207 310 190 q 309 243 304 224 l 412 729 q 427 765 416 748 q 451 794 437 782 q 484 813 466 806 q 519 821 501 821 q 539 829 530 821 q 553 850 549 838 l 604 1093 q 600 1114 606 1105 q 582 1122 593 1122 q 479 1103 528 1122 q 383 1043 430 1083 q 307 955 336 1002 q 267 850 278 907 l 111 121 q 107 17 98 64 q 147 -71 117 -30 q 217 -131 176 -111 q 313 -151 258 -151 l 346 -122 z "},")":{"ha":572,"x_min":86,"x_max":707,"o":"m 555 850 q 558 917 563 886 q 542 977 554 948 q 467 1006 509 1002 l 433 850 q 435 847 433 847 q 448 834 442 841 q 460 818 454 827 l 492 772 q 512 726 507 753 q 510 668 517 699 l 407 182 q 388 131 401 155 q 354 87 374 106 q 310 55 334 68 q 261 37 286 42 l 237 -74 q 274 -55 256 -66 q 307 -29 292 -43 q 367 39 344 2 q 400 121 391 77 l 555 850 m 317 799 q 298 820 303 806 q 296 850 292 833 l 347 1093 q 357 1116 350 1105 q 373 1134 363 1126 q 394 1147 382 1142 q 416 1152 405 1152 q 520 1130 476 1152 q 599 1064 565 1108 q 611 1045 605 1055 q 621 1025 616 1036 l 640 1000 q 679 790 707 914 l 525 61 q 479 -54 511 -2 q 396 -150 447 -106 q 179 -237 295 -237 q 159 -233 169 -237 q 144 -221 150 -229 l 111 -174 q 91 -152 96 -166 q 90 -122 86 -138 l 140 121 q 150 143 143 133 q 166 162 157 154 q 186 174 176 170 q 208 179 197 179 q 233 184 220 179 q 255 198 245 189 q 273 218 266 207 q 283 243 281 230 l 386 729 l 387 734 l 385 734 q 366 739 375 734 q 351 751 357 744 l 317 799 m 428 121 q 323 -50 406 20 q 237 -104 281 -85 q 146 -122 193 -122 l 197 121 q 244 131 220 121 q 287 157 267 140 q 320 196 306 174 q 339 243 334 218 l 441 729 q 443 776 447 754 q 426 814 438 798 q 395 840 414 831 q 353 850 376 850 l 403 1093 q 551 1022 499 1093 q 583 850 604 951 l 428 121 m 454 121 l 610 850 q 613 955 623 907 q 575 1043 604 1002 q 410 1122 517 1122 q 388 1114 397 1122 q 375 1093 378 1105 l 325 850 q 328 829 321 838 q 346 821 334 821 q 378 813 363 821 q 401 794 392 806 q 414 765 410 782 q 414 729 418 748 l 311 243 q 296 207 307 224 q 271 177 286 190 q 238 157 256 165 q 203 150 220 150 q 181 142 191 150 q 170 121 172 134 l 118 -122 q 121 -142 115 -134 q 140 -151 127 -151 q 242 -131 193 -151 q 339 -71 292 -111 q 454 121 431 10 z "},"*":{"ha":729,"x_min":193,"x_max":830,"o":"m 382 779 l 453 729 l 447 726 l 490 668 l 481 663 l 492 647 l 503 697 l 632 606 l 646 624 l 581 668 l 543 718 l 529 729 l 543 736 l 532 753 l 522 707 l 393 798 l 382 779 m 244 511 q 225 534 231 517 l 196 619 l 197 623 q 194 635 193 629 q 196 648 194 642 q 207 676 198 662 q 232 700 216 690 l 275 722 l 254 750 l 244 757 q 230 781 234 766 q 229 810 226 795 q 235 825 231 818 q 245 840 239 833 l 306 921 q 333 943 319 935 q 361 951 347 951 q 374 950 368 951 q 386 945 380 948 l 429 914 l 441 972 q 451 995 444 985 q 467 1014 458 1006 q 487 1026 476 1021 q 509 1031 498 1031 l 600 1031 q 629 1020 618 1031 q 644 993 641 1010 l 676 949 q 679 945 677 947 q 682 940 680 943 l 686 945 q 701 950 694 948 q 714 951 707 951 q 739 945 728 951 q 757 921 751 938 l 758 916 l 791 871 q 798 860 795 867 l 823 777 l 825 777 q 829 763 827 770 q 828 749 830 756 q 815 723 825 736 q 790 700 806 709 l 751 677 q 752 674 751 675 q 753 672 753 673 l 786 628 q 793 609 791 619 q 793 587 795 599 q 787 573 791 580 q 779 559 783 566 l 715 476 q 665 450 695 450 q 653 451 659 450 q 642 456 647 452 l 596 489 l 582 425 q 574 405 580 414 q 559 387 568 395 q 540 375 551 380 q 519 371 530 371 l 427 371 q 393 386 404 371 l 358 433 q 339 456 345 442 q 314 450 328 450 q 294 454 303 450 q 278 465 284 457 q 277 467 277 467 q 275 471 277 469 l 244 511 m 633 566 l 519 646 l 485 486 l 393 486 l 427 646 l 279 566 l 252 650 l 399 729 l 285 808 l 349 893 l 461 812 l 496 972 l 587 972 l 554 812 l 703 893 l 730 808 l 583 729 l 697 650 l 633 566 m 718 636 q 726 657 726 646 q 715 675 725 669 l 639 729 l 739 782 q 755 801 749 789 q 758 822 762 812 l 730 908 q 715 922 725 919 q 694 918 706 926 l 593 864 l 616 972 q 612 993 618 984 q 595 1002 606 1002 l 501 1002 q 481 993 491 1002 q 469 972 471 984 l 446 864 l 368 918 q 348 922 359 926 q 328 908 336 919 l 264 822 q 256 801 256 812 q 267 782 257 789 l 343 729 l 243 675 q 225 657 231 669 q 224 636 220 646 l 252 550 q 266 536 256 540 q 286 539 275 532 l 389 595 l 366 486 q 370 466 363 475 q 386 457 376 457 l 479 457 q 501 466 491 457 q 513 486 511 475 l 536 595 l 612 539 q 634 536 623 532 q 654 550 646 540 l 718 636 z "},"+":{"ha":746,"x_min":134,"x_max":777,"o":"m 439 359 l 444 387 l 418 387 l 439 359 m 467 406 l 492 406 l 472 433 l 467 406 m 612 532 l 688 532 q 716 522 705 532 q 732 494 728 511 l 764 452 q 772 412 777 437 l 751 315 q 743 295 749 304 q 728 277 736 285 q 709 266 719 270 q 689 261 699 261 l 555 261 l 525 121 q 517 100 523 110 q 502 83 511 90 q 483 71 494 75 q 463 66 473 66 l 371 66 q 335 82 349 66 l 301 131 q 283 152 289 138 q 281 182 277 165 l 297 261 l 228 261 q 192 277 204 261 l 158 325 q 139 346 144 332 q 138 376 134 359 l 158 473 q 167 496 160 486 q 183 514 174 507 q 204 527 193 522 q 227 532 215 532 l 354 532 l 383 668 q 393 691 386 680 q 409 709 399 701 q 430 722 418 717 q 452 726 441 726 l 545 726 q 573 716 562 726 q 587 689 584 706 l 621 646 q 629 628 626 638 q 628 607 631 618 l 612 532 m 471 376 l 429 182 l 336 182 l 378 376 l 193 376 l 214 473 l 399 473 l 440 668 l 532 668 l 490 473 l 675 473 l 656 376 l 471 376 m 648 347 q 670 356 660 347 q 684 376 680 365 l 704 473 q 699 494 706 486 q 682 503 692 503 l 525 503 l 559 668 q 556 689 563 681 q 539 697 549 697 l 446 697 q 425 689 435 697 q 412 668 414 681 l 376 503 l 220 503 q 199 494 209 503 q 186 473 189 486 l 165 376 q 169 356 162 365 q 187 347 176 347 l 345 347 l 309 182 q 313 161 307 170 q 330 153 319 153 l 422 153 q 444 161 434 153 q 457 182 454 170 l 492 347 l 648 347 z "},",":{"ha":446,"x_min":64,"x_max":410,"o":"m 207 -49 l 253 83 l 216 83 l 207 -49 m 90 -224 q 71 -205 78 -217 q 65 -180 64 -194 l 92 163 l 93 170 q 118 211 98 193 q 161 228 137 228 l 323 228 q 351 218 340 228 q 366 195 362 209 l 401 149 q 409 131 407 141 q 407 110 410 120 l 406 102 l 286 -239 q 277 -257 283 -248 q 262 -272 271 -265 q 245 -282 254 -279 q 227 -286 235 -286 l 157 -286 q 137 -281 145 -286 q 122 -268 129 -275 l 90 -224 m 192 -171 l 122 -171 l 150 170 l 311 170 l 192 -171 m 338 167 q 337 190 343 180 q 317 199 330 199 l 155 199 q 132 190 143 199 q 121 167 121 180 l 94 -174 q 100 -192 93 -184 q 117 -200 107 -200 l 186 -200 q 205 -192 195 -200 q 220 -174 215 -184 l 338 167 z "},"-":{"ha":746,"x_min":134,"x_max":777,"o":"m 158 325 q 139 346 144 332 q 138 376 134 359 l 158 473 q 167 496 160 486 q 183 514 174 507 q 204 527 193 522 q 227 532 215 532 l 688 532 q 716 522 705 532 q 732 494 728 511 l 764 452 q 772 412 777 437 l 751 315 q 743 295 749 304 q 728 277 736 285 q 709 266 719 270 q 689 261 699 261 l 228 261 q 192 277 204 261 l 158 325 m 193 376 l 214 473 l 675 473 l 656 376 l 193 376 m 648 347 q 670 356 660 347 q 684 376 680 365 l 704 473 q 699 494 706 486 q 682 503 692 503 l 220 503 q 199 494 209 503 q 186 473 189 486 l 165 376 q 169 356 162 365 q 187 347 176 347 l 648 347 z "},"­":{"ha":746,"x_min":134,"x_max":777,"o":"m 158 325 q 139 346 144 332 q 138 376 134 359 l 158 473 q 167 496 160 486 q 183 514 174 507 q 204 527 193 522 q 227 532 215 532 l 688 532 q 716 522 705 532 q 732 494 728 511 l 764 452 q 772 412 777 437 l 751 315 q 743 295 749 304 q 728 277 736 285 q 709 266 719 270 q 689 261 699 261 l 228 261 q 192 277 204 261 l 158 325 m 193 376 l 214 473 l 675 473 l 656 376 l 193 376 m 648 347 q 670 356 660 347 q 684 376 680 365 l 704 473 q 699 494 706 486 q 682 503 692 503 l 220 503 q 199 494 209 503 q 186 473 189 486 l 165 376 q 169 356 162 365 q 187 347 176 347 l 648 347 z "},".":{"ha":446,"x_min":54,"x_max":410,"o":"m 201 29 l 253 29 l 265 83 l 214 83 l 201 29 m 78 -53 q 60 -31 66 -45 q 57 0 54 -17 l 93 170 q 102 192 96 182 q 118 211 109 203 q 139 223 127 218 q 161 228 150 228 l 323 228 q 352 217 340 228 q 366 191 363 207 l 400 147 q 408 130 406 140 q 407 110 410 120 l 371 -61 q 362 -82 368 -72 q 347 -99 356 -92 q 329 -111 338 -106 q 309 -115 319 -115 l 147 -115 q 113 -100 125 -115 l 78 -53 m 113 0 l 150 170 l 311 170 l 275 0 l 113 0 m 268 -29 q 289 -20 279 -29 q 302 0 299 -12 l 339 170 q 335 190 342 182 q 317 199 328 199 l 155 199 q 134 190 144 199 q 121 170 124 182 l 85 0 q 89 -20 83 -12 q 107 -29 96 -29 l 268 -29 z "},"/":{"ha":729,"x_min":9,"x_max":908,"o":"m 36 -119 q 16 -98 22 -113 q 14 -64 9 -83 q 18 -51 15 -56 q 24 -43 20 -46 l 660 1097 q 687 1126 670 1116 q 722 1136 705 1136 q 729 1136 724 1136 q 739 1132 734 1135 l 741 1132 l 839 1092 q 854 1078 847 1086 q 863 1060 861 1070 l 899 1014 q 906 997 905 1006 q 907 977 908 987 q 902 965 905 970 q 899 957 900 961 l 897 957 l 897 956 l 258 -186 q 233 -212 249 -203 q 201 -221 216 -221 q 194 -221 198 -221 q 187 -220 191 -221 l 86 -178 q 69 -164 76 -174 l 36 -119 m 171 -106 l 71 -64 l 708 1078 l 808 1036 l 171 -106 m 832 1026 q 836 1049 838 1038 q 822 1064 833 1060 l 724 1105 q 702 1104 713 1109 q 684 1088 691 1099 l 45 -54 q 43 -77 39 -66 q 56 -93 46 -87 l 155 -134 q 176 -132 165 -138 q 195 -115 188 -127 l 832 1026 z "},":":{"ha":446,"x_min":54,"x_max":513,"o":"m 201 29 l 253 29 l 265 83 l 214 83 l 201 29 m 306 515 l 355 515 l 368 570 l 317 570 l 306 515 m 78 -53 q 60 -31 66 -45 q 57 0 54 -17 l 93 170 q 102 192 96 182 q 118 211 109 203 q 139 223 127 218 q 161 228 150 228 l 323 228 q 352 217 340 228 q 366 191 363 207 l 400 147 q 408 130 406 140 q 407 110 410 120 l 371 -61 q 362 -82 368 -72 q 347 -99 356 -92 q 329 -111 338 -106 q 309 -115 319 -115 l 147 -115 q 113 -100 125 -115 l 78 -53 m 180 433 q 163 455 169 441 q 160 486 157 469 l 197 656 q 206 679 199 668 q 222 697 212 689 q 242 709 231 705 q 265 714 254 714 l 427 714 q 455 704 444 714 q 469 676 466 693 l 503 633 q 511 616 508 626 q 510 596 513 606 l 473 425 q 465 405 471 414 q 451 387 459 395 q 432 375 442 380 q 412 371 422 371 l 250 371 q 216 386 228 371 l 180 433 m 113 0 l 150 170 l 311 170 l 275 0 l 113 0 m 216 486 l 253 656 l 414 656 l 378 486 l 216 486 m 372 457 q 393 466 382 457 q 406 486 404 475 l 441 656 q 438 676 445 668 q 421 685 431 685 l 258 685 q 237 676 248 685 q 225 656 227 668 l 189 486 q 193 466 186 475 q 210 457 199 457 l 372 457 m 268 -29 q 289 -20 279 -29 q 302 0 299 -12 l 339 170 q 335 190 342 182 q 317 199 328 199 l 155 199 q 134 190 144 199 q 121 170 124 182 l 85 0 q 89 -20 83 -12 q 107 -29 96 -29 l 268 -29 z "},";":{"ha":446,"x_min":64,"x_max":513,"o":"m 207 -49 l 253 83 l 216 83 l 207 -49 m 306 515 l 355 515 l 368 570 l 317 570 l 306 515 m 180 433 q 163 455 169 441 q 160 486 157 469 l 197 656 q 206 679 199 668 q 222 697 212 689 q 242 709 231 705 q 265 714 254 714 l 427 714 q 455 704 444 714 q 469 676 466 693 l 503 633 q 511 616 508 626 q 510 596 513 606 l 473 425 q 465 405 471 414 q 451 387 459 395 q 432 375 442 380 q 412 371 422 371 l 250 371 q 216 386 228 371 l 180 433 m 90 -224 q 71 -205 78 -217 q 65 -180 64 -194 l 92 163 l 93 170 q 118 211 98 193 q 161 228 137 228 l 323 228 q 351 218 340 228 q 366 195 362 209 l 401 149 q 409 131 407 141 q 407 110 410 120 l 406 102 l 286 -239 q 277 -257 283 -248 q 262 -272 271 -265 q 245 -282 254 -279 q 227 -286 235 -286 l 157 -286 q 137 -281 145 -286 q 122 -268 129 -275 l 90 -224 m 192 -171 l 122 -171 l 150 170 l 311 170 l 192 -171 m 216 486 l 253 656 l 414 656 l 378 486 l 216 486 m 338 167 q 337 190 343 180 q 317 199 330 199 l 155 199 q 132 190 143 199 q 121 167 121 180 l 94 -174 q 100 -192 93 -184 q 117 -200 107 -200 l 186 -200 q 205 -192 195 -200 q 220 -174 215 -184 l 338 167 m 372 457 q 393 466 382 457 q 406 486 404 475 l 441 656 q 438 676 445 668 q 421 685 431 685 l 258 685 q 237 676 248 685 q 225 656 227 668 l 189 486 q 193 466 186 475 q 210 457 199 457 l 372 457 z "},";":{"ha":446,"x_min":64,"x_max":513,"o":"m 207 -49 l 253 83 l 216 83 l 207 -49 m 306 515 l 355 515 l 368 570 l 317 570 l 306 515 m 180 433 q 163 455 169 441 q 160 486 157 469 l 197 656 q 206 679 199 668 q 222 697 212 689 q 242 709 231 705 q 265 714 254 714 l 427 714 q 455 704 444 714 q 469 676 466 693 l 503 633 q 511 616 508 626 q 510 596 513 606 l 473 425 q 465 405 471 414 q 451 387 459 395 q 432 375 442 380 q 412 371 422 371 l 250 371 q 216 386 228 371 l 180 433 m 90 -224 q 71 -205 78 -217 q 65 -180 64 -194 l 92 163 l 93 170 q 118 211 98 193 q 161 228 137 228 l 323 228 q 351 218 340 228 q 366 195 362 209 l 401 149 q 409 131 407 141 q 407 110 410 120 l 406 102 l 286 -239 q 277 -257 283 -248 q 262 -272 271 -265 q 245 -282 254 -279 q 227 -286 235 -286 l 157 -286 q 137 -281 145 -286 q 122 -268 129 -275 l 90 -224 m 192 -171 l 122 -171 l 150 170 l 311 170 l 192 -171 m 216 486 l 253 656 l 414 656 l 378 486 l 216 486 m 338 167 q 337 190 343 180 q 317 199 330 199 l 155 199 q 132 190 143 199 q 121 167 121 180 l 94 -174 q 100 -192 93 -184 q 117 -200 107 -200 l 186 -200 q 205 -192 195 -200 q 220 -174 215 -184 l 338 167 m 372 457 q 393 466 382 457 q 406 486 404 475 l 441 656 q 438 676 445 668 q 421 685 431 685 l 258 685 q 237 676 248 685 q 225 656 227 668 l 189 486 q 193 466 186 475 q 210 457 199 457 l 372 457 z "},"<":{"ha":722,"x_min":136,"x_max":791,"o":"m 279 395 l 271 355 l 525 153 l 539 172 l 301 364 l 279 395 m 464 376 l 640 236 l 637 236 q 642 227 640 231 q 646 218 644 222 l 682 170 q 689 152 688 162 q 688 132 691 142 q 683 117 686 125 q 675 102 680 109 l 673 102 l 607 21 l 606 21 q 581 2 595 8 q 557 -4 568 -4 q 529 5 543 -4 l 528 7 l 200 269 q 199 271 199 271 q 197 273 199 272 l 163 317 l 151 326 q 145 336 148 330 q 140 349 142 342 q 137 363 138 356 q 138 376 136 370 l 158 473 q 163 487 159 479 q 172 501 167 494 q 183 514 178 508 q 193 522 189 519 l 637 789 l 637 787 q 668 798 656 798 q 689 792 680 798 q 705 778 698 787 l 707 782 l 718 754 l 753 708 l 786 627 l 785 628 q 786 597 791 611 q 774 571 783 584 q 751 550 766 557 l 753 550 l 464 376 m 524 111 l 193 376 l 214 473 l 656 739 l 690 657 l 301 425 l 591 193 l 524 111 m 611 178 q 621 199 620 187 q 612 218 621 211 l 353 425 l 701 633 q 716 651 711 640 q 717 673 721 663 l 684 754 q 668 767 679 765 q 646 762 657 770 l 204 498 q 194 487 200 495 q 186 473 187 479 l 165 376 q 167 363 164 371 q 174 353 170 355 l 503 87 q 523 83 511 81 q 543 96 534 85 l 611 178 z "},"=":{"ha":746,"x_min":111,"x_max":798,"o":"m 673 422 l 669 428 l 668 428 l 672 422 l 673 422 m 135 215 q 116 236 122 222 q 114 267 111 250 l 135 364 q 155 400 139 385 q 191 421 171 416 l 180 433 q 163 455 169 441 q 160 486 157 469 l 180 583 q 207 624 187 607 q 249 642 226 642 l 711 642 q 739 631 728 642 q 754 604 751 621 l 787 559 q 795 543 793 552 q 794 522 798 534 l 774 425 q 754 390 770 406 q 718 371 737 374 l 742 342 q 750 325 747 334 q 749 304 752 315 l 728 207 q 720 186 726 196 q 705 168 713 176 q 686 156 696 161 q 665 151 675 151 l 204 151 q 184 156 193 151 q 170 168 176 161 l 135 215 m 170 267 l 191 364 l 653 364 l 632 267 l 170 267 m 216 486 l 237 583 l 699 583 l 677 486 l 216 486 m 672 457 q 693 466 683 457 q 705 486 703 475 l 726 583 q 723 604 730 595 q 704 612 715 612 l 243 612 q 221 604 231 612 q 208 583 212 595 l 189 486 q 193 466 186 475 q 210 457 199 457 l 672 457 m 627 237 q 647 246 637 237 q 660 267 656 255 l 681 364 q 677 385 684 376 q 659 393 670 393 l 197 393 q 176 385 186 393 q 163 364 166 376 l 142 267 q 146 246 140 255 q 164 237 153 237 l 627 237 z "},">":{"ha":722,"x_min":96,"x_max":749,"o":"m 590 422 l 607 399 l 616 441 l 364 642 l 349 623 l 596 425 l 590 422 m 224 599 l 204 615 l 208 615 q 197 635 200 624 q 197 657 194 646 q 201 671 199 663 q 212 689 204 680 l 290 782 l 289 778 q 311 792 298 787 q 334 798 323 798 q 363 787 345 798 l 363 789 l 692 522 q 698 514 695 520 q 704 500 701 507 l 737 456 q 746 435 743 448 q 747 412 749 422 l 726 315 q 721 303 725 310 q 713 290 718 296 q 703 277 708 283 q 693 269 697 272 l 253 5 q 235 -2 244 0 q 220 -4 226 -4 q 203 0 211 -4 q 189 12 195 5 l 153 58 q 145 65 149 62 q 140 72 142 68 l 139 68 l 100 161 q 96 178 96 171 q 98 193 96 186 q 108 216 101 205 q 126 236 115 227 l 122 236 l 425 416 l 260 550 l 260 551 q 253 558 255 553 l 224 599 m 189 111 l 154 193 l 542 425 l 253 657 l 321 739 l 652 473 l 631 376 l 189 111 m 642 353 q 651 363 645 355 q 659 376 657 371 l 679 473 q 678 487 680 479 q 672 498 675 495 l 340 762 q 321 767 333 770 q 301 754 310 765 l 233 673 q 224 651 224 663 q 233 633 224 640 l 492 425 l 144 218 q 128 199 134 211 q 127 178 122 187 l 161 96 q 176 83 165 85 q 197 87 186 81 l 642 353 z "},"?":{"ha":791,"x_min":112,"x_max":885,"o":"m 500 515 q 524 516 511 515 q 549 521 537 517 l 389 521 l 387 515 l 500 515 m 258 29 l 311 29 l 323 83 l 271 83 l 258 29 m 749 729 q 734 856 763 800 q 689 878 713 870 q 636 886 665 886 l 383 886 l 357 758 l 551 758 q 592 745 575 758 q 616 713 609 732 l 647 668 q 659 641 656 656 q 659 607 663 625 q 650 584 656 595 q 636 562 644 573 q 646 570 642 567 q 656 578 650 574 q 715 647 692 609 q 749 729 738 685 m 232 676 q 214 697 220 684 q 212 729 208 711 l 264 972 q 289 1014 269 996 q 332 1031 309 1031 l 608 1031 q 791 942 728 1031 q 804 924 799 932 q 814 904 808 915 l 833 879 l 832 879 l 835 879 q 876 783 867 835 q 872 668 885 731 q 745 458 846 545 q 640 393 693 414 q 528 371 587 371 l 482 371 l 444 227 q 422 195 439 209 q 423 192 424 193 q 424 189 422 191 l 458 147 q 466 130 463 140 q 465 110 469 120 l 429 -61 q 405 -99 424 -83 q 366 -115 387 -115 l 204 -115 q 185 -111 194 -115 q 171 -100 176 -107 l 136 -53 q 118 -31 123 -45 q 115 0 112 -17 l 151 170 q 161 192 154 182 q 177 211 168 203 q 197 223 186 218 q 220 228 208 228 l 253 228 l 245 237 q 225 257 232 243 q 222 286 219 271 l 268 604 l 268 607 q 273 623 270 614 q 269 626 271 624 q 267 629 267 627 l 232 676 m 171 0 l 208 170 l 370 170 l 334 0 l 171 0 m 777 729 q 739 636 766 679 q 672 558 713 594 q 493 486 589 486 l 403 486 l 349 292 l 279 292 l 325 607 l 519 607 q 543 612 531 607 q 564 626 554 617 q 580 645 573 634 q 590 668 587 656 q 591 691 593 680 q 583 711 589 703 q 567 724 576 720 q 546 729 558 729 l 268 729 l 319 972 l 597 972 q 745 900 692 972 q 777 729 797 829 m 804 729 q 768 921 829 842 q 697 982 738 962 q 603 1002 657 1002 l 325 1002 q 305 993 315 1002 q 292 972 295 984 l 240 729 q 244 709 238 718 q 261 700 251 700 l 539 700 q 558 690 551 700 q 562 668 566 681 q 548 646 559 656 q 525 636 536 636 l 330 636 q 308 627 318 636 q 296 606 298 618 l 252 289 q 256 271 250 279 q 273 262 262 262 l 343 262 q 362 271 353 262 q 375 289 372 279 l 422 457 l 488 457 q 590 477 541 457 q 686 538 640 497 q 762 625 733 577 q 804 729 791 673 m 326 -29 q 347 -20 338 -29 q 359 0 356 -12 l 396 170 q 393 190 399 182 q 375 199 387 199 l 214 199 q 192 190 202 199 q 179 170 182 182 l 143 0 q 148 -20 141 -12 q 165 -29 154 -29 l 326 -29 z "},"@":{"ha":1208,"x_min":30,"x_max":1314,"o":"m 935 180 q 940 193 937 187 q 945 207 943 199 l 951 237 l 935 180 m 1152 854 q 1141 862 1145 859 q 1132 868 1137 865 q 1136 858 1134 863 q 1140 848 1138 853 l 1164 814 q 1159 835 1162 825 q 1152 854 1157 845 m 179 -146 q 182 -158 180 -152 q 186 -171 184 -165 q 203 -185 195 -178 q 222 -197 212 -192 l 197 -163 q 187 -155 191 -159 q 179 -146 182 -150 m 623 298 q 612 266 617 279 q 604 240 608 252 l 659 240 q 686 251 673 240 q 705 278 700 262 q 716 313 712 298 q 724 340 720 329 l 675 340 q 644 328 659 340 q 623 298 628 316 m 283 -100 l 289 -100 l 461 -100 q 429 -80 444 -92 q 403 -53 414 -68 l 376 -17 q 365 -6 370 -12 q 354 5 359 -1 q 332 44 340 24 q 322 85 324 63 l 283 -100 m 611 504 q 588 481 600 494 q 568 457 576 469 q 606 477 586 469 q 646 485 627 485 l 733 485 q 785 470 765 485 q 814 432 804 456 l 844 390 q 847 385 846 387 q 850 380 848 382 l 872 458 q 876 468 876 465 q 878 472 876 471 q 876 539 884 511 q 821 551 852 551 l 733 551 q 673 540 703 551 q 612 504 643 528 l 611 504 m 450 106 q 450 46 441 72 q 478 33 463 37 q 511 29 494 29 q 524 29 517 29 q 539 28 532 29 l 564 28 q 671 68 656 28 l 724 62 l 722 56 l 743 29 l 781 29 l 762 56 l 754 56 l 777 134 q 733 106 757 117 q 685 96 709 96 l 599 96 q 560 104 577 96 q 532 126 543 112 l 501 167 q 476 196 485 177 l 454 118 l 450 106 m 975 567 q 1006 493 998 534 l 1064 765 l 1064 772 l 530 772 q 506 767 518 772 q 482 752 493 762 q 464 731 471 743 q 453 704 456 718 l 372 322 l 412 461 q 456 550 427 509 q 529 627 484 591 q 616 679 572 662 q 707 696 661 696 l 793 696 q 936 627 883 696 l 935 627 l 949 602 l 974 570 l 972 570 l 975 567 m 122 -244 q 109 -229 116 -237 q 96 -212 102 -222 q 57 0 30 -123 l 212 729 q 257 844 225 792 q 342 942 288 897 q 562 1031 443 1031 l 1025 1031 q 1208 942 1142 1031 q 1220 924 1216 932 q 1229 904 1223 915 l 1250 879 q 1287 668 1314 792 l 1185 182 q 1140 67 1171 119 q 1059 -29 1109 15 q 991 -76 1026 -56 q 920 -104 956 -95 q 935 -118 930 -110 q 943 -136 941 -125 l 977 -180 q 984 -198 983 -188 q 985 -220 986 -208 l 966 -304 q 957 -325 964 -315 q 942 -342 951 -335 q 923 -354 933 -349 q 903 -358 913 -358 l 325 -358 q 221 -336 267 -358 q 143 -271 176 -315 l 122 -244 m 787 374 q 779 433 796 410 q 728 456 762 456 l 640 456 q 605 448 623 456 q 572 428 587 441 q 544 399 556 416 q 528 364 532 382 q 507 295 514 320 q 500 267 500 271 q 498 233 496 248 q 508 206 500 218 q 529 188 516 195 q 558 182 542 182 l 646 182 q 682 189 664 182 q 715 209 700 197 q 743 238 731 222 q 761 273 755 255 q 779 343 772 319 q 787 374 786 368 m 1089 243 q 1052 149 1078 192 q 985 71 1027 106 q 806 0 901 0 l 679 0 l 696 61 q 652 14 686 30 q 558 -1 617 -1 l 530 -1 q 516 0 522 0 q 505 0 510 0 q 403 47 440 0 q 379 102 384 73 q 382 167 374 131 q 386 182 382 170 l 468 456 q 501 525 479 493 q 555 585 523 557 q 694 637 624 637 l 782 637 q 884 590 849 637 q 905 472 921 544 q 903 466 904 471 q 900 456 902 462 l 791 85 l 860 85 q 907 94 884 85 q 949 120 930 104 q 981 159 968 136 q 1000 207 995 181 l 1120 765 q 1120 812 1124 790 q 1103 851 1116 835 q 1072 878 1091 868 q 1029 888 1053 888 l 498 888 q 451 878 474 888 q 409 851 428 868 q 376 812 390 835 q 357 765 363 790 l 187 -36 q 186 -83 182 -61 q 202 -122 190 -106 q 233 -149 214 -139 q 277 -158 252 -158 l 888 -158 l 869 -243 l 292 -243 q 143 -171 196 -243 q 113 0 91 -100 l 268 729 q 304 822 279 780 q 372 900 330 864 q 550 972 455 972 l 1013 972 q 1161 900 1106 972 q 1194 822 1186 864 q 1192 729 1202 780 l 1089 243 m 1117 243 l 1219 729 q 1183 921 1244 840 q 1113 982 1153 962 q 1018 1002 1073 1002 l 557 1002 q 355 921 448 1002 q 281 833 309 881 q 240 729 253 786 l 85 0 q 119 -192 62 -113 q 191 -252 150 -233 q 286 -272 231 -272 l 863 -272 q 885 -263 874 -272 q 897 -243 895 -254 l 916 -158 q 911 -137 918 -146 q 893 -129 905 -129 l 282 -129 q 249 -122 264 -129 q 225 -102 235 -115 q 213 -72 216 -89 q 214 -36 210 -56 l 383 765 q 398 801 387 784 q 424 831 409 819 q 456 851 438 844 q 492 859 473 859 l 1023 859 q 1056 851 1041 859 q 1080 831 1070 844 q 1093 801 1089 819 q 1092 765 1096 784 l 972 207 q 958 170 968 187 q 933 141 947 153 q 901 121 918 128 q 865 114 884 114 l 827 114 l 928 453 l 928 452 q 931 465 930 459 q 933 472 932 470 q 936 550 942 515 q 907 612 930 585 q 857 653 886 640 q 787 667 827 667 l 701 667 q 619 651 659 667 q 542 607 579 636 q 479 538 504 576 q 440 458 454 501 l 358 184 l 359 186 q 355 174 356 180 q 354 167 354 168 q 350 90 345 125 q 379 26 356 56 q 500 -29 420 -29 q 508 -29 503 -29 q 521 -31 513 -29 l 551 -31 q 652 -16 612 -31 q 673 -29 656 -29 l 800 -29 q 904 -10 854 -29 q 1000 50 953 9 q 1076 138 1047 90 q 1117 243 1104 185 m 760 374 q 752 345 758 368 q 733 277 747 321 q 721 251 729 263 q 701 230 712 239 q 677 216 690 221 q 653 211 665 211 l 566 211 q 533 227 545 211 q 528 267 522 243 q 534 294 528 270 q 553 363 541 317 q 566 387 557 376 q 586 408 575 399 q 610 421 597 416 q 635 427 623 427 l 722 427 q 754 412 744 427 q 760 374 765 397 z "},"A":{"ha":861,"x_min":54,"x_max":956,"o":"m 428 422 l 610 422 l 648 607 l 650 614 l 532 614 q 506 608 519 614 q 483 594 493 603 q 465 573 472 585 q 454 547 457 561 l 428 422 m 279 335 l 272 335 l 329 607 q 353 666 336 639 q 394 714 370 694 q 447 746 418 734 q 505 758 475 758 l 621 758 q 689 739 661 758 q 729 686 718 720 l 754 652 q 774 605 769 632 q 774 547 780 578 l 717 278 l 322 278 l 279 335 m 659 265 l 701 208 l 664 29 l 668 29 l 818 729 q 822 797 825 765 q 807 856 819 828 q 760 878 785 870 q 705 886 735 886 l 590 886 q 432 821 506 886 q 338 668 356 758 l 201 29 l 207 29 l 258 272 l 661 272 l 659 265 m 78 -53 q 60 -31 66 -45 q 57 0 54 -17 l 212 729 q 343 942 237 852 q 562 1031 444 1031 l 677 1031 q 785 1009 739 1031 q 863 943 830 988 q 875 924 870 934 q 885 905 880 915 l 905 879 q 946 783 937 835 q 942 668 956 732 l 786 -61 q 778 -82 784 -72 q 763 -99 772 -92 q 744 -111 755 -106 q 724 -115 734 -115 l 608 -115 q 589 -111 598 -115 q 575 -100 581 -107 l 539 -53 q 522 -31 528 -45 q 519 0 516 -17 l 547 127 l 364 127 l 325 -61 q 316 -82 322 -72 q 301 -99 310 -92 q 282 -111 292 -106 q 262 -115 273 -115 l 147 -115 q 113 -100 125 -115 l 78 -53 m 704 607 q 705 655 709 633 q 689 694 701 677 q 659 720 677 710 q 615 729 640 729 l 500 729 q 453 720 476 729 q 410 693 429 710 q 377 654 391 677 q 357 607 363 632 l 306 364 l 653 364 l 704 607 m 575 0 l 627 243 l 281 243 l 228 0 l 113 0 l 268 729 q 374 900 289 829 q 550 972 456 972 l 665 972 q 815 901 763 972 q 846 729 867 831 l 690 0 l 575 0 m 685 -29 q 705 -20 695 -29 q 718 0 715 -12 l 873 729 q 877 834 885 787 q 839 922 869 882 q 768 982 810 963 q 672 1002 727 1002 l 557 1002 q 357 921 450 1002 q 240 729 265 842 l 85 0 q 89 -20 83 -12 q 107 -29 96 -29 l 222 -29 q 244 -20 234 -29 q 257 0 254 -12 l 301 214 l 591 214 l 547 0 q 551 -20 544 -12 q 568 -29 557 -29 l 685 -29 m 385 607 q 399 643 389 626 q 424 673 410 660 q 456 693 439 686 q 492 700 473 700 l 607 700 q 641 693 626 700 q 664 673 655 686 q 676 644 673 661 q 675 607 679 627 l 631 393 l 340 393 l 385 607 z "},"B":{"ha":861,"x_min":54,"x_max":954,"o":"m 467 606 l 558 606 q 570 607 565 606 q 579 614 575 608 l 468 614 l 467 606 m 403 301 l 494 301 q 506 303 500 301 q 515 310 511 306 l 403 310 l 403 301 m 253 214 l 245 214 l 296 454 l 526 454 q 581 437 558 454 q 612 392 604 420 l 642 354 q 657 318 652 338 q 657 273 663 298 q 639 228 652 250 q 607 191 625 207 q 566 166 588 175 q 521 157 543 157 l 296 157 l 253 214 m 714 243 q 715 311 722 277 q 692 374 709 345 q 650 402 673 389 q 600 425 627 416 l 575 461 l 361 461 l 318 518 l 311 518 l 363 758 l 591 758 q 646 741 624 758 q 677 694 668 724 l 705 659 q 722 621 717 642 q 722 578 726 601 l 720 566 q 735 578 728 572 q 750 591 743 585 q 790 651 774 619 q 814 717 806 682 l 818 729 q 822 797 825 765 q 804 856 818 828 q 759 878 783 870 q 705 886 735 886 l 383 886 l 201 29 l 465 29 q 547 45 507 29 q 623 92 587 61 q 681 161 658 123 q 714 243 705 199 m 78 -53 q 60 -31 66 -45 q 57 0 54 -17 l 264 972 q 289 1014 269 996 q 332 1031 309 1031 l 677 1031 q 861 942 797 1031 q 873 924 869 932 q 884 904 878 915 l 904 879 q 945 783 937 835 q 942 668 954 731 l 939 656 q 917 588 930 620 q 882 524 903 555 l 884 522 l 865 500 q 856 491 861 496 q 847 481 851 486 l 846 481 q 814 452 829 465 q 787 427 800 438 l 802 406 q 843 305 834 363 q 839 182 852 248 q 794 68 825 120 q 711 -28 762 16 q 493 -115 608 -115 l 147 -115 q 113 -100 125 -115 l 78 -53 m 587 335 q 588 370 591 353 q 576 398 585 386 q 552 418 567 410 q 519 425 538 425 l 318 425 l 281 243 l 482 243 q 517 250 500 243 q 549 270 534 258 q 573 299 563 283 q 587 335 584 316 m 654 637 q 654 673 658 656 q 642 702 651 690 q 618 722 632 715 q 586 729 604 729 l 383 729 l 345 547 l 547 547 q 582 554 565 547 q 614 574 600 562 q 640 602 629 586 q 654 637 650 618 m 743 243 q 706 150 732 193 q 637 72 680 108 q 460 0 555 0 l 113 0 l 319 972 l 665 972 q 814 900 761 972 q 848 822 840 864 q 846 729 857 780 l 842 717 q 815 642 833 678 q 768 575 798 606 q 706 520 739 543 q 635 486 673 498 q 694 450 669 473 q 732 394 718 426 q 749 323 746 362 q 743 243 751 285 m 771 243 q 768 385 787 321 q 700 486 750 448 q 746 518 724 500 q 787 558 768 536 l 786 558 q 841 634 820 595 q 869 717 861 673 l 873 729 q 838 921 897 842 q 672 1002 778 1002 l 325 1002 q 305 993 315 1002 q 292 972 295 984 l 85 0 q 89 -20 83 -12 q 107 -29 96 -29 l 453 -29 q 653 52 559 -29 q 728 139 699 92 q 771 243 758 186 m 627 637 q 599 594 620 612 q 553 576 578 576 l 379 576 l 404 700 l 578 700 q 617 682 603 700 q 627 637 631 663 m 559 335 q 551 310 557 321 q 534 290 544 299 q 513 277 524 281 q 489 272 501 272 l 315 272 l 340 396 l 514 396 q 553 378 539 396 q 559 335 566 360 z "},"C":{"ha":861,"x_min":83,"x_max":997,"o":"m 668 29 l 694 157 l 435 157 q 382 168 404 157 q 345 199 359 179 l 317 237 q 280 291 291 258 q 278 364 269 324 l 329 607 q 353 666 336 639 q 394 714 370 694 q 447 746 418 734 q 505 758 475 758 l 823 758 l 850 886 l 590 886 q 432 821 506 886 q 338 668 356 758 l 235 182 q 229 123 229 151 q 237 71 229 95 q 350 29 283 29 l 668 29 m 403 301 l 408 301 l 754 301 q 783 291 772 301 q 798 264 794 281 l 831 220 q 839 203 837 212 q 839 182 840 193 l 786 -61 q 778 -82 784 -72 q 763 -99 772 -92 q 744 -111 755 -106 q 724 -115 734 -115 l 378 -115 q 196 -28 260 -115 l 176 -1 q 149 31 161 12 q 110 243 83 120 l 212 729 q 343 942 237 852 q 562 1031 444 1031 l 908 1031 q 937 1020 926 1031 q 953 993 949 1010 l 986 949 q 993 911 997 933 l 942 668 q 933 647 940 657 q 918 630 927 637 q 899 618 909 623 q 879 614 889 614 l 532 614 q 506 608 519 614 q 483 594 493 603 q 465 573 472 585 q 454 547 457 561 l 403 301 m 345 0 q 259 18 296 0 q 197 72 222 35 q 165 243 142 144 l 268 729 q 374 900 289 829 q 550 972 456 972 l 897 972 l 846 729 l 500 729 q 453 720 476 729 q 410 693 429 710 q 377 654 391 677 q 357 607 363 632 l 306 364 q 305 317 300 339 q 322 278 310 295 q 353 252 334 262 q 396 243 372 243 l 743 243 l 690 0 l 345 0 m 685 -29 q 705 -20 695 -29 q 718 0 715 -12 l 771 243 q 766 263 772 254 q 749 272 759 272 l 403 272 q 370 279 385 272 q 346 299 355 287 q 334 329 337 312 q 335 364 331 345 l 385 607 q 399 643 389 626 q 424 673 410 660 q 456 693 439 686 q 492 700 473 700 l 839 700 q 860 709 849 700 q 873 729 870 718 l 925 972 q 921 993 927 984 q 903 1002 914 1002 l 557 1002 q 357 921 450 1002 q 240 729 265 842 l 138 243 q 172 52 112 131 q 338 -29 232 -29 l 685 -29 z "},"D":{"ha":861,"x_min":54,"x_max":954,"o":"m 648 607 l 650 614 l 468 614 l 403 301 l 524 301 q 549 306 536 301 q 571 319 561 311 q 588 339 581 328 q 597 364 595 351 l 648 607 m 253 214 l 245 214 l 363 758 l 621 758 q 687 740 659 758 q 726 690 714 722 l 754 652 q 774 605 769 632 q 774 547 780 578 l 722 304 q 699 245 715 273 q 659 199 682 218 q 608 168 636 179 q 550 157 580 157 l 296 157 l 253 214 m 818 729 q 822 797 825 765 q 804 856 818 828 q 759 878 783 870 q 705 886 735 886 l 383 886 l 201 29 l 465 29 q 624 92 552 29 q 714 243 694 153 l 818 729 m 78 -53 q 60 -31 66 -45 q 57 0 54 -17 l 264 972 q 289 1014 269 996 q 332 1031 309 1031 l 677 1031 q 861 942 797 1031 q 873 924 869 932 q 884 904 878 915 l 904 879 q 945 783 937 835 q 942 668 954 731 l 839 182 q 713 -29 812 58 q 607 -94 661 -73 q 493 -115 553 -115 l 147 -115 q 113 -100 125 -115 l 78 -53 m 704 607 q 705 654 709 632 q 688 693 701 677 q 657 720 676 710 q 615 729 638 729 l 383 729 l 281 243 l 511 243 q 559 252 536 243 q 601 278 583 262 q 633 316 620 294 q 653 364 647 338 l 704 607 m 743 243 q 706 149 732 192 q 637 71 680 106 q 460 0 555 0 l 113 0 l 319 972 l 665 972 q 814 900 761 972 q 848 822 840 864 q 846 729 857 780 l 743 243 m 771 243 l 873 729 q 838 921 897 842 q 672 1002 778 1002 l 325 1002 q 305 993 315 1002 q 292 972 295 984 l 85 0 q 89 -20 83 -12 q 107 -29 96 -29 l 453 -29 q 557 -10 508 -29 q 654 50 606 9 q 729 138 701 90 q 771 243 758 185 m 625 364 q 611 328 621 345 q 586 299 600 311 q 554 279 572 286 q 518 272 537 272 l 315 272 l 404 700 l 607 700 q 640 693 625 700 q 664 673 654 686 q 676 643 673 660 q 675 607 679 626 l 625 364 z "},"E":{"ha":746,"x_min":96,"x_max":882,"o":"m 553 29 l 579 157 l 435 157 q 381 168 404 157 q 345 199 359 179 l 318 235 q 280 288 291 254 q 278 364 269 321 l 296 454 l 528 454 l 529 461 l 361 461 l 318 518 l 311 518 l 363 758 l 708 758 l 734 886 l 383 886 l 235 182 q 228 122 227 151 q 237 69 228 94 q 350 29 281 29 l 553 29 m 403 301 l 408 301 l 639 301 q 668 291 656 301 q 682 264 679 281 l 714 220 q 723 203 722 212 q 724 182 725 193 l 671 -61 q 663 -82 669 -72 q 648 -99 656 -92 q 629 -111 640 -106 q 608 -115 618 -115 l 378 -115 q 195 -29 258 -115 l 175 -3 q 147 29 159 10 q 105 126 114 74 q 110 243 96 179 l 264 972 q 289 1014 269 996 q 332 1031 309 1031 l 793 1031 q 822 1020 810 1031 q 838 993 833 1010 l 869 949 q 878 911 882 934 l 827 668 q 818 647 825 657 q 803 630 812 637 q 783 618 793 623 q 762 614 772 614 l 468 614 l 467 606 l 587 606 q 616 595 605 606 q 631 568 627 584 l 665 524 q 672 486 676 508 l 646 364 q 637 343 644 353 q 622 326 631 334 q 604 314 614 319 q 583 310 593 310 l 403 310 l 403 301 m 345 0 q 195 71 247 0 q 165 243 142 142 l 319 972 l 782 972 l 730 729 l 383 729 l 345 547 l 576 547 l 549 425 l 318 425 l 306 364 q 304 316 300 338 q 321 278 309 294 q 352 252 333 262 q 396 243 372 243 l 627 243 l 575 0 l 345 0 m 568 -29 q 590 -20 580 -29 q 603 0 600 -12 l 656 243 q 650 263 657 254 q 633 272 644 272 l 403 272 q 369 279 384 272 q 346 299 355 286 q 334 328 336 311 q 335 364 331 345 l 340 396 l 543 396 q 565 405 555 396 q 578 425 576 414 l 604 547 q 600 568 606 559 q 582 576 593 576 l 379 576 l 404 700 l 724 700 q 744 709 734 700 q 758 729 755 718 l 810 972 q 805 993 812 984 q 787 1002 798 1002 l 325 1002 q 305 993 315 1002 q 292 972 295 984 l 138 243 q 171 50 112 128 q 241 -10 200 9 q 338 -29 283 -29 l 568 -29 z "},"F":{"ha":717,"x_min":54,"x_max":882,"o":"m 708 758 l 734 886 l 590 886 q 431 822 503 886 q 370 752 393 791 q 338 668 348 714 l 201 29 l 207 29 l 296 454 l 528 454 l 529 461 l 361 461 l 318 518 l 311 518 l 329 607 q 353 667 336 640 q 393 715 370 695 q 446 747 417 736 q 505 758 475 758 l 708 758 m 78 -53 q 60 -31 66 -45 q 57 0 54 -17 l 212 729 q 257 846 225 793 q 342 943 289 899 q 447 1009 393 988 q 562 1031 502 1031 l 793 1031 q 822 1020 810 1031 q 838 993 833 1010 l 869 949 q 878 911 882 934 l 827 668 q 818 647 825 657 q 803 630 812 637 q 783 618 793 623 q 762 614 772 614 l 532 614 q 515 611 522 614 q 498 606 507 609 l 587 606 q 616 595 605 606 q 631 568 627 584 l 665 524 q 672 486 676 508 l 646 364 q 637 343 644 353 q 622 326 631 334 q 604 314 614 319 q 583 310 593 310 l 403 310 l 325 -61 q 316 -82 322 -72 q 301 -99 310 -92 q 282 -111 292 -106 q 262 -115 273 -115 l 147 -115 q 113 -100 125 -115 l 78 -53 m 500 729 q 452 720 475 729 q 409 694 429 710 q 376 655 390 677 q 357 607 363 633 l 345 547 l 576 547 l 549 425 l 318 425 l 228 0 l 113 0 l 268 729 q 304 823 279 781 q 372 901 330 866 q 550 972 454 972 l 782 972 l 730 729 l 500 729 m 724 700 q 744 709 734 700 q 758 729 755 718 l 810 972 q 805 993 812 984 q 787 1002 798 1002 l 557 1002 q 453 982 502 1002 q 355 922 404 963 q 281 834 309 882 q 240 729 253 787 l 85 0 q 89 -20 83 -12 q 107 -29 96 -29 l 222 -29 q 244 -20 234 -29 q 257 0 254 -12 l 340 396 l 543 396 q 565 405 555 396 q 578 425 576 414 l 604 547 q 600 568 606 559 q 582 576 593 576 l 379 576 l 385 607 q 399 644 389 627 q 424 673 410 661 q 455 693 438 686 q 492 700 473 700 l 724 700 z "},"G":{"ha":861,"x_min":83,"x_max":997,"o":"m 823 758 l 850 886 l 590 886 q 432 821 506 886 q 338 668 356 758 l 235 182 q 229 123 229 151 q 237 71 229 95 q 350 29 283 29 l 657 29 l 750 461 l 582 461 l 579 454 l 686 454 l 685 447 l 728 390 l 677 157 l 435 157 q 382 168 404 157 q 345 199 359 179 l 317 237 q 280 291 291 258 q 278 364 269 324 l 329 607 q 353 666 336 639 q 394 714 370 694 q 447 746 418 734 q 505 758 475 758 l 823 758 m 176 -1 q 149 31 161 12 q 110 243 83 120 l 212 729 q 343 942 237 852 q 562 1031 444 1031 l 908 1031 q 937 1020 926 1031 q 953 993 949 1010 l 986 949 q 993 911 997 933 l 942 668 q 933 647 940 657 q 918 630 927 637 q 899 618 909 623 q 879 614 889 614 l 532 614 q 506 608 519 614 q 483 594 493 603 q 465 573 472 585 q 454 547 457 561 l 403 301 l 408 301 l 572 301 l 574 310 l 525 310 q 506 314 515 310 q 492 325 497 317 l 457 374 q 438 395 444 381 q 436 425 433 408 l 463 547 q 472 569 465 559 q 487 588 478 580 q 508 601 496 596 q 530 606 519 606 l 808 606 q 837 595 825 606 q 850 568 848 584 l 885 524 q 892 506 889 516 q 892 486 895 496 l 775 -61 q 767 -82 773 -72 q 752 -99 761 -92 q 733 -111 744 -106 q 713 -115 723 -115 l 378 -115 q 196 -28 260 -115 l 176 -1 m 500 729 q 453 720 476 729 q 410 693 429 710 q 377 654 391 677 q 357 607 363 632 l 306 364 q 305 317 300 339 q 322 278 310 295 q 353 252 334 262 q 396 243 372 243 l 616 243 l 654 425 l 492 425 l 519 547 l 796 547 l 679 0 l 345 0 q 259 18 296 0 q 197 72 222 35 q 165 243 142 144 l 268 729 q 374 900 289 829 q 550 972 456 972 l 897 972 l 846 729 l 500 729 m 839 700 q 860 709 849 700 q 873 729 870 718 l 925 972 q 921 993 927 984 q 903 1002 914 1002 l 557 1002 q 357 921 450 1002 q 240 729 265 842 l 138 243 q 172 52 112 131 q 338 -29 232 -29 l 673 -29 q 694 -20 684 -29 q 705 0 703 -12 l 822 547 q 819 568 825 559 q 802 576 813 576 l 525 576 q 503 568 513 576 q 490 547 492 559 l 464 425 q 468 405 462 414 q 486 396 475 396 l 619 396 l 595 272 l 403 272 q 370 279 385 272 q 346 299 355 287 q 334 329 337 312 q 335 364 331 345 l 385 607 q 399 643 389 626 q 424 673 410 660 q 456 693 439 686 q 492 700 473 700 l 839 700 z "},"H":{"ha":861,"x_min":54,"x_max":997,"o":"m 685 386 l 728 329 l 664 29 l 668 29 l 850 886 l 846 886 l 768 521 l 374 521 l 330 578 l 323 578 l 389 886 l 383 886 l 201 29 l 207 29 l 285 393 l 686 393 l 685 386 m 479 665 l 661 665 l 726 972 q 751 1014 732 996 q 793 1031 770 1031 l 908 1031 q 937 1020 926 1031 q 953 993 949 1010 l 986 949 q 993 911 997 933 l 786 -61 q 778 -82 784 -72 q 763 -99 772 -92 q 744 -111 755 -106 q 724 -115 734 -115 l 608 -115 q 589 -111 598 -115 q 575 -100 581 -107 l 539 -53 q 522 -31 528 -45 q 519 0 516 -17 l 574 249 l 392 249 l 325 -61 q 316 -82 322 -72 q 301 -99 310 -92 q 282 -111 292 -106 q 262 -115 273 -115 l 147 -115 q 113 -100 125 -115 l 78 -53 q 60 -31 66 -45 q 57 0 54 -17 l 264 972 q 289 1014 269 996 q 332 1031 309 1031 l 447 1031 q 476 1020 465 1031 q 490 993 487 1010 l 524 949 q 531 932 529 941 q 530 911 534 922 l 479 665 m 575 0 l 653 364 l 306 364 l 228 0 l 113 0 l 319 972 l 435 972 l 357 607 l 704 607 l 782 972 l 897 972 l 690 0 l 575 0 m 685 -29 q 705 -20 695 -29 q 718 0 715 -12 l 925 972 q 921 993 927 984 q 903 1002 914 1002 l 787 1002 q 766 993 776 1002 q 753 972 756 984 l 682 636 l 392 636 l 463 972 q 459 993 466 984 q 441 1002 452 1002 l 325 1002 q 305 993 315 1002 q 292 972 295 984 l 85 0 q 89 -20 83 -12 q 107 -29 96 -29 l 222 -29 q 244 -20 234 -29 q 257 0 254 -12 l 328 335 l 618 335 l 547 0 q 551 -20 544 -12 q 568 -29 557 -29 l 685 -29 z "},"I":{"ha":515,"x_min":54,"x_max":649,"o":"m 201 29 l 322 29 l 350 160 l 311 214 l 304 214 l 421 758 l 478 758 l 504 886 l 383 886 l 357 758 l 359 758 l 357 751 l 400 694 l 286 157 l 228 157 l 201 29 m 78 -53 q 60 -31 66 -45 q 57 0 54 -17 l 110 243 q 118 266 112 255 q 134 284 125 276 q 155 297 144 292 q 178 301 166 301 l 179 301 l 254 648 l 232 676 q 214 697 220 684 q 212 729 208 711 l 264 972 q 289 1014 269 996 q 332 1031 309 1031 l 562 1031 q 591 1020 580 1031 q 607 993 603 1010 l 639 949 q 647 932 644 941 q 646 911 649 922 l 596 668 q 587 647 593 657 q 571 630 580 637 q 552 618 562 623 q 532 614 542 614 l 526 614 l 452 264 l 484 220 q 492 182 496 205 l 440 -61 q 431 -82 437 -72 q 416 -99 425 -92 q 398 -111 408 -106 q 378 -115 388 -115 l 147 -115 q 113 -100 125 -115 l 78 -53 m 113 0 l 165 243 l 224 243 l 326 729 l 268 729 l 319 972 l 550 972 l 500 729 l 441 729 l 339 243 l 396 243 l 345 0 l 113 0 m 338 -29 q 359 -20 349 -29 q 372 0 369 -12 l 424 243 q 419 263 426 254 q 403 272 413 272 l 372 272 l 461 700 l 492 700 q 514 709 503 700 q 528 729 524 718 l 578 972 q 574 993 581 984 q 557 1002 568 1002 l 325 1002 q 305 993 315 1002 q 292 972 295 984 l 240 729 q 244 709 238 718 q 261 700 251 700 l 292 700 l 201 272 l 171 272 q 150 263 160 272 q 138 243 140 254 l 85 0 q 89 -20 83 -12 q 107 -29 96 -29 l 338 -29 z "},"J":{"ha":631,"x_min":54,"x_max":766,"o":"m 619 886 l 383 886 l 357 758 l 533 758 l 530 751 l 574 694 l 490 304 q 467 245 484 273 q 428 199 450 218 q 377 168 405 179 q 319 157 349 157 l 228 157 l 201 29 l 235 29 q 393 92 319 29 q 484 243 464 153 l 619 886 m 232 676 q 214 697 220 684 q 212 729 208 711 l 264 972 q 289 1014 269 996 q 332 1031 309 1031 l 677 1031 q 707 1020 695 1031 q 722 993 718 1010 l 754 949 q 762 911 766 934 l 607 182 q 563 67 593 119 q 481 -29 532 15 q 376 -94 429 -73 q 262 -115 322 -115 l 147 -115 q 113 -100 125 -115 l 78 -53 q 60 -31 66 -45 q 57 0 54 -17 l 110 243 q 118 266 112 255 q 134 284 125 276 q 155 297 144 292 q 178 301 166 301 l 293 301 q 317 306 305 301 q 340 319 330 311 q 357 339 350 328 q 367 364 364 351 l 419 614 l 301 614 q 267 629 280 614 l 232 676 m 511 243 q 407 71 490 142 q 228 0 325 0 l 113 0 l 165 243 l 281 243 q 328 252 305 243 q 370 278 351 262 q 403 316 389 294 q 422 364 416 338 l 500 729 l 268 729 l 319 972 l 665 972 l 511 243 m 539 243 l 694 972 q 690 993 696 984 q 672 1002 683 1002 l 325 1002 q 305 993 315 1002 q 292 972 295 984 l 240 729 q 244 709 238 718 q 261 700 251 700 l 464 700 l 393 364 q 379 328 389 345 q 355 299 369 311 q 323 279 340 286 q 286 272 305 272 l 171 272 q 150 263 160 272 q 138 243 140 254 l 85 0 q 89 -20 83 -12 q 107 -29 96 -29 l 222 -29 q 326 -10 277 -29 q 422 50 375 9 q 498 138 469 90 q 539 243 526 185 z "},"K":{"ha":861,"x_min":54,"x_max":997,"o":"m 799 661 q 806 683 802 671 q 811 704 810 694 l 850 886 l 846 886 l 800 668 l 799 661 m 201 29 l 207 29 l 285 393 l 543 393 q 612 374 584 393 q 652 322 640 355 l 676 286 q 696 240 691 267 q 696 182 702 214 l 664 29 l 668 29 l 720 267 q 699 392 732 333 q 677 408 689 400 q 654 425 666 416 l 616 478 q 608 481 611 480 q 600 486 604 483 q 679 529 643 505 q 628 521 654 521 l 374 521 l 330 578 l 323 578 l 389 886 l 383 886 l 201 29 m 479 665 l 600 665 q 625 670 613 665 q 647 684 637 675 q 664 705 657 693 q 675 729 671 716 l 726 972 q 751 1014 732 996 q 793 1031 770 1031 l 908 1031 q 937 1020 926 1031 q 953 993 949 1010 l 986 949 q 993 911 997 933 l 937 644 q 888 524 923 581 q 802 425 852 467 l 806 421 q 846 323 837 378 q 843 207 856 268 l 786 -61 q 778 -82 784 -72 q 763 -99 772 -92 q 744 -111 755 -106 q 724 -115 734 -115 l 608 -115 q 589 -111 598 -115 q 575 -100 581 -107 l 539 -53 q 522 -31 528 -45 q 519 0 516 -17 l 572 243 l 574 249 l 392 249 l 325 -61 q 316 -82 322 -72 q 301 -99 310 -92 q 282 -111 292 -106 q 262 -115 273 -115 l 147 -115 q 113 -100 125 -115 l 78 -53 q 60 -31 66 -45 q 57 0 54 -17 l 264 972 q 289 1014 269 996 q 332 1031 309 1031 l 447 1031 q 476 1020 465 1031 q 490 993 487 1010 l 524 949 q 531 932 529 941 q 530 911 534 922 l 479 665 m 575 0 l 627 243 q 628 291 632 269 q 612 330 624 313 q 581 355 600 346 q 538 364 562 364 l 306 364 l 228 0 l 113 0 l 319 972 l 435 972 l 357 607 l 587 607 q 636 616 612 607 q 678 642 659 626 q 711 681 697 659 q 730 729 724 703 l 782 972 l 897 972 l 840 704 q 817 636 833 669 q 778 575 801 604 q 727 524 755 547 q 665 486 698 501 q 710 448 692 471 q 740 397 729 425 q 752 335 751 368 q 747 267 754 302 l 690 0 l 575 0 m 685 -29 q 705 -20 695 -29 q 718 0 715 -12 l 775 267 q 774 390 789 332 q 718 486 759 448 q 771 529 747 505 q 815 581 795 553 q 848 640 834 609 q 868 704 861 671 l 925 972 q 921 993 927 984 q 903 1002 914 1002 l 787 1002 q 766 993 776 1002 q 753 972 756 984 l 703 729 q 687 692 698 709 q 663 663 677 675 q 631 643 648 650 q 595 636 613 636 l 392 636 l 463 972 q 459 993 466 984 q 441 1002 452 1002 l 325 1002 q 305 993 315 1002 q 292 972 295 984 l 85 0 q 89 -20 83 -12 q 107 -29 96 -29 l 222 -29 q 244 -20 234 -29 q 257 0 254 -12 l 328 335 l 530 335 q 588 309 568 335 q 599 243 607 283 l 547 0 q 551 -20 544 -12 q 568 -29 557 -29 l 685 -29 z "},"L":{"ha":746,"x_min":96,"x_max":725,"o":"m 553 29 l 579 157 l 435 157 q 381 168 404 157 q 345 199 359 179 l 318 235 q 280 288 291 254 q 278 364 269 321 l 389 886 l 383 886 l 235 182 q 228 122 227 151 q 237 69 228 94 q 350 29 281 29 l 553 29 m 403 301 l 408 301 l 639 301 q 668 291 656 301 q 682 264 679 281 l 714 220 q 723 203 722 212 q 724 182 725 193 l 671 -61 q 663 -82 669 -72 q 648 -99 656 -92 q 629 -111 640 -106 q 608 -115 618 -115 l 378 -115 q 195 -29 258 -115 l 175 -3 q 147 29 159 10 q 105 126 114 74 q 110 243 96 179 l 264 972 q 289 1014 269 996 q 332 1031 309 1031 l 447 1031 q 476 1020 465 1031 q 490 993 487 1010 l 524 949 q 531 932 529 941 q 530 911 534 922 l 403 301 m 345 0 q 195 71 247 0 q 165 243 142 142 l 319 972 l 435 972 l 306 364 q 304 316 300 338 q 321 278 309 294 q 352 252 333 262 q 396 243 372 243 l 627 243 l 575 0 l 345 0 m 568 -29 q 590 -20 580 -29 q 603 0 600 -12 l 656 243 q 650 263 657 254 q 633 272 644 272 l 403 272 q 369 279 384 272 q 346 299 355 286 q 334 328 336 311 q 335 364 331 345 l 463 972 q 459 993 466 984 q 441 1002 452 1002 l 325 1002 q 305 993 315 1002 q 292 972 295 984 l 138 243 q 171 50 112 128 q 241 -10 200 9 q 338 -29 283 -29 l 568 -29 z "},"M":{"ha":1324,"x_min":54,"x_max":1417,"o":"m 1099 886 q 1040 875 1070 886 q 979 842 1009 863 q 921 791 949 821 q 868 725 893 762 q 915 749 890 741 q 966 758 941 758 l 1083 758 q 1148 740 1121 758 q 1189 690 1175 722 l 1217 652 q 1237 605 1232 632 q 1236 547 1242 578 l 1125 29 l 1131 29 l 1279 729 q 1267 856 1294 800 q 1222 878 1246 870 q 1168 886 1198 886 l 1099 886 m 664 29 l 668 29 l 791 607 q 804 644 796 627 q 821 676 811 661 l 787 722 q 785 714 787 717 q 770 792 781 756 q 743 856 759 827 q 704 878 724 870 q 660 886 683 886 l 590 886 q 432 821 506 886 q 338 668 356 758 l 201 29 l 207 29 l 329 607 q 353 666 336 639 q 394 714 370 694 q 447 746 418 734 q 505 758 475 758 l 621 758 q 689 739 661 758 q 729 686 718 720 l 754 652 q 774 605 769 632 q 774 547 780 578 l 664 29 m 78 -53 q 60 -31 66 -45 q 57 0 54 -17 l 212 729 q 343 942 237 852 q 562 1031 444 1031 l 632 1031 q 747 1002 695 1031 q 831 924 798 974 q 943 1002 881 974 q 1071 1031 1006 1031 l 1140 1031 q 1324 942 1257 1031 q 1335 924 1331 932 q 1346 904 1339 915 l 1365 879 q 1407 783 1398 835 q 1404 668 1417 731 l 1249 -61 q 1240 -82 1246 -72 q 1225 -99 1234 -92 q 1206 -111 1216 -106 q 1186 -115 1196 -115 l 1071 -115 q 1036 -100 1048 -115 l 1002 -53 q 984 -31 990 -45 q 981 0 977 -17 l 1109 607 l 1111 614 l 994 614 q 944 595 966 614 q 917 547 922 576 l 786 -61 q 778 -82 784 -72 q 763 -99 772 -92 q 744 -111 755 -106 q 724 -115 734 -115 l 608 -115 q 589 -111 598 -115 q 575 -100 581 -107 l 539 -53 q 522 -31 528 -45 q 519 0 516 -17 l 648 607 l 650 614 l 532 614 q 506 608 519 614 q 483 594 493 603 q 465 573 472 585 q 454 547 457 561 l 325 -61 q 316 -82 322 -72 q 301 -99 310 -92 q 282 -111 292 -106 q 262 -115 273 -115 l 147 -115 q 113 -100 125 -115 l 78 -53 m 1036 0 l 1165 607 q 1167 654 1171 632 q 1150 693 1162 677 q 1119 720 1138 710 q 1076 729 1100 729 l 961 729 q 913 720 937 729 q 871 694 890 710 q 838 655 852 677 q 819 607 825 633 l 690 0 l 575 0 l 704 607 q 705 655 709 633 q 689 694 701 677 q 659 720 677 710 q 615 729 640 729 l 500 729 q 453 720 476 729 q 410 693 429 710 q 377 654 391 677 q 357 607 363 632 l 228 0 l 113 0 l 268 729 q 374 900 289 829 q 550 972 456 972 l 619 972 q 689 961 657 972 q 746 928 722 949 q 785 876 770 906 q 804 807 800 845 q 852 876 824 845 q 913 928 880 906 q 983 961 946 949 q 1059 972 1021 972 l 1128 972 q 1276 900 1221 972 q 1310 822 1301 864 q 1307 729 1318 780 l 1152 0 l 1036 0 m 1146 -29 q 1167 -20 1158 -29 q 1181 0 1177 -12 l 1336 729 q 1299 921 1359 841 q 1228 982 1268 962 q 1133 1002 1188 1002 l 1064 1002 q 997 993 1030 1002 q 931 967 963 984 q 871 927 900 951 q 819 875 842 904 q 745 968 796 934 q 627 1002 694 1002 l 557 1002 q 357 921 450 1002 q 240 729 265 842 l 85 0 q 89 -20 83 -12 q 107 -29 96 -29 l 222 -29 q 244 -20 234 -29 q 257 0 254 -12 l 385 607 q 399 643 389 626 q 424 673 410 660 q 456 693 439 686 q 492 700 473 700 l 607 700 q 641 693 626 700 q 664 673 655 686 q 676 644 673 661 q 675 607 679 627 l 547 0 q 551 -20 544 -12 q 568 -29 557 -29 l 685 -29 q 705 -20 695 -29 q 718 0 715 -12 l 847 607 q 862 644 851 627 q 886 673 872 661 q 918 693 901 686 q 954 700 935 700 l 1069 700 q 1102 693 1088 700 q 1126 673 1117 686 q 1138 643 1135 660 q 1137 607 1141 626 l 1008 0 q 1013 -20 1006 -12 q 1031 -29 1019 -29 l 1146 -29 z "},"N":{"ha":861,"x_min":54,"x_max":956,"o":"m 201 29 l 207 29 l 329 607 q 353 666 336 639 q 394 714 370 694 q 447 746 418 734 q 505 758 475 758 l 621 758 q 689 739 661 758 q 729 686 718 720 l 754 652 q 774 605 769 632 q 774 547 780 578 l 664 29 l 668 29 l 818 729 q 822 797 825 765 q 807 856 819 828 q 760 878 785 870 q 705 886 735 886 l 590 886 q 431 821 505 886 q 370 751 393 789 q 338 668 347 713 l 201 29 m 78 -53 q 60 -31 66 -45 q 57 0 54 -17 l 212 729 q 257 844 225 792 q 342 942 288 897 q 562 1031 443 1031 l 677 1031 q 785 1009 739 1031 q 863 943 830 988 q 875 924 870 934 q 885 905 880 915 l 905 879 q 946 783 937 835 q 942 668 956 732 l 786 -61 q 778 -82 784 -72 q 763 -99 772 -92 q 744 -111 755 -106 q 724 -115 734 -115 l 608 -115 q 589 -111 598 -115 q 575 -100 581 -107 l 539 -53 q 522 -31 528 -45 q 519 0 516 -17 l 648 607 l 650 614 l 532 614 q 506 608 519 614 q 483 594 493 603 q 465 573 472 585 q 454 547 457 561 l 325 -61 q 316 -82 322 -72 q 301 -99 310 -92 q 282 -111 292 -106 q 262 -115 273 -115 l 147 -115 q 113 -100 125 -115 l 78 -53 m 575 0 l 704 607 q 705 655 709 633 q 689 694 701 677 q 659 720 677 710 q 615 729 640 729 l 500 729 q 453 720 476 729 q 410 693 429 710 q 377 654 391 677 q 357 607 363 632 l 228 0 l 113 0 l 268 729 q 304 822 279 780 q 372 900 330 864 q 550 972 455 972 l 665 972 q 815 901 763 972 q 846 729 867 831 l 690 0 l 575 0 m 685 -29 q 705 -20 695 -29 q 718 0 715 -12 l 873 729 q 877 834 885 787 q 839 922 869 882 q 768 982 810 963 q 672 1002 727 1002 l 557 1002 q 355 921 448 1002 q 281 833 309 881 q 240 729 253 786 l 85 0 q 89 -20 83 -12 q 107 -29 96 -29 l 222 -29 q 244 -20 234 -29 q 257 0 254 -12 l 385 607 q 399 643 389 626 q 424 673 410 660 q 456 693 439 686 q 492 700 473 700 l 607 700 q 641 693 626 700 q 664 673 655 686 q 676 644 673 661 q 675 607 679 627 l 547 0 q 551 -20 544 -12 q 568 -29 557 -29 l 685 -29 z "},"O":{"ha":861,"x_min":82,"x_max":954,"o":"m 648 607 l 650 614 l 532 614 q 506 608 519 614 q 483 594 493 603 q 465 573 472 585 q 454 547 457 561 l 403 301 l 408 301 l 524 301 q 549 306 536 301 q 571 319 561 311 q 588 339 581 328 q 597 364 595 351 l 648 607 m 317 237 q 280 291 291 258 q 278 364 269 324 l 329 607 q 353 666 336 639 q 394 714 370 694 q 447 746 418 734 q 505 758 475 758 l 621 758 q 687 740 659 758 q 726 690 714 722 l 754 652 q 774 605 769 632 q 774 547 780 578 l 722 304 q 699 245 715 273 q 659 199 682 218 q 608 168 636 179 q 550 157 580 157 l 435 157 q 382 168 404 157 q 345 199 359 179 l 317 237 m 818 729 q 822 797 825 765 q 804 856 818 828 q 759 878 783 870 q 705 886 735 886 l 590 886 q 431 821 505 886 q 370 751 393 789 q 338 668 347 713 l 235 182 q 228 123 229 151 q 237 69 228 95 q 288 39 259 50 q 350 29 317 29 l 465 29 q 624 92 552 29 q 714 243 694 153 l 818 729 m 175 -3 q 147 29 159 10 q 110 243 82 117 l 212 729 q 257 844 225 792 q 342 942 288 897 q 562 1031 443 1031 l 677 1031 q 861 942 797 1031 q 873 924 869 932 q 884 904 878 915 l 904 879 q 945 783 937 835 q 942 668 954 731 l 839 182 q 713 -29 812 58 q 607 -94 661 -73 q 493 -115 553 -115 l 378 -115 q 195 -29 258 -115 l 175 -3 m 704 607 q 705 654 709 632 q 688 693 701 677 q 657 720 676 710 q 615 729 638 729 l 500 729 q 453 720 476 729 q 410 693 429 710 q 377 654 391 677 q 357 607 363 632 l 306 364 q 305 317 300 339 q 322 278 310 295 q 353 252 334 262 q 396 243 372 243 l 511 243 q 559 252 536 243 q 601 278 583 262 q 633 316 620 294 q 653 364 647 338 l 704 607 m 743 243 q 706 149 732 192 q 637 71 680 106 q 460 0 555 0 l 345 0 q 258 18 296 0 q 195 71 220 35 q 165 243 142 143 l 268 729 q 304 822 279 780 q 372 900 330 864 q 550 972 455 972 l 665 972 q 814 900 761 972 q 848 822 840 864 q 846 729 857 780 l 743 243 m 771 243 l 873 729 q 838 921 897 842 q 672 1002 778 1002 l 557 1002 q 355 921 448 1002 q 281 833 309 881 q 240 729 253 786 l 138 243 q 133 138 125 186 q 171 50 140 90 q 242 -10 200 9 q 338 -29 284 -29 l 453 -29 q 557 -10 508 -29 q 654 50 606 9 q 729 138 701 90 q 771 243 758 185 m 625 364 q 611 328 621 345 q 586 299 600 311 q 554 279 572 286 q 518 272 537 272 l 403 272 q 370 279 385 272 q 346 299 355 287 q 334 329 337 312 q 335 364 331 345 l 385 607 q 399 643 389 626 q 424 673 410 660 q 456 693 439 686 q 492 700 473 700 l 607 700 q 640 693 625 700 q 664 673 654 686 q 676 643 673 660 q 675 607 679 626 l 625 364 z "},"P":{"ha":861,"x_min":54,"x_max":954,"o":"m 467 606 l 558 606 q 570 607 565 606 q 579 614 575 608 l 468 614 l 467 606 m 318 518 l 311 518 l 363 758 l 591 758 q 646 741 624 758 q 677 694 668 724 l 705 659 q 722 621 717 642 q 722 578 726 601 q 703 533 717 554 q 671 495 690 511 q 631 470 653 479 q 587 461 609 461 l 361 461 l 318 518 m 818 729 q 822 797 825 765 q 804 856 818 828 q 759 878 783 870 q 705 886 735 886 l 383 886 l 201 29 l 207 29 l 296 454 l 555 454 q 714 518 640 454 q 772 586 749 549 q 804 668 795 624 l 818 729 m 78 -53 q 60 -31 66 -45 q 57 0 54 -17 l 264 972 q 289 1014 269 996 q 332 1031 309 1031 l 677 1031 q 861 942 797 1031 q 873 924 869 932 q 884 904 878 915 l 903 879 l 901 879 l 904 879 q 945 783 937 835 q 942 668 954 731 l 928 607 q 802 397 903 484 q 583 310 699 310 l 403 310 l 325 -61 q 316 -82 322 -72 q 301 -99 310 -92 q 282 -111 292 -106 q 262 -115 273 -115 l 147 -115 q 113 -100 125 -115 l 78 -53 m 654 637 q 654 673 658 656 q 642 702 651 690 q 618 722 632 715 q 586 729 604 729 l 383 729 l 345 547 l 547 547 q 582 554 565 547 q 614 574 600 562 q 640 602 629 586 q 654 637 650 618 m 832 668 q 795 575 821 618 q 728 497 768 533 q 642 444 687 462 q 549 425 597 425 l 318 425 l 228 0 l 113 0 l 319 972 l 665 972 q 814 900 761 972 q 848 822 840 864 q 846 729 857 780 l 832 668 m 860 668 l 873 729 q 838 921 897 842 q 672 1002 778 1002 l 325 1002 q 305 993 315 1002 q 292 972 295 984 l 85 0 q 89 -20 83 -12 q 107 -29 96 -29 l 222 -29 q 244 -20 234 -29 q 257 0 254 -12 l 340 396 l 543 396 q 743 476 650 396 q 860 668 837 555 m 627 637 q 599 594 620 612 q 553 576 578 576 l 379 576 l 404 700 l 578 700 q 617 682 603 700 q 627 637 631 663 z "},"Q":{"ha":861,"x_min":82,"x_max":954,"o":"m 648 607 l 650 614 l 532 614 q 506 608 519 614 q 483 594 493 603 q 465 573 472 585 q 454 547 457 561 l 403 301 l 408 301 l 524 301 q 549 306 536 301 q 571 319 561 311 q 588 339 581 328 q 597 364 595 351 l 648 607 m 317 237 q 280 291 291 258 q 278 364 269 324 l 329 607 q 353 666 336 639 q 394 714 370 694 q 447 746 418 734 q 505 758 475 758 l 621 758 q 687 740 659 758 q 726 690 714 722 l 754 652 q 774 605 769 632 q 774 547 780 578 l 722 304 q 699 245 715 273 q 659 199 682 218 q 608 168 636 179 q 550 157 580 157 l 435 157 q 382 168 404 157 q 345 199 359 179 l 317 237 m 590 -336 l 618 -208 l 589 -208 q 541 -198 562 -208 q 507 -168 521 -187 l 476 -129 q 437 -64 449 -106 q 437 29 426 -23 q 624 92 552 29 q 714 243 694 153 l 818 729 q 822 797 825 765 q 804 856 818 828 q 759 878 783 870 q 705 886 735 886 l 590 886 q 432 821 506 886 q 338 668 356 758 l 235 182 q 228 123 229 151 q 237 72 228 96 q 296 40 260 50 q 378 29 331 29 l 376 22 l 419 -35 l 387 -182 q 381 -241 381 -214 q 392 -294 381 -269 q 503 -336 436 -336 l 590 -336 m 713 -29 q 690 -47 700 -39 q 667 -64 680 -56 l 676 -64 q 705 -74 694 -64 q 721 -100 717 -84 l 753 -144 q 761 -162 759 -152 q 761 -182 763 -172 l 710 -425 q 702 -446 708 -436 q 686 -464 695 -456 q 666 -476 677 -471 q 646 -481 656 -481 l 530 -481 q 426 -460 471 -481 q 347 -395 381 -439 l 328 -367 q 313 -352 320 -360 q 300 -336 307 -345 q 264 -122 237 -248 l 269 -93 q 231 -68 248 -83 q 199 -33 214 -53 l 178 -5 q 162 11 170 2 q 149 29 155 19 q 110 243 82 119 l 212 729 q 343 942 237 852 q 562 1031 444 1031 l 677 1031 q 861 942 797 1031 q 873 924 869 932 q 884 904 878 915 l 904 879 q 945 783 937 835 q 942 668 954 731 l 839 182 q 713 -29 812 58 m 704 607 q 705 654 709 632 q 688 693 701 677 q 657 720 676 710 q 615 729 638 729 l 500 729 q 453 720 476 729 q 410 693 429 710 q 377 654 391 677 q 357 607 363 632 l 306 364 q 305 317 300 339 q 322 278 310 295 q 353 252 334 262 q 396 243 372 243 l 511 243 q 559 252 536 243 q 601 278 583 262 q 633 316 620 294 q 653 364 647 338 l 704 607 m 497 -366 q 349 -294 400 -366 q 318 -122 298 -225 l 345 0 q 196 71 248 0 q 162 150 170 106 q 165 243 154 193 l 268 729 q 374 900 289 829 q 550 972 456 972 l 665 972 q 814 900 761 972 q 848 822 840 864 q 846 729 857 780 l 743 243 q 706 149 732 192 q 637 71 680 106 q 460 0 555 0 q 458 -48 454 -26 q 474 -87 462 -71 q 505 -113 486 -103 q 549 -122 524 -122 l 665 -122 l 612 -366 l 497 -366 m 607 -395 q 627 -386 617 -395 q 640 -366 637 -377 l 693 -122 q 688 -101 695 -110 q 671 -93 682 -93 l 555 -93 q 506 -74 525 -93 q 485 -26 487 -56 q 654 50 574 -18 q 729 138 701 90 q 771 243 758 185 l 873 729 q 838 921 897 842 q 672 1002 778 1002 l 557 1002 q 357 921 450 1002 q 240 729 265 842 l 138 243 q 172 50 112 130 q 310 -28 221 -20 l 290 -122 q 286 -227 277 -180 q 325 -315 294 -275 q 395 -375 355 -355 q 490 -395 435 -395 l 607 -395 m 625 364 q 611 328 621 345 q 586 299 600 311 q 554 279 572 286 q 518 272 537 272 l 403 272 q 370 279 385 272 q 346 299 355 287 q 334 329 337 312 q 335 364 331 345 l 385 607 q 399 643 389 626 q 424 673 410 660 q 456 693 439 686 q 492 700 473 700 l 607 700 q 640 693 625 700 q 664 673 654 686 q 676 643 673 660 q 675 607 679 626 l 625 364 z "},"R":{"ha":861,"x_min":54,"x_max":954,"o":"m 467 606 l 558 606 q 570 607 565 606 q 579 614 575 608 l 468 614 l 467 606 m 699 371 q 664 395 682 383 q 623 416 646 406 q 640 392 631 408 q 645 383 642 387 q 648 375 647 379 l 675 342 q 679 335 677 338 q 682 328 681 332 q 703 267 699 299 q 699 195 707 235 l 664 29 l 668 29 l 717 256 q 719 315 723 286 q 699 371 714 344 m 318 518 l 311 518 l 363 758 l 591 758 q 646 741 624 758 q 677 694 668 724 l 705 659 q 721 623 717 643 q 724 582 726 604 q 784 652 760 616 q 818 729 808 689 q 822 797 825 765 q 804 856 818 828 q 759 878 783 870 q 705 886 735 886 l 383 886 l 201 29 l 207 29 l 296 454 l 526 454 q 559 451 543 454 q 589 441 575 448 l 576 461 l 361 461 l 318 518 m 78 -53 q 60 -31 66 -45 q 57 0 54 -17 l 264 972 q 289 1014 269 996 q 332 1031 309 1031 l 677 1031 q 861 942 797 1031 q 873 924 869 932 q 884 904 878 915 l 904 879 q 945 783 937 835 q 942 668 954 731 q 887 531 926 594 q 790 427 847 469 l 807 403 q 846 311 836 363 q 840 195 855 258 l 786 -61 q 778 -82 784 -72 q 763 -99 772 -92 q 744 -111 755 -106 q 724 -115 734 -115 l 608 -115 q 589 -111 598 -115 q 575 -100 581 -107 l 539 -53 q 522 -31 528 -45 q 519 0 516 -17 l 575 256 q 571 307 579 277 q 563 309 567 309 q 554 310 558 310 l 403 310 l 325 -61 q 316 -82 322 -72 q 301 -99 310 -92 q 282 -111 292 -106 q 262 -115 273 -115 l 147 -115 q 113 -100 125 -115 l 78 -53 m 654 637 q 654 673 658 656 q 642 702 651 690 q 618 722 632 715 q 586 729 604 729 l 383 729 l 345 547 l 547 547 q 582 554 565 547 q 614 574 600 562 q 640 602 629 586 q 654 637 650 618 m 575 0 l 629 256 q 634 319 637 290 q 616 374 631 349 q 576 412 601 399 q 519 425 552 425 l 318 425 l 228 0 l 113 0 l 319 972 l 665 972 q 814 900 761 972 q 848 822 840 864 q 846 729 857 780 q 817 649 836 687 q 771 578 798 610 q 710 523 745 547 q 635 486 675 499 q 695 451 670 473 q 734 400 720 429 q 751 334 748 370 q 745 256 753 297 l 690 0 l 575 0 m 685 -29 q 705 -20 695 -29 q 718 0 715 -12 l 772 256 q 770 391 788 332 q 700 486 751 450 q 811 588 767 524 q 873 729 856 652 q 838 921 897 842 q 672 1002 778 1002 l 325 1002 q 305 993 315 1002 q 292 972 295 984 l 85 0 q 89 -20 83 -12 q 107 -29 96 -29 l 222 -29 q 244 -20 234 -29 q 257 0 254 -12 l 340 396 l 514 396 q 560 386 540 396 q 591 354 580 376 l 590 354 q 605 310 603 334 q 602 256 608 286 l 547 0 q 551 -20 544 -12 q 568 -29 557 -29 l 685 -29 m 627 637 q 599 594 620 612 q 553 576 578 576 l 379 576 l 404 700 l 578 700 q 617 682 603 700 q 627 637 631 663 z "},"S":{"ha":861,"x_min":54,"x_max":997,"o":"m 479 612 q 481 609 481 610 q 482 607 481 608 l 479 612 m 519 557 q 521 554 521 555 q 524 551 522 553 l 519 557 m 726 304 q 731 371 734 340 q 714 431 728 402 q 670 453 693 446 q 616 461 646 461 l 529 461 q 488 469 507 461 q 458 494 469 477 l 427 536 q 396 579 406 552 q 395 637 387 606 q 413 685 399 663 q 446 723 427 707 q 488 749 465 739 q 534 758 511 758 l 823 758 l 850 886 l 590 886 q 432 821 506 886 q 338 668 356 758 l 325 607 q 318 549 317 576 q 329 496 319 521 q 378 465 351 476 q 440 454 406 454 l 526 454 q 581 437 558 454 q 612 392 604 420 l 642 354 q 640 355 640 355 q 637 357 639 355 l 642 354 q 657 318 652 338 q 657 273 663 298 q 639 228 652 250 q 607 191 625 207 q 566 166 588 175 q 521 157 543 157 l 228 157 l 201 29 l 465 29 q 547 45 507 29 q 623 92 587 61 q 681 161 658 123 q 714 243 705 199 l 726 304 m 559 614 q 548 611 553 614 q 536 606 542 609 l 587 606 q 771 517 707 606 q 783 498 779 507 q 793 479 787 489 l 811 454 l 812 453 q 851 243 879 367 l 839 182 q 794 68 825 120 q 711 -28 762 16 q 493 -115 608 -115 l 147 -115 q 113 -100 125 -115 l 78 -53 q 60 -31 66 -45 q 57 0 54 -17 l 110 243 q 118 266 112 255 q 134 284 125 276 q 155 297 144 292 q 178 301 166 301 l 494 301 q 506 303 500 301 q 515 310 511 306 l 468 310 q 286 397 350 310 l 267 422 q 252 438 259 430 q 239 456 245 446 q 195 553 205 500 q 199 668 185 605 l 212 729 q 343 942 237 852 q 562 1031 444 1031 l 908 1031 q 937 1020 926 1031 q 953 993 949 1010 l 986 949 q 993 911 997 933 l 942 668 q 933 647 940 657 q 918 630 927 637 q 899 618 909 623 q 879 614 889 614 l 559 614 m 743 243 q 706 150 732 193 q 637 72 680 108 q 460 0 555 0 l 113 0 l 165 243 l 482 243 q 517 250 500 243 q 549 270 534 258 q 573 299 563 283 q 587 335 584 316 q 588 370 591 353 q 576 398 585 386 q 552 418 567 410 q 519 425 538 425 l 433 425 q 350 444 387 425 q 286 497 313 462 q 252 575 260 533 q 256 668 244 618 l 268 729 q 374 900 289 829 q 550 972 456 972 l 897 972 l 846 729 l 529 729 q 493 722 511 729 q 461 702 476 715 q 436 673 447 690 q 422 637 426 656 q 422 602 418 618 q 434 574 425 586 q 458 554 444 562 q 490 547 472 547 l 576 547 q 724 475 669 547 q 758 397 749 439 q 754 304 766 355 l 743 243 m 771 243 l 782 304 q 786 408 795 361 q 747 496 777 455 q 677 556 717 536 q 582 576 637 576 l 496 576 q 457 594 471 576 q 450 637 444 612 q 460 662 453 650 q 476 682 467 673 q 497 695 486 690 q 521 700 509 700 l 839 700 q 860 709 849 700 q 873 729 870 718 l 925 972 q 921 993 927 984 q 903 1002 914 1002 l 557 1002 q 357 921 450 1002 q 240 729 265 842 l 228 668 q 224 564 215 611 q 262 476 233 516 q 333 416 293 435 q 428 396 373 396 l 514 396 q 553 378 539 396 q 559 335 566 360 q 551 310 557 321 q 534 290 544 299 q 513 277 524 281 q 489 272 501 272 l 171 272 q 150 263 160 272 q 138 243 140 254 l 85 0 q 89 -20 83 -12 q 107 -29 96 -29 l 453 -29 q 653 52 559 -29 q 728 139 699 92 q 771 243 758 186 z "},"T":{"ha":803,"x_min":180,"x_max":967,"o":"m 796 758 l 822 886 l 354 886 l 328 758 l 504 758 l 501 751 l 545 694 l 403 29 l 410 29 l 566 758 l 796 758 m 203 676 q 186 697 191 684 q 184 729 180 711 l 236 972 q 245 995 239 985 q 261 1014 252 1006 q 281 1026 270 1021 q 302 1031 292 1031 l 879 1031 q 908 1020 897 1031 q 924 993 920 1010 l 957 949 q 965 932 962 941 q 965 911 967 922 l 914 668 q 906 647 912 657 q 890 630 899 637 q 870 618 881 623 q 850 614 860 614 l 671 614 l 528 -61 q 504 -99 522 -83 q 464 -115 485 -115 l 349 -115 q 330 -111 338 -115 q 315 -100 321 -107 l 279 -53 q 262 -31 268 -45 q 260 0 256 -17 l 390 614 l 272 614 q 237 629 250 614 l 203 676 m 586 729 l 431 0 l 315 0 l 471 729 l 239 729 l 290 972 l 868 972 l 817 729 l 586 729 m 810 700 q 831 709 821 700 q 844 729 841 718 l 896 972 q 891 993 898 984 q 873 1002 885 1002 l 296 1002 q 276 993 286 1002 q 264 972 266 984 l 212 729 q 215 709 209 718 q 232 700 222 700 l 436 700 l 288 0 q 292 -20 286 -12 q 309 -29 298 -29 l 424 -29 q 446 -20 436 -29 q 458 0 455 -12 l 607 700 l 810 700 z "},"U":{"ha":861,"x_min":82,"x_max":997,"o":"m 850 886 l 846 886 l 722 304 q 699 245 715 273 q 659 199 682 218 q 608 168 636 179 q 550 157 580 157 l 435 157 q 382 168 404 157 q 345 199 359 179 l 317 237 q 280 291 291 258 q 278 364 269 324 l 389 886 l 383 886 l 235 182 q 228 123 229 151 q 237 69 228 95 q 288 39 259 50 q 350 29 317 29 l 465 29 q 624 92 552 29 q 714 243 694 153 l 850 886 m 403 301 l 408 301 l 524 301 q 549 306 536 301 q 571 319 561 311 q 588 339 581 328 q 597 364 595 351 l 726 972 q 751 1014 732 996 q 793 1031 770 1031 l 908 1031 q 937 1020 926 1031 q 953 993 949 1010 l 986 949 q 993 911 997 933 l 839 182 q 713 -29 812 58 q 607 -94 661 -73 q 493 -115 553 -115 l 378 -115 q 195 -29 258 -115 l 175 -3 q 147 29 159 10 q 110 243 82 117 l 264 972 q 289 1014 269 996 q 332 1031 309 1031 l 447 1031 q 476 1020 465 1031 q 490 993 487 1010 l 524 949 q 531 932 529 941 q 530 911 534 922 l 403 301 m 743 243 q 706 149 732 192 q 637 71 680 106 q 460 0 555 0 l 345 0 q 258 18 296 0 q 195 71 220 35 q 165 243 142 143 l 319 972 l 435 972 l 306 364 q 305 317 300 339 q 322 278 310 295 q 353 252 334 262 q 396 243 372 243 l 511 243 q 559 252 536 243 q 601 278 583 262 q 633 316 620 294 q 653 364 647 338 l 782 972 l 897 972 l 743 243 m 771 243 l 925 972 q 921 993 927 984 q 903 1002 914 1002 l 787 1002 q 766 993 776 1002 q 753 972 756 984 l 625 364 q 611 328 621 345 q 586 299 600 311 q 554 279 572 286 q 518 272 537 272 l 403 272 q 370 279 385 272 q 346 299 355 287 q 334 329 337 312 q 335 364 331 345 l 463 972 q 459 993 466 984 q 441 1002 452 1002 l 325 1002 q 305 993 315 1002 q 292 972 295 984 l 138 243 q 133 138 125 186 q 171 50 140 90 q 242 -10 200 9 q 338 -29 284 -29 l 453 -29 q 557 -10 508 -29 q 654 50 606 9 q 729 138 701 90 q 771 243 758 185 z "},"V":{"ha":861,"x_min":54,"x_max":997,"o":"m 850 886 l 846 886 l 722 304 q 699 245 715 273 q 659 199 682 218 q 608 168 636 179 q 550 157 580 157 l 296 157 l 253 214 l 245 214 l 389 886 l 383 886 l 201 29 l 465 29 q 624 92 552 29 q 714 243 694 153 l 850 886 m 403 301 l 524 301 q 549 306 536 301 q 571 319 561 311 q 588 339 581 328 q 597 364 595 351 l 726 972 q 751 1014 732 996 q 793 1031 770 1031 l 908 1031 q 937 1020 926 1031 q 953 993 949 1010 l 986 949 q 993 911 997 933 l 839 182 q 713 -29 812 58 q 607 -94 661 -73 q 493 -115 553 -115 l 147 -115 q 113 -100 125 -115 l 78 -53 q 60 -31 66 -45 q 57 0 54 -17 l 264 972 q 289 1014 269 996 q 332 1031 309 1031 l 447 1031 q 476 1020 465 1031 q 490 993 487 1010 l 524 949 q 531 932 529 941 q 530 911 534 922 l 403 301 m 743 243 q 706 149 732 192 q 637 71 680 106 q 460 0 555 0 l 113 0 l 319 972 l 435 972 l 281 243 l 511 243 q 559 252 536 243 q 601 278 583 262 q 633 316 620 294 q 653 364 647 338 l 782 972 l 897 972 l 743 243 m 771 243 l 925 972 q 921 993 927 984 q 903 1002 914 1002 l 787 1002 q 766 993 776 1002 q 753 972 756 984 l 625 364 q 611 328 621 345 q 586 299 600 311 q 554 279 572 286 q 518 272 537 272 l 315 272 l 463 972 q 459 993 466 984 q 441 1002 452 1002 l 325 1002 q 305 993 315 1002 q 292 972 295 984 l 85 0 q 89 -20 83 -12 q 107 -29 96 -29 l 453 -29 q 557 -10 508 -29 q 654 50 606 9 q 729 138 701 90 q 771 243 758 185 z "},"W":{"ha":1324,"x_min":83,"x_max":1457,"o":"m 235 182 q 229 123 229 151 q 237 71 229 95 q 350 29 283 29 l 419 29 q 475 40 446 29 q 534 71 505 51 q 592 121 564 92 q 646 187 620 151 q 600 165 624 173 q 550 157 575 157 l 435 157 q 382 168 404 157 q 345 199 359 179 l 317 237 q 280 291 291 258 q 278 364 269 324 l 389 886 l 383 886 l 235 182 m 1312 886 l 1307 886 l 1183 304 q 1160 247 1177 274 q 1120 200 1143 220 q 1069 168 1097 180 q 1013 157 1041 157 l 897 157 q 844 168 866 157 q 807 199 822 179 l 781 235 q 742 288 752 254 q 741 364 731 321 l 850 886 l 846 886 l 722 304 q 710 268 718 285 q 692 236 702 252 l 730 186 q 739 128 732 155 q 755 78 746 101 q 802 42 775 54 q 859 29 829 29 l 928 29 q 1009 45 970 29 q 1083 92 1048 61 q 1143 161 1120 123 q 1177 243 1166 199 l 1312 886 m 864 301 l 869 301 l 986 301 q 1010 306 998 301 q 1031 320 1021 311 q 1049 340 1042 328 q 1059 364 1056 351 l 1187 972 q 1213 1014 1193 996 q 1255 1031 1232 1031 l 1371 1031 q 1399 1020 1388 1031 q 1414 993 1411 1010 l 1447 949 q 1455 932 1453 941 q 1454 911 1457 922 l 1300 182 q 1255 68 1286 120 q 1173 -28 1223 16 q 1068 -94 1121 -72 q 956 -115 1015 -115 l 886 -115 q 780 -93 827 -115 q 703 -29 733 -70 l 688 -8 q 574 -87 636 -59 q 447 -115 512 -115 l 378 -115 q 196 -28 260 -115 l 176 -1 q 149 31 161 12 q 110 243 83 120 l 264 972 q 289 1014 269 996 q 332 1031 309 1031 l 447 1031 q 476 1020 465 1031 q 490 993 487 1010 l 524 949 q 531 932 529 941 q 530 911 534 922 l 403 301 l 408 301 l 524 301 q 549 306 536 301 q 571 319 561 311 q 588 339 581 328 q 597 364 595 351 l 726 972 q 751 1014 732 996 q 793 1031 770 1031 l 908 1031 q 937 1020 926 1031 q 953 993 949 1010 l 986 949 q 993 911 997 933 l 864 301 m 1204 243 q 1167 150 1194 193 q 1100 72 1141 108 q 921 0 1017 0 l 851 0 q 782 12 814 0 q 725 44 749 23 q 686 97 701 66 q 668 165 671 127 q 620 97 648 127 q 558 44 592 66 q 488 12 525 23 q 412 0 450 0 l 345 0 q 259 18 296 0 q 197 72 222 35 q 165 243 142 144 l 319 972 l 435 972 l 306 364 q 305 317 300 339 q 322 278 310 295 q 353 252 334 262 q 396 243 372 243 l 511 243 q 559 252 536 243 q 601 278 583 262 q 633 316 620 294 q 653 364 647 338 l 782 972 l 897 972 l 768 364 q 766 316 762 338 q 783 278 770 294 q 814 252 795 262 q 859 243 833 243 l 974 243 q 1020 252 997 243 q 1062 278 1043 262 q 1095 317 1081 295 q 1114 364 1108 339 l 1243 972 l 1358 972 l 1204 243 m 1232 243 l 1386 972 q 1383 993 1390 984 q 1365 1002 1376 1002 l 1249 1002 q 1229 993 1238 1002 q 1215 972 1219 984 l 1086 364 q 1072 329 1082 345 q 1047 299 1061 312 q 1015 279 1032 287 q 979 272 998 272 l 864 272 q 830 279 845 272 q 807 299 816 286 q 795 328 798 311 q 796 364 792 345 l 925 972 q 921 993 927 984 q 903 1002 914 1002 l 787 1002 q 766 993 776 1002 q 753 972 756 984 l 625 364 q 611 328 621 345 q 586 299 600 311 q 554 279 572 286 q 518 272 537 272 l 403 272 q 370 279 385 272 q 346 299 355 287 q 334 329 337 312 q 335 364 331 345 l 463 972 q 459 993 466 984 q 441 1002 452 1002 l 325 1002 q 305 993 315 1002 q 292 972 295 984 l 138 243 q 172 52 112 131 q 338 -29 232 -29 l 407 -29 q 540 4 475 -29 q 654 97 605 38 q 726 4 676 37 q 846 -29 777 -29 l 916 -29 q 1114 52 1023 -29 q 1190 139 1161 92 q 1232 243 1219 186 z "},"X":{"ha":861,"x_min":54,"x_max":997,"o":"m 201 29 q 306 62 256 33 q 361 113 333 81 q 418 192 389 144 q 371 166 396 175 q 319 157 345 157 l 228 157 l 201 29 m 737 843 q 686 797 712 826 q 632 721 659 767 q 682 748 655 738 q 736 758 709 758 l 823 758 l 850 886 q 793 872 821 883 q 737 843 765 862 m 668 29 l 694 157 l 665 157 q 614 168 636 157 q 576 199 591 179 l 549 237 q 511 291 522 258 q 510 364 500 324 l 559 607 q 571 642 564 625 q 589 673 578 659 l 555 717 q 555 713 555 715 q 553 708 554 711 q 539 794 547 757 q 519 859 531 831 q 477 879 500 872 q 429 886 454 886 l 383 886 l 357 758 l 390 758 q 456 740 429 758 q 496 690 484 722 l 524 652 q 544 605 538 632 q 543 547 549 578 l 490 304 q 479 271 487 287 q 463 240 472 255 l 500 191 q 510 117 503 149 q 526 61 516 85 q 572 37 546 45 q 627 29 598 29 l 668 29 m 633 301 l 639 301 l 754 301 q 783 291 772 301 q 798 264 794 281 l 831 220 q 839 203 837 212 q 839 182 840 193 l 786 -61 q 778 -82 784 -72 q 763 -99 772 -92 q 744 -111 755 -106 q 724 -115 734 -115 l 656 -115 q 500 -60 562 -115 q 486 -45 492 -52 q 472 -29 479 -37 l 457 -7 q 426 -35 442 -22 q 393 -60 410 -48 q 216 -115 307 -115 l 147 -115 q 113 -100 125 -115 l 78 -53 q 60 -31 66 -45 q 57 0 54 -17 l 110 243 q 118 266 112 255 q 134 284 125 276 q 155 297 144 292 q 178 301 166 301 l 293 301 q 317 306 305 301 q 339 320 329 311 q 357 340 349 328 q 367 364 364 351 l 418 607 l 419 614 l 301 614 q 267 629 280 614 l 232 676 q 214 697 220 684 q 212 729 208 711 l 264 972 q 289 1014 269 996 q 332 1031 309 1031 l 401 1031 q 462 1023 433 1031 q 519 999 491 1015 l 519 1006 q 534 992 527 998 q 546 979 541 985 q 554 974 550 977 q 561 966 557 970 l 558 966 q 579 943 570 954 q 597 920 589 931 q 656 966 619 941 l 654 966 q 663 974 659 970 q 672 979 667 977 q 691 992 682 985 q 711 1006 701 998 l 710 999 q 775 1023 743 1015 q 840 1031 808 1031 l 908 1031 q 937 1020 926 1031 q 953 993 949 1010 l 986 949 q 993 911 997 933 l 942 668 q 933 647 940 657 q 918 630 927 637 q 899 618 909 623 q 879 614 889 614 l 762 614 q 737 608 749 614 q 714 594 724 603 q 695 573 703 585 q 685 547 688 561 l 633 301 m 621 0 q 496 46 546 0 q 456 100 471 70 q 437 168 441 130 q 390 100 418 130 q 326 46 362 70 q 182 0 258 0 l 113 0 l 165 243 l 281 243 q 328 252 304 243 q 370 278 351 262 q 402 317 389 295 q 422 364 416 339 l 472 607 q 474 654 478 632 q 457 693 469 677 q 426 720 445 710 q 383 729 407 729 l 268 729 l 319 972 l 389 972 q 514 925 465 972 q 554 872 539 902 q 574 804 570 842 q 620 872 591 842 q 684 925 648 902 q 828 972 751 972 l 897 972 l 846 729 l 730 729 q 683 720 707 729 q 641 693 660 710 q 607 654 621 677 q 587 607 593 632 l 538 364 q 536 317 532 339 q 553 278 541 295 q 584 252 565 262 q 627 243 603 243 l 743 243 l 690 0 l 621 0 m 685 -29 q 705 -20 695 -29 q 718 0 715 -12 l 771 243 q 766 263 772 254 q 749 272 759 272 l 633 272 q 601 279 615 272 q 577 299 586 287 q 565 329 568 312 q 566 364 562 345 l 616 607 q 631 643 621 626 q 655 673 641 660 q 688 693 670 686 q 724 700 705 700 l 839 700 q 860 709 849 700 q 873 729 870 718 l 925 972 q 921 993 927 984 q 903 1002 914 1002 l 833 1002 q 752 988 793 1002 q 672 947 711 975 l 672 949 q 587 872 623 918 q 566 914 579 895 q 536 949 553 933 l 536 947 q 395 1002 479 1002 l 325 1002 q 305 993 315 1002 q 292 972 295 984 l 240 729 q 244 709 238 718 q 261 700 251 700 l 376 700 q 409 693 395 700 q 433 673 424 686 q 445 643 442 660 q 444 607 448 626 l 393 364 q 379 329 389 345 q 354 299 369 312 q 322 279 340 287 q 286 272 304 272 l 171 272 q 150 263 160 272 q 138 243 140 254 l 85 0 q 89 -20 83 -12 q 107 -29 96 -29 l 176 -29 q 339 22 260 -29 q 422 98 387 53 q 444 57 431 75 q 475 22 457 38 q 615 -29 531 -29 l 685 -29 z "},"Y":{"ha":861,"x_min":157,"x_max":997,"o":"m 850 886 l 846 886 l 783 596 q 760 537 777 564 q 721 491 743 511 q 670 460 698 471 q 612 449 642 449 l 497 449 q 444 460 467 449 q 407 490 422 471 l 379 529 q 342 583 353 550 q 340 656 331 616 l 389 886 l 383 886 l 296 473 q 289 415 290 442 q 298 364 289 388 q 440 321 346 321 l 439 314 l 481 257 l 432 29 l 437 29 l 500 321 q 685 383 613 321 q 744 452 722 414 q 777 534 766 490 l 850 886 m 464 593 l 471 593 l 586 593 q 610 597 598 593 q 633 611 623 602 q 650 631 643 620 q 660 656 657 642 l 726 972 q 751 1014 732 996 q 793 1031 770 1031 l 908 1031 q 937 1020 926 1031 q 953 993 949 1010 l 986 949 q 993 911 997 933 l 900 473 q 774 262 873 349 q 607 179 696 195 l 555 -61 q 547 -82 553 -72 q 532 -99 541 -92 q 513 -111 523 -106 q 493 -115 503 -115 l 378 -115 q 359 -111 368 -115 q 345 -100 350 -107 l 309 -53 q 291 -31 297 -45 q 289 0 286 -17 l 332 199 q 293 223 310 208 q 260 258 275 239 l 254 267 q 254 264 253 265 q 257 264 256 264 l 239 286 q 224 302 231 294 q 210 321 216 311 q 167 419 177 366 q 171 534 157 472 l 264 972 q 289 1014 269 996 q 332 1031 309 1031 l 447 1031 q 476 1020 465 1031 q 490 993 487 1010 l 524 949 q 531 932 529 941 q 530 911 534 922 l 464 593 m 804 534 q 700 363 783 433 q 521 292 618 292 l 460 0 l 345 0 l 406 292 q 257 363 311 292 q 224 441 232 398 q 228 534 216 484 l 319 972 l 435 972 l 368 656 q 367 609 363 631 q 384 570 372 587 q 415 544 396 553 q 458 534 435 534 l 574 534 q 621 544 598 534 q 663 570 644 553 q 695 608 682 586 q 714 656 709 630 l 782 972 l 897 972 l 804 534 m 832 534 l 925 972 q 921 993 927 984 q 903 1002 914 1002 l 787 1002 q 766 993 776 1002 q 753 972 756 984 l 686 656 q 672 620 682 636 q 647 590 661 603 q 615 571 633 578 q 579 564 598 564 l 464 564 q 431 571 446 564 q 407 591 416 578 q 395 620 398 604 q 396 656 392 637 l 463 972 q 459 993 466 984 q 441 1002 452 1002 l 325 1002 q 305 993 315 1002 q 292 972 295 984 l 199 534 q 235 342 174 422 q 293 287 258 306 q 372 264 328 268 l 315 0 q 320 -20 313 -12 q 338 -29 327 -29 l 453 -29 q 474 -20 465 -29 q 488 0 484 -12 l 543 264 q 715 342 633 272 q 791 429 762 382 q 832 534 819 477 z "},"Z":{"ha":861,"x_min":54,"x_max":997,"o":"m 279 214 l 275 214 l 232 171 l 201 29 l 668 29 l 694 157 l 322 157 l 279 214 m 733 753 l 774 696 l 819 741 l 850 886 l 383 886 l 357 758 l 741 758 l 733 753 m 576 301 l 754 301 q 783 291 772 301 q 798 264 794 281 l 831 220 q 839 203 837 212 q 839 182 840 193 l 786 -61 q 778 -82 784 -72 q 763 -99 772 -92 q 744 -111 755 -106 q 724 -115 734 -115 l 147 -115 q 113 -100 125 -115 l 78 -53 q 60 -31 66 -45 q 57 0 54 -17 l 113 265 l 478 614 l 301 614 q 267 629 280 614 l 232 676 q 214 697 220 684 q 212 729 208 711 l 264 972 q 289 1014 269 996 q 332 1031 309 1031 l 908 1031 q 937 1020 926 1031 q 953 993 949 1010 l 986 949 q 993 911 997 933 l 937 647 l 576 301 m 113 0 l 165 243 l 673 729 l 268 729 l 319 972 l 897 972 l 846 729 l 339 243 l 743 243 l 690 0 l 113 0 m 685 -29 q 705 -20 695 -29 q 718 0 715 -12 l 771 243 q 766 263 772 254 q 749 272 759 272 l 406 272 l 871 718 l 925 972 q 921 993 927 984 q 903 1002 914 1002 l 325 1002 q 305 993 315 1002 q 292 972 295 984 l 240 729 q 244 709 238 718 q 261 700 251 700 l 604 700 l 139 254 l 85 0 q 89 -20 83 -12 q 107 -29 96 -29 l 685 -29 z "},"[":{"ha":572,"x_min":28,"x_max":675,"o":"m 387 879 l 503 879 l 529 1007 l 410 1007 l 176 -93 l 296 -93 l 323 35 l 269 35 l 228 92 l 220 92 l 387 879 m 375 179 l 382 179 q 411 169 399 179 q 425 142 423 159 l 458 98 q 467 61 471 84 l 414 -182 q 406 -203 412 -193 q 391 -220 399 -213 q 373 -233 382 -228 q 353 -237 363 -237 l 121 -237 q 101 -233 111 -237 q 86 -221 92 -229 l 53 -174 q 34 -152 39 -166 q 32 -122 28 -138 l 289 1093 q 298 1116 292 1105 q 315 1134 305 1126 q 335 1147 324 1142 q 358 1152 347 1152 l 589 1152 q 617 1141 606 1152 q 632 1114 629 1131 l 665 1071 q 673 1054 671 1063 q 673 1034 675 1044 l 621 790 q 612 769 618 779 q 598 751 606 759 q 579 739 589 744 q 558 734 568 734 l 494 734 l 375 179 m 87 -122 l 345 1093 l 576 1093 l 525 850 l 410 850 l 254 121 l 370 121 l 318 -122 l 87 -122 m 313 -151 q 333 -142 323 -151 q 346 -122 344 -134 l 397 121 q 394 142 401 134 q 375 150 387 150 l 288 150 l 432 821 l 519 821 q 539 829 530 821 q 553 850 549 838 l 604 1093 q 600 1114 606 1105 q 582 1122 593 1122 l 351 1122 q 330 1114 340 1122 q 317 1093 320 1105 l 60 -122 q 63 -142 56 -134 q 82 -151 71 -151 l 313 -151 z "},"\\":{"ha":729,"x_min":248,"x_max":673,"o":"m 406 971 l 376 960 l 513 -56 l 542 -46 l 406 971 m 422 -158 q 408 -145 414 -153 q 400 -126 401 -138 l 248 1015 l 248 1017 l 248 1036 q 266 1070 253 1056 q 296 1092 278 1085 l 412 1132 l 414 1133 q 425 1136 420 1135 q 433 1136 430 1136 q 461 1126 449 1136 q 476 1099 473 1116 l 510 1054 q 515 1046 513 1050 q 519 1035 517 1041 l 672 -107 q 673 -115 672 -111 q 672 -125 673 -119 q 654 -157 668 -142 q 625 -178 641 -172 l 510 -218 l 509 -220 q 498 -221 502 -221 q 490 -221 494 -221 q 471 -216 479 -221 q 456 -203 462 -211 l 422 -158 m 457 -106 l 304 1036 l 422 1078 l 575 -64 l 457 -106 m 578 -93 q 597 -77 589 -87 q 602 -54 605 -66 l 450 1088 q 439 1104 449 1099 q 418 1105 429 1109 l 301 1064 q 282 1049 290 1060 q 277 1026 274 1038 l 428 -115 q 439 -132 430 -127 q 461 -134 448 -138 l 578 -93 z "},"]":{"ha":572,"x_min":86,"x_max":733,"o":"m 440 879 l 500 879 l 500 872 l 542 815 l 375 35 l 260 35 l 233 -93 l 354 -93 l 587 1007 l 467 1007 l 440 879 m 317 799 q 298 820 303 806 q 296 850 292 833 l 347 1093 q 357 1116 350 1105 q 373 1134 363 1126 q 394 1147 382 1142 q 416 1152 405 1152 l 647 1152 q 676 1141 665 1152 q 689 1114 687 1131 l 724 1071 q 731 1054 729 1063 q 732 1034 733 1044 l 472 -182 q 464 -203 470 -193 q 449 -220 458 -213 q 430 -233 441 -228 q 410 -237 420 -237 l 179 -237 q 159 -233 169 -237 q 144 -221 150 -229 l 111 -174 q 91 -152 96 -166 q 90 -122 86 -138 l 140 121 q 150 143 143 133 q 166 162 157 154 q 186 174 176 170 q 208 179 197 179 l 268 179 l 387 734 l 385 734 q 366 739 375 734 q 351 751 357 744 l 317 799 m 146 -122 l 197 121 l 313 121 l 468 850 l 353 850 l 403 1093 l 635 1093 l 376 -122 l 146 -122 m 371 -151 q 391 -142 381 -151 q 403 -122 401 -134 l 661 1093 q 658 1114 665 1105 q 640 1122 652 1122 l 410 1122 q 388 1114 397 1122 q 375 1093 378 1105 l 325 850 q 328 829 321 838 q 346 821 334 821 l 433 821 l 290 150 l 203 150 q 181 142 191 150 q 170 121 172 134 l 118 -122 q 121 -142 115 -134 q 140 -151 127 -151 l 371 -151 z "},"^":{"ha":753,"x_min":166,"x_max":791,"o":"m 585 844 l 647 539 l 660 543 l 587 886 l 564 886 l 558 879 l 585 844 m 191 475 q 172 498 177 484 q 170 529 166 513 q 178 549 172 541 l 463 997 l 464 997 q 475 1009 468 1003 q 489 1020 481 1015 q 505 1028 497 1025 q 519 1031 513 1031 l 612 1031 q 637 1020 624 1031 q 656 997 650 1010 l 657 997 l 659 989 l 690 946 q 688 947 690 947 l 690 946 q 693 941 692 944 q 694 937 694 939 l 696 935 l 791 488 l 791 468 q 777 439 787 454 q 750 418 767 425 l 654 376 q 643 374 648 374 q 635 374 639 374 q 616 377 625 374 q 602 389 607 380 l 566 436 q 546 464 550 444 l 515 604 l 389 404 q 363 381 377 389 q 335 374 349 374 q 325 374 330 374 q 317 376 320 374 l 237 418 q 231 422 234 420 q 227 428 228 425 l 191 475 m 600 489 l 526 842 l 300 489 l 225 529 l 509 972 l 600 972 l 694 529 l 600 489 m 700 501 q 718 518 711 507 q 724 541 724 530 l 628 985 q 621 996 627 991 q 607 1002 614 1002 l 514 1002 q 498 996 507 1002 q 485 985 489 991 l 203 541 q 197 518 195 530 q 208 501 199 507 l 285 461 q 305 461 293 457 q 323 476 317 465 l 511 771 l 574 476 q 586 461 576 465 q 607 461 596 457 l 700 501 z "},"_":{"ha":547,"x_min":0,"x_max":547,"o":"m 0 0 l 0 121 l 547 121 l 547 0 l 0 0 z "},"`":{"ha":446,"x_min":261,"x_max":543,"o":"m 339 751 q 321 774 327 760 l 267 937 q 261 957 261 948 q 264 974 262 965 q 288 1014 269 997 q 332 1031 306 1031 l 424 1031 q 451 1019 437 1031 q 468 994 465 1007 l 468 989 l 500 946 q 506 939 504 941 q 510 932 509 936 l 542 761 q 542 751 542 755 q 541 741 543 747 q 518 702 536 718 q 479 686 501 686 l 410 686 q 391 692 400 686 q 374 705 381 697 l 339 751 m 375 802 l 319 972 l 412 972 l 444 802 l 375 802 m 439 772 q 454 776 447 772 q 466 785 460 779 q 472 797 471 790 q 472 812 474 804 l 440 983 q 432 996 438 989 q 418 1002 425 1002 l 325 1002 q 310 998 317 1002 q 298 987 302 994 q 291 973 293 981 q 292 957 290 965 l 349 787 q 356 777 350 782 q 370 772 363 772 l 439 772 z "},"a":{"ha":861,"x_min":83,"x_max":941,"o":"m 624 486 l 625 492 l 507 492 q 480 486 494 492 q 457 472 467 481 q 438 451 446 463 q 428 425 431 439 l 403 301 l 408 301 l 524 301 q 548 306 536 301 q 570 320 560 311 q 588 340 581 328 q 597 364 595 351 l 624 486 m 317 237 q 280 291 291 258 q 278 364 269 324 l 304 486 q 328 545 311 517 q 369 593 345 572 q 421 625 393 613 q 479 636 450 636 l 595 636 q 664 617 635 636 q 704 566 692 598 l 729 529 q 749 483 744 509 q 747 425 755 456 l 722 304 q 699 247 715 274 q 658 200 682 220 q 607 168 635 180 q 550 157 578 157 l 435 157 q 382 168 404 157 q 345 199 359 179 l 317 237 m 619 79 l 656 29 l 668 29 l 791 607 q 797 675 799 644 q 781 733 794 706 q 735 756 760 748 q 681 764 710 764 l 566 764 q 483 748 523 764 q 404 700 442 732 q 313 547 331 635 l 235 182 q 229 123 229 151 q 237 71 229 95 q 350 29 283 29 l 465 29 q 498 33 482 29 q 529 45 513 36 q 552 63 544 52 q 566 87 561 74 l 621 86 l 619 79 m 176 -1 q 149 31 161 12 q 110 243 83 120 l 186 607 q 232 723 199 671 q 315 821 264 776 q 538 908 419 908 l 653 908 q 759 887 713 908 q 838 821 804 865 q 850 803 845 812 q 860 783 854 794 l 879 758 q 917 547 941 672 l 786 -61 q 778 -82 784 -72 q 763 -99 772 -92 q 744 -111 755 -106 q 724 -115 734 -115 l 608 -115 q 574 -100 584 -115 q 533 -112 554 -109 q 493 -115 513 -115 l 378 -115 q 196 -28 260 -115 l 176 -1 m 677 486 q 680 534 684 512 q 663 572 675 556 q 632 598 651 589 q 587 607 612 607 l 472 607 q 426 597 448 607 q 384 572 403 588 q 351 533 365 555 q 332 486 337 511 l 306 364 q 305 317 300 339 q 322 278 310 295 q 353 252 334 262 q 396 243 372 243 l 511 243 q 558 252 535 243 q 600 278 581 262 q 633 317 619 295 q 653 364 647 339 l 677 486 m 575 0 l 591 82 q 538 20 583 42 q 499 4 519 9 q 460 0 479 0 l 345 0 q 259 18 296 0 q 197 72 222 35 q 165 243 142 144 l 241 607 q 346 779 264 708 q 525 850 431 850 l 640 850 q 726 833 688 850 q 789 781 763 817 q 819 607 841 709 l 690 0 l 575 0 m 685 -29 q 705 -20 695 -29 q 718 0 715 -12 l 847 607 q 851 713 860 666 q 812 802 843 761 q 742 860 782 842 q 646 879 701 879 l 530 879 q 332 800 425 879 q 255 712 285 760 q 214 607 225 665 l 138 243 q 172 52 112 131 q 338 -29 232 -29 l 453 -29 q 500 -24 477 -29 q 546 -5 524 -18 q 553 -23 547 -16 q 568 -29 559 -29 l 685 -29 m 625 364 q 611 329 621 345 q 586 299 600 312 q 554 279 571 287 q 518 272 536 272 l 403 272 q 370 279 385 272 q 346 299 355 287 q 334 329 337 312 q 335 364 331 345 l 359 486 q 374 522 363 505 q 399 551 385 539 q 431 571 414 564 q 467 578 448 578 l 582 578 q 615 571 601 578 q 639 552 630 564 q 651 523 648 540 q 650 486 654 506 l 625 364 z "},"b":{"ha":861,"x_min":96,"x_max":929,"o":"m 624 486 l 625 492 l 507 492 q 480 486 494 492 q 457 472 467 481 q 438 451 446 463 q 428 425 431 439 l 403 301 l 408 301 l 524 301 q 548 306 536 301 q 570 320 560 311 q 588 340 581 328 q 597 364 595 351 l 624 486 m 318 235 q 280 288 291 254 q 278 364 269 321 l 304 486 q 328 545 311 517 q 369 593 345 572 q 421 625 393 613 q 479 636 450 636 l 595 636 q 661 618 633 636 q 700 568 688 600 l 729 529 q 749 483 744 509 q 747 425 753 456 l 722 304 q 699 247 715 274 q 658 200 682 220 q 607 168 635 180 q 550 157 578 157 l 435 157 q 381 168 404 157 q 345 199 359 179 l 318 235 m 791 607 q 778 733 807 680 q 734 756 758 748 q 681 764 710 764 l 566 764 q 531 760 548 764 q 498 749 514 757 q 473 729 483 740 q 461 705 463 719 l 412 707 l 371 764 l 364 764 l 403 947 l 397 947 l 235 182 q 228 122 227 151 q 237 69 228 94 q 350 29 281 29 l 465 29 q 547 45 507 29 q 623 92 587 61 q 681 161 658 123 q 714 243 705 199 l 791 607 m 530 908 l 538 908 l 653 908 q 758 886 713 908 q 835 821 802 865 q 847 802 842 811 q 859 782 852 793 l 878 758 l 876 758 l 878 757 q 920 661 910 713 q 917 547 929 609 l 839 182 q 794 68 825 120 q 711 -28 762 16 q 493 -115 608 -115 l 378 -115 q 195 -29 258 -115 l 175 -3 q 147 29 159 10 q 105 126 114 74 q 110 243 96 179 l 277 1034 q 286 1056 279 1045 q 302 1074 293 1066 q 322 1087 311 1082 q 345 1092 334 1092 l 461 1092 q 489 1081 478 1092 q 503 1054 500 1069 l 538 1010 q 546 992 543 1002 q 545 972 548 983 l 530 908 m 677 486 q 679 533 684 511 q 663 572 675 555 q 631 597 650 588 q 587 607 612 607 l 472 607 q 426 597 448 607 q 384 572 403 588 q 351 533 365 555 q 332 486 337 511 l 306 364 q 304 316 300 338 q 321 278 309 294 q 352 252 333 262 q 396 243 372 243 l 511 243 q 558 252 535 243 q 600 278 581 262 q 633 317 619 295 q 653 364 647 339 l 677 486 m 743 243 q 706 150 732 193 q 637 72 680 108 q 460 0 555 0 l 345 0 q 195 71 247 0 q 165 243 142 142 l 334 1034 l 449 1034 l 393 770 q 446 831 401 807 q 485 845 465 841 q 525 850 505 850 l 640 850 q 787 779 736 850 q 822 701 813 743 q 819 607 830 658 l 743 243 m 771 243 l 847 607 q 811 800 870 720 q 646 879 753 879 l 530 879 q 484 874 507 879 q 439 857 460 869 l 476 1034 q 472 1054 479 1045 q 454 1063 466 1063 l 339 1063 q 318 1054 328 1063 q 306 1034 307 1045 l 138 243 q 171 50 112 128 q 241 -10 200 9 q 338 -29 283 -29 l 453 -29 q 653 52 559 -29 q 728 139 699 92 q 771 243 758 186 m 625 364 q 611 329 621 345 q 586 299 600 312 q 554 279 571 287 q 518 272 536 272 l 403 272 q 369 279 384 272 q 346 299 355 286 q 334 328 336 311 q 335 364 331 345 l 359 486 q 374 522 363 505 q 399 551 385 539 q 431 571 414 564 q 467 578 448 578 l 582 578 q 615 571 600 578 q 638 551 629 564 q 651 522 648 539 q 650 486 654 505 l 625 364 z "},"c":{"ha":861,"x_min":83,"x_max":970,"o":"m 668 29 l 694 157 l 435 157 q 382 168 404 157 q 345 199 359 179 l 317 237 q 280 291 291 258 q 278 364 269 324 l 304 486 q 328 545 311 517 q 369 593 345 572 q 421 625 393 613 q 479 636 450 636 l 798 636 l 825 764 l 566 764 q 483 748 523 764 q 404 700 442 732 q 313 547 331 635 l 235 182 q 229 123 229 151 q 237 71 229 95 q 350 29 283 29 l 668 29 m 403 301 l 408 301 l 754 301 q 783 291 772 301 q 798 264 794 281 l 831 220 q 839 203 837 212 q 839 182 840 193 l 786 -61 q 778 -82 784 -72 q 763 -99 772 -92 q 744 -111 755 -106 q 724 -115 734 -115 l 378 -115 q 196 -28 260 -115 l 176 -1 q 149 31 161 12 q 110 243 83 120 l 186 607 q 232 723 199 671 q 315 821 264 776 q 538 908 419 908 l 884 908 q 912 898 901 908 q 926 871 923 888 l 960 828 q 967 811 965 821 q 966 790 970 801 l 917 547 q 907 526 914 536 q 892 509 901 516 q 873 496 883 501 q 852 492 863 492 l 507 492 q 480 486 494 492 q 457 472 467 481 q 438 451 446 463 q 428 425 431 439 l 403 301 m 345 0 q 259 18 296 0 q 197 72 222 35 q 165 243 142 144 l 241 607 q 346 779 264 708 q 525 850 431 850 l 871 850 l 819 607 l 472 607 q 426 597 448 607 q 384 572 403 588 q 351 533 365 555 q 332 486 337 511 l 306 364 q 305 317 300 339 q 322 278 310 295 q 353 252 334 262 q 396 243 372 243 l 743 243 l 690 0 l 345 0 m 685 -29 q 705 -20 695 -29 q 718 0 715 -12 l 771 243 q 766 263 772 254 q 749 272 759 272 l 403 272 q 370 279 385 272 q 346 299 355 287 q 334 329 337 312 q 335 364 331 345 l 359 486 q 374 522 363 505 q 399 551 385 539 q 431 571 414 564 q 467 578 448 578 l 812 578 q 834 587 824 578 q 847 607 845 595 l 899 850 q 895 871 902 863 q 878 879 888 879 l 530 879 q 332 800 425 879 q 255 712 285 760 q 214 607 225 665 l 138 243 q 172 52 112 131 q 338 -29 232 -29 l 685 -29 z "},"d":{"ha":861,"x_min":83,"x_max":1009,"o":"m 624 486 l 625 492 l 507 492 q 480 486 494 492 q 457 472 467 481 q 438 451 446 463 q 428 425 431 439 l 403 301 l 408 301 l 524 301 q 549 306 536 301 q 571 319 561 311 q 588 339 581 328 q 597 364 595 351 l 624 486 m 317 237 q 280 291 291 258 q 278 364 269 324 l 304 486 q 328 545 311 517 q 369 593 345 572 q 421 625 393 613 q 479 636 450 636 l 595 636 q 661 618 633 636 q 700 568 688 600 l 729 529 q 749 483 744 509 q 747 425 753 456 l 722 304 q 699 245 715 273 q 659 199 682 218 q 608 168 636 179 q 550 157 580 157 l 435 157 q 382 168 404 157 q 345 199 359 179 l 317 237 m 864 947 l 860 947 l 808 707 l 758 705 l 720 757 q 701 762 710 761 q 681 764 691 764 l 566 764 q 483 748 523 764 q 404 700 442 732 q 313 547 331 635 l 235 182 q 229 123 229 151 q 237 71 229 95 q 350 29 283 29 l 465 29 q 624 92 552 29 q 714 243 694 153 l 864 947 m 176 -1 q 149 31 161 12 q 110 243 83 120 l 186 607 q 232 723 199 671 q 315 821 264 776 q 538 908 419 908 l 653 908 q 713 900 681 908 l 741 1034 q 749 1056 743 1045 q 765 1074 755 1066 q 785 1087 774 1082 q 807 1092 795 1092 l 922 1092 q 951 1081 940 1092 q 965 1054 962 1069 l 999 1010 q 1007 992 1004 1002 q 1006 972 1009 983 l 839 182 q 713 -29 812 58 q 607 -94 661 -73 q 493 -115 553 -115 l 378 -115 q 196 -28 260 -115 l 176 -1 m 677 486 q 679 533 684 511 q 663 572 675 555 q 631 597 650 588 q 587 607 612 607 l 472 607 q 426 597 448 607 q 384 572 403 588 q 351 533 365 555 q 332 486 337 511 l 306 364 q 305 317 300 339 q 322 278 310 295 q 353 252 334 262 q 396 243 372 243 l 511 243 q 559 252 536 243 q 601 278 583 262 q 633 316 620 294 q 653 364 647 338 l 677 486 m 743 243 q 706 149 732 192 q 637 71 680 106 q 460 0 555 0 l 345 0 q 259 18 296 0 q 197 72 222 35 q 165 243 142 144 l 241 607 q 346 779 264 708 q 525 850 431 850 l 640 850 q 678 845 660 850 q 710 831 696 841 q 739 770 745 807 l 794 1034 l 909 1034 l 743 243 m 771 243 l 937 1034 q 933 1054 939 1045 q 917 1063 927 1063 l 802 1063 q 780 1054 790 1063 q 766 1034 769 1045 l 729 857 q 691 874 712 869 q 646 879 669 879 l 530 879 q 332 800 425 879 q 255 712 285 760 q 214 607 225 665 l 138 243 q 172 52 112 131 q 338 -29 232 -29 l 453 -29 q 557 -10 508 -29 q 654 50 606 9 q 729 138 701 90 q 771 243 758 185 m 625 364 q 611 328 621 345 q 586 299 600 311 q 554 279 572 286 q 518 272 537 272 l 403 272 q 370 279 385 272 q 346 299 355 287 q 334 329 337 312 q 335 364 331 345 l 359 486 q 374 522 363 505 q 399 551 385 539 q 431 571 414 564 q 467 578 448 578 l 582 578 q 615 571 600 578 q 638 551 629 564 q 651 522 648 539 q 650 486 654 505 l 625 364 z "},"e":{"ha":861,"x_min":83,"x_max":970,"o":"m 668 29 l 694 157 l 435 157 q 388 168 409 157 q 354 199 368 179 l 325 235 q 284 300 296 258 q 285 393 273 342 l 631 393 l 632 400 l 347 400 l 306 457 l 297 457 q 323 526 305 494 q 367 583 342 559 q 420 622 391 608 q 479 636 450 636 l 798 636 l 825 764 l 566 764 q 483 748 523 764 q 404 700 442 732 q 313 547 331 635 l 235 182 q 229 123 229 151 q 237 71 229 95 q 350 29 283 29 l 668 29 m 749 301 l 754 301 q 783 291 772 301 q 798 264 794 281 l 831 220 q 839 203 837 212 q 839 182 840 193 l 786 -61 q 778 -82 784 -72 q 763 -99 772 -92 q 744 -111 755 -106 q 724 -115 734 -115 l 378 -115 q 196 -28 260 -115 l 176 -1 q 149 31 161 12 q 110 243 83 120 l 186 607 q 232 723 199 671 q 315 821 264 776 q 538 908 419 908 l 884 908 q 912 898 901 908 q 926 871 923 888 l 960 828 q 967 811 965 821 q 966 790 970 801 l 917 547 q 907 526 914 536 q 892 509 901 516 q 873 496 883 501 q 852 492 863 492 l 745 492 l 766 463 q 774 446 772 455 q 774 425 777 437 l 749 301 m 345 0 q 259 18 296 0 q 197 72 222 35 q 165 243 142 144 l 241 607 q 346 779 264 708 q 525 850 431 850 l 871 850 l 819 607 l 472 607 q 426 597 448 607 q 384 572 403 588 q 351 533 365 555 q 332 486 337 511 l 677 486 l 653 364 l 306 364 q 305 317 300 339 q 322 278 310 295 q 353 252 334 262 q 396 243 372 243 l 743 243 l 690 0 l 345 0 m 685 -29 q 705 -20 695 -29 q 718 0 715 -12 l 771 243 q 766 263 772 254 q 749 272 759 272 l 403 272 q 354 289 374 272 q 334 335 335 307 l 646 335 q 667 344 657 335 q 681 364 677 353 l 705 486 q 702 507 709 498 q 685 515 695 515 l 371 515 q 411 560 385 543 q 467 578 437 578 l 812 578 q 834 587 824 578 q 847 607 845 595 l 899 850 q 895 871 902 863 q 878 879 888 879 l 530 879 q 332 800 425 879 q 255 712 285 760 q 214 607 225 665 l 138 243 q 172 52 112 131 q 338 -29 232 -29 l 685 -29 z "},"f":{"ha":717,"x_min":54,"x_max":894,"o":"m 721 819 l 749 947 l 604 947 q 443 884 515 947 q 383 813 406 851 q 351 729 361 775 l 201 29 l 207 29 l 296 454 l 528 454 l 529 461 l 361 461 l 318 518 l 311 518 l 343 668 q 367 728 350 701 q 407 776 383 755 q 459 808 430 796 q 518 819 488 819 l 721 819 m 78 -53 q 60 -31 66 -45 q 57 0 54 -17 l 225 790 q 354 1004 252 916 q 460 1070 406 1049 q 576 1092 515 1092 l 807 1092 q 836 1081 825 1092 q 850 1054 846 1069 l 884 1010 q 891 992 889 1002 q 890 972 894 983 l 840 729 q 830 708 837 718 q 815 691 824 699 q 797 679 806 684 q 777 675 787 675 l 546 675 q 519 670 532 675 q 496 655 507 665 q 477 634 485 646 q 467 607 469 621 l 467 606 l 587 606 q 616 595 605 606 q 631 568 627 584 l 665 524 q 672 486 676 508 l 646 364 q 637 343 644 353 q 622 326 631 334 q 604 314 614 319 q 583 310 593 310 l 403 310 l 325 -61 q 316 -82 322 -72 q 301 -99 310 -92 q 282 -111 292 -106 q 262 -115 273 -115 l 147 -115 q 113 -100 125 -115 l 78 -53 m 511 790 q 464 781 487 790 q 421 755 440 771 q 389 716 403 739 q 371 668 376 694 l 345 547 l 576 547 l 549 425 l 318 425 l 228 0 l 113 0 l 281 790 q 383 962 303 893 q 564 1034 469 1034 l 794 1034 l 743 790 l 511 790 m 736 761 q 758 769 747 761 q 771 790 768 778 l 822 1034 q 818 1054 825 1045 q 802 1063 812 1063 l 570 1063 q 466 1043 515 1063 q 370 983 416 1023 q 294 895 323 943 q 253 790 265 848 l 85 0 q 89 -20 83 -12 q 107 -29 96 -29 l 222 -29 q 244 -20 234 -29 q 257 0 254 -12 l 340 396 l 543 396 q 565 405 555 396 q 578 425 576 414 l 604 547 q 600 568 606 559 q 582 576 593 576 l 379 576 l 399 668 q 413 705 403 688 q 437 734 423 722 q 469 754 452 747 q 505 761 487 761 l 736 761 z "},"g":{"ha":861,"x_min":83,"x_max":941,"o":"m 624 486 l 625 492 l 507 492 q 480 486 494 492 q 457 472 467 481 q 438 451 446 463 q 428 425 431 439 l 403 301 l 408 301 l 524 301 q 549 306 536 301 q 571 319 561 311 q 588 339 581 328 q 597 364 595 351 l 624 486 m 317 237 q 280 291 291 258 q 278 364 269 324 l 304 486 q 328 545 311 517 q 369 593 345 572 q 421 625 393 613 q 479 636 450 636 l 595 636 q 661 618 633 636 q 700 568 688 600 l 729 529 q 749 483 744 509 q 747 425 753 456 l 722 304 q 699 245 715 273 q 659 199 682 218 q 608 168 636 179 q 550 157 580 157 l 435 157 q 382 168 404 157 q 345 199 359 179 l 317 237 m 791 607 q 797 675 799 644 q 781 733 794 706 q 735 756 760 748 q 681 764 710 764 l 566 764 q 483 748 523 764 q 404 700 442 732 q 313 547 331 635 l 235 182 q 229 123 229 151 q 237 71 229 95 q 350 29 283 29 l 465 29 q 498 33 482 29 q 529 45 513 36 q 552 63 544 52 q 566 87 561 74 l 621 86 l 619 79 l 663 22 l 644 -61 q 621 -119 637 -92 q 582 -166 605 -146 q 531 -197 559 -186 q 473 -208 503 -208 l 383 -208 l 354 -336 l 387 -336 q 470 -321 430 -336 q 546 -273 510 -305 q 604 -204 581 -242 q 636 -122 627 -166 l 791 607 m 176 -1 q 149 31 161 12 q 110 243 83 120 l 186 607 q 232 723 199 671 q 315 821 264 776 q 538 908 419 908 l 653 908 q 759 887 713 908 q 838 821 804 865 q 850 803 845 812 q 860 783 854 794 l 879 758 q 917 547 941 672 l 761 -182 q 716 -298 747 -245 q 635 -395 685 -351 q 415 -481 534 -481 l 300 -481 q 281 -476 290 -481 q 267 -464 272 -471 l 231 -416 q 213 -395 219 -409 q 211 -366 208 -381 l 264 -122 q 267 -108 265 -115 q 273 -94 269 -101 q 232 -67 252 -84 q 196 -28 213 -50 l 176 -1 m 677 486 q 679 533 684 511 q 663 572 675 555 q 631 597 650 588 q 587 607 612 607 l 472 607 q 426 597 448 607 q 384 572 403 588 q 351 533 365 555 q 332 486 337 511 l 306 364 q 305 317 300 339 q 322 278 310 295 q 353 252 334 262 q 396 243 372 243 l 511 243 q 559 252 536 243 q 601 278 583 262 q 633 316 620 294 q 653 364 647 338 l 677 486 m 665 -122 q 628 -216 654 -174 q 561 -294 603 -259 q 382 -366 477 -366 l 267 -366 l 318 -122 l 433 -122 q 481 -113 458 -122 q 523 -87 505 -103 q 555 -48 542 -71 q 575 0 569 -26 l 591 82 q 538 20 583 42 q 499 4 519 9 q 460 0 479 0 l 345 0 q 259 18 296 0 q 197 72 222 35 q 165 243 142 144 l 241 607 q 346 779 264 708 q 525 850 431 850 l 640 850 q 726 833 688 850 q 789 781 763 817 q 819 607 841 709 l 665 -122 m 693 -122 l 847 607 q 851 713 860 666 q 812 802 843 761 q 742 860 782 842 q 646 879 701 879 l 530 879 q 332 800 425 879 q 255 712 285 760 q 214 607 225 665 l 138 243 q 172 52 112 131 q 338 -29 232 -29 l 453 -29 q 500 -24 477 -29 q 546 -5 524 -18 q 529 -40 540 -24 q 505 -67 519 -56 q 474 -86 491 -79 q 440 -93 458 -93 l 325 -93 q 303 -101 313 -93 q 290 -122 294 -110 l 237 -366 q 242 -386 235 -377 q 260 -395 249 -395 l 375 -395 q 480 -375 431 -395 q 576 -315 530 -355 q 651 -227 623 -275 q 693 -122 680 -180 m 625 364 q 611 328 621 345 q 586 299 600 311 q 554 279 572 286 q 518 272 537 272 l 403 272 q 370 279 385 272 q 346 299 355 287 q 334 329 337 312 q 335 364 331 345 l 359 486 q 374 522 363 505 q 399 551 385 539 q 431 571 414 564 q 467 578 448 578 l 582 578 q 615 571 600 578 q 638 551 629 564 q 651 522 648 539 q 650 486 654 505 l 625 364 z "},"h":{"ha":861,"x_min":54,"x_max":929,"o":"m 201 29 l 207 29 l 304 486 q 328 545 311 517 q 369 593 345 572 q 421 625 393 613 q 479 636 450 636 l 595 636 q 661 618 633 636 q 700 568 688 600 l 729 529 q 749 483 744 509 q 747 425 753 456 l 664 29 l 668 29 l 791 607 q 778 733 807 680 q 734 756 758 748 q 681 764 710 764 l 566 764 q 531 760 548 764 q 498 749 514 757 q 473 730 481 740 q 461 708 465 720 l 412 708 l 371 765 l 364 765 l 403 947 l 397 947 l 201 29 m 530 908 l 538 908 l 653 908 q 758 886 713 908 q 835 821 802 865 q 847 802 842 811 q 859 782 852 793 l 878 757 q 920 661 910 713 q 917 547 929 609 l 786 -61 q 778 -82 784 -72 q 763 -99 772 -92 q 744 -111 755 -106 q 724 -115 734 -115 l 608 -115 q 589 -111 598 -115 q 575 -100 581 -107 l 539 -53 q 522 -31 528 -45 q 519 0 516 -17 l 624 486 l 625 492 l 507 492 q 480 486 494 492 q 457 472 467 481 q 438 451 446 463 q 428 425 431 439 l 325 -61 q 316 -82 322 -72 q 301 -99 310 -92 q 282 -111 292 -106 q 262 -115 273 -115 l 147 -115 q 113 -100 125 -115 l 78 -53 q 60 -31 66 -45 q 57 0 54 -17 l 277 1034 q 286 1056 279 1045 q 302 1074 293 1066 q 322 1087 311 1082 q 345 1092 334 1092 l 461 1092 q 489 1081 478 1092 q 503 1054 500 1069 l 538 1010 q 546 992 543 1002 q 545 972 548 983 l 530 908 m 575 0 l 677 486 q 679 533 684 511 q 663 572 675 555 q 631 597 650 588 q 587 607 612 607 l 472 607 q 426 597 448 607 q 384 572 403 588 q 351 533 365 555 q 332 486 337 511 l 228 0 l 113 0 l 334 1034 l 449 1034 l 393 770 q 446 831 399 807 q 485 845 465 841 q 525 850 505 850 l 640 850 q 787 779 736 850 q 822 701 813 743 q 819 607 830 658 l 690 0 l 575 0 m 685 -29 q 705 -20 695 -29 q 718 0 715 -12 l 847 607 q 811 800 870 720 q 646 879 753 879 l 530 879 q 484 874 507 879 q 439 857 460 869 l 476 1034 q 472 1054 479 1045 q 454 1063 466 1063 l 339 1063 q 318 1054 328 1063 q 306 1034 307 1045 l 85 0 q 89 -20 83 -12 q 107 -29 96 -29 l 222 -29 q 244 -20 234 -29 q 257 0 254 -12 l 359 486 q 374 522 363 505 q 399 551 385 539 q 431 571 414 564 q 467 578 448 578 l 582 578 q 615 571 600 578 q 638 551 629 564 q 651 522 648 539 q 650 486 654 505 l 547 0 q 551 -20 544 -12 q 568 -29 557 -29 l 685 -29 m 440 857 q 439 857 439 857 q 439 856 439 856 l 439 857 l 440 857 z "},"i":{"ha":400,"x_min":54,"x_max":509,"o":"m 201 29 l 207 29 l 364 764 l 358 764 l 201 29 m 78 -53 q 60 -31 66 -45 q 57 0 54 -17 l 237 850 q 247 872 240 862 q 263 891 254 883 q 284 903 273 899 q 306 908 295 908 l 422 908 q 450 898 439 908 q 464 871 462 888 l 498 828 q 506 811 504 821 q 505 790 509 801 l 325 -61 q 316 -82 322 -72 q 301 -99 310 -92 q 282 -111 292 -106 q 262 -115 273 -115 l 147 -115 q 113 -100 125 -115 l 78 -53 m 113 0 l 294 850 l 410 850 l 228 0 l 113 0 m 222 -29 q 244 -20 234 -29 q 257 0 254 -12 l 437 850 q 434 871 441 863 q 415 879 427 879 l 300 879 q 279 871 290 879 q 267 850 269 863 l 85 0 q 89 -20 83 -12 q 107 -29 96 -29 l 222 -29 z "},"j":{"ha":631,"x_min":-24,"x_max":739,"o":"m 595 764 l 358 764 l 330 636 l 507 636 l 505 629 l 549 572 l 412 -61 q 390 -119 406 -92 q 351 -166 374 -146 q 300 -197 328 -186 q 243 -208 273 -208 l 151 -208 l 123 -336 l 157 -336 q 315 -273 242 -336 q 406 -122 387 -211 l 595 764 m 207 555 q 188 576 195 563 q 186 607 182 590 l 237 850 q 247 872 240 862 q 263 891 254 883 q 284 903 273 899 q 306 908 295 908 l 653 908 q 681 898 669 908 q 694 871 692 888 l 729 828 q 737 811 734 821 q 736 790 739 801 l 529 -182 q 485 -298 515 -245 q 403 -395 454 -351 q 298 -460 352 -439 q 184 -481 244 -481 l 69 -481 q 49 -476 58 -481 q 35 -464 41 -471 l 0 -416 q -18 -395 -12 -409 q -21 -366 -24 -381 l 32 -122 q 40 -99 34 -110 q 56 -81 47 -89 q 77 -68 66 -73 q 100 -64 88 -64 l 215 -64 q 240 -59 228 -64 q 262 -45 252 -54 q 279 -24 272 -36 q 289 0 286 -13 l 393 492 l 277 492 q 256 496 265 492 q 241 509 247 501 l 207 555 m 433 -122 q 330 -294 412 -224 q 150 -366 248 -366 l 35 -366 l 87 -122 l 203 -122 q 250 -113 227 -122 q 292 -87 273 -103 q 325 -48 311 -71 q 345 0 338 -26 l 472 607 l 241 607 l 294 850 l 640 850 l 433 -122 m 461 -122 l 668 850 q 664 871 671 863 q 646 879 657 879 l 300 879 q 279 871 290 879 q 267 850 269 863 l 214 607 q 218 587 212 595 q 236 578 224 578 l 439 578 l 315 0 q 302 -37 312 -20 q 277 -66 292 -54 q 245 -86 262 -79 q 208 -93 227 -93 l 93 -93 q 72 -101 83 -93 q 60 -122 62 -110 l 7 -366 q 11 -386 5 -377 q 29 -395 18 -395 l 144 -395 q 249 -375 200 -395 q 345 -315 298 -355 q 420 -227 391 -275 q 461 -122 448 -180 z "},"k":{"ha":861,"x_min":54,"x_max":970,"o":"m 785 600 q 793 622 790 612 q 800 644 797 633 l 825 764 l 821 764 l 786 607 l 785 600 m 201 29 l 207 29 l 271 334 l 529 334 q 599 314 571 334 q 639 261 627 295 l 665 227 q 684 121 696 184 l 664 29 l 668 29 l 705 207 q 707 270 713 239 q 686 330 702 301 q 665 348 677 340 q 642 364 653 357 l 603 416 q 595 421 599 418 q 587 425 591 423 q 628 445 609 435 q 665 469 646 456 q 641 463 652 464 q 616 461 629 461 l 361 461 l 318 518 l 311 518 l 403 947 l 397 947 l 201 29 m 467 606 l 587 606 q 613 610 600 606 q 635 624 625 615 q 653 644 646 632 q 663 668 660 655 l 701 850 q 710 872 703 862 q 725 891 716 883 q 746 903 734 899 q 768 908 757 908 l 884 908 q 912 898 901 908 q 926 871 923 888 l 960 828 q 967 811 965 821 q 966 790 970 801 l 924 583 q 875 463 910 520 q 789 364 840 406 l 791 359 q 834 263 823 318 q 831 146 844 208 l 786 -61 q 778 -82 784 -72 q 763 -99 772 -92 q 744 -111 755 -106 q 724 -115 734 -115 l 608 -115 q 589 -111 598 -115 q 575 -100 581 -107 l 539 -53 q 522 -31 528 -45 q 519 0 516 -17 l 558 182 l 559 189 l 378 189 l 325 -61 q 316 -82 322 -72 q 301 -99 310 -92 q 282 -111 292 -106 q 262 -115 273 -115 l 147 -115 q 113 -100 125 -115 l 78 -53 q 60 -31 66 -45 q 57 0 54 -17 l 277 1034 q 286 1056 279 1045 q 302 1074 293 1066 q 322 1087 311 1082 q 345 1092 334 1092 l 461 1092 q 489 1081 478 1092 q 503 1054 500 1069 l 538 1010 q 546 992 543 1002 q 545 972 548 983 l 467 606 m 575 0 l 614 182 q 615 231 619 208 q 598 269 610 253 q 567 295 586 286 q 524 304 548 304 l 293 304 l 228 0 l 113 0 l 334 1034 l 449 1034 l 345 547 l 576 547 q 624 556 601 547 q 666 582 647 566 q 698 620 684 598 q 717 668 711 642 l 755 850 l 871 850 l 828 644 q 804 576 820 609 q 765 514 788 543 q 714 463 743 486 q 653 425 686 440 q 698 387 680 410 q 727 336 717 364 q 740 274 738 307 q 733 207 741 241 l 690 0 l 575 0 m 685 -29 q 705 -20 695 -29 q 718 0 715 -12 l 762 207 q 761 329 776 272 q 704 425 746 387 q 802 520 763 463 q 856 644 841 578 l 899 850 q 895 871 902 863 q 878 879 888 879 l 762 879 q 741 871 751 879 q 728 850 731 863 l 689 668 q 674 632 685 648 q 650 603 664 615 q 618 584 635 591 q 582 576 601 576 l 379 576 l 476 1034 q 472 1054 479 1045 q 454 1063 466 1063 l 339 1063 q 318 1054 328 1063 q 306 1034 307 1045 l 85 0 q 89 -20 83 -12 q 107 -29 96 -29 l 222 -29 q 244 -20 234 -29 q 257 0 254 -12 l 315 275 l 518 275 q 552 268 537 275 q 575 249 566 261 q 587 219 585 236 q 586 182 590 201 l 547 0 q 551 -20 544 -12 q 568 -29 557 -29 l 685 -29 z "},"l":{"ha":486,"x_min":96,"x_max":548,"o":"m 315 239 q 279 292 290 260 q 278 364 269 324 l 403 947 l 397 947 l 235 182 q 228 122 227 151 q 237 69 228 94 q 275 44 254 54 q 323 32 296 35 l 355 186 q 349 192 352 189 q 345 199 347 195 l 315 239 m 403 301 l 408 301 q 437 291 426 301 q 452 264 448 281 l 484 220 q 492 182 496 205 l 437 -72 l 387 -115 q 195 -29 258 -115 l 174 -1 q 159 13 166 5 q 147 29 153 21 q 105 126 114 74 q 110 243 96 179 l 277 1034 q 286 1056 279 1045 q 302 1074 293 1066 q 322 1087 311 1082 q 345 1092 334 1092 l 461 1092 q 489 1081 478 1092 q 503 1054 500 1069 l 538 1010 q 546 992 543 1002 q 545 972 548 983 l 403 301 m 345 0 q 195 71 247 0 q 165 243 142 142 l 334 1034 l 449 1034 l 306 364 q 304 316 300 338 q 321 278 309 294 q 352 252 333 262 q 396 243 372 243 l 345 0 m 372 0 l 424 243 q 419 263 426 254 q 403 272 413 272 q 369 279 384 272 q 346 299 355 286 q 334 328 336 311 q 335 364 331 345 l 476 1034 q 472 1054 479 1045 q 454 1063 466 1063 l 339 1063 q 318 1054 328 1063 q 306 1034 307 1045 l 138 243 q 171 50 112 128 q 241 -10 200 9 q 338 -29 283 -29 l 372 0 z "},"m":{"ha":1324,"x_min":54,"x_max":1390,"o":"m 1074 764 q 1014 752 1044 764 q 953 721 983 741 q 895 670 923 700 q 842 604 867 641 q 888 628 863 620 q 940 636 914 636 l 1055 636 q 1122 618 1094 636 q 1161 568 1149 600 l 1190 529 q 1211 483 1205 509 q 1210 425 1216 456 l 1125 29 l 1131 29 l 1253 607 q 1257 675 1261 644 q 1239 733 1253 706 q 1195 756 1219 748 q 1141 764 1171 764 l 1074 764 m 664 29 l 668 29 l 765 486 q 778 523 770 505 q 796 555 785 540 l 762 600 q 762 596 762 598 q 760 591 761 594 q 744 669 754 633 q 717 733 734 705 q 635 764 680 764 l 566 764 q 483 748 523 764 q 404 700 442 732 q 313 547 331 635 l 201 29 l 207 29 l 304 486 q 328 545 311 517 q 369 593 345 572 q 421 625 393 613 q 479 636 450 636 l 595 636 q 664 617 635 636 q 704 566 692 598 l 729 529 q 749 483 744 509 q 747 425 755 456 l 664 29 m 78 -53 q 60 -31 66 -45 q 57 0 54 -17 l 186 607 q 232 723 199 671 q 315 821 264 776 q 538 908 419 908 l 607 908 q 721 880 670 908 q 803 802 772 852 q 917 880 854 852 q 1044 908 979 908 l 1114 908 q 1220 886 1175 908 q 1297 821 1265 865 q 1310 802 1305 811 q 1320 782 1314 793 l 1339 757 q 1381 661 1373 713 q 1378 547 1390 609 l 1249 -61 q 1240 -82 1246 -72 q 1225 -99 1234 -92 q 1206 -111 1216 -106 q 1186 -115 1196 -115 l 1071 -115 q 1036 -100 1048 -115 l 1002 -53 q 984 -31 990 -45 q 981 0 977 -17 l 1083 486 l 1084 492 l 968 492 q 942 487 954 492 q 919 472 929 481 q 900 451 908 463 q 889 425 892 439 l 786 -61 q 778 -82 784 -72 q 763 -99 772 -92 q 744 -111 755 -106 q 724 -115 734 -115 l 608 -115 q 589 -111 598 -115 q 575 -100 581 -107 l 539 -53 q 522 -31 528 -45 q 519 0 516 -17 l 624 486 l 625 492 l 507 492 q 480 486 494 492 q 457 472 467 481 q 438 451 446 463 q 428 425 431 439 l 325 -61 q 316 -82 322 -72 q 301 -99 310 -92 q 282 -111 292 -106 q 262 -115 273 -115 l 147 -115 q 113 -100 125 -115 l 78 -53 m 1036 0 l 1140 486 q 1141 533 1145 511 q 1124 572 1136 555 q 1092 597 1112 588 q 1050 607 1073 607 l 935 607 q 887 598 910 607 q 845 572 864 589 q 812 534 826 556 q 793 486 799 512 l 690 0 l 575 0 l 677 486 q 680 534 684 512 q 663 572 675 556 q 632 598 651 589 q 587 607 612 607 l 472 607 q 426 597 448 607 q 384 572 403 588 q 351 533 365 555 q 332 486 337 511 l 228 0 l 113 0 l 241 607 q 346 779 264 708 q 525 850 431 850 l 595 850 q 664 838 632 850 q 721 805 696 827 q 761 753 745 784 q 779 685 776 723 q 826 753 798 723 q 888 805 854 784 q 958 838 921 827 q 1034 850 996 850 l 1103 850 q 1186 832 1149 850 q 1249 779 1223 815 q 1284 701 1276 743 q 1280 607 1292 658 l 1152 0 l 1036 0 m 1146 -29 q 1167 -20 1158 -29 q 1181 0 1177 -12 l 1308 607 q 1313 712 1321 665 q 1274 800 1304 760 q 1203 859 1243 840 q 1108 879 1163 879 l 1039 879 q 905 845 970 879 q 793 753 840 812 q 719 845 770 812 q 600 879 668 879 l 530 879 q 332 800 425 879 q 255 712 285 760 q 214 607 225 665 l 85 0 q 89 -20 83 -12 q 107 -29 96 -29 l 222 -29 q 244 -20 234 -29 q 257 0 254 -12 l 359 486 q 374 522 363 505 q 399 551 385 539 q 431 571 414 564 q 467 578 448 578 l 582 578 q 615 571 601 578 q 639 552 630 564 q 651 523 648 540 q 650 486 654 506 l 547 0 q 551 -20 544 -12 q 568 -29 557 -29 l 685 -29 q 705 -20 695 -29 q 718 0 715 -12 l 821 486 q 835 523 825 506 q 860 552 846 540 q 892 571 875 564 q 928 578 909 578 l 1044 578 q 1077 571 1063 578 q 1100 551 1091 564 q 1113 522 1109 539 q 1112 486 1116 505 l 1008 0 q 1013 -20 1006 -12 q 1031 -29 1019 -29 l 1146 -29 z "},"n":{"ha":861,"x_min":54,"x_max":941,"o":"m 201 29 l 207 29 l 304 486 q 328 545 311 517 q 369 593 345 572 q 421 625 393 613 q 479 636 450 636 l 595 636 q 664 617 635 636 q 704 566 692 598 l 729 529 q 749 483 744 509 q 747 425 755 456 l 664 29 l 668 29 l 791 607 q 797 675 799 644 q 781 733 794 706 q 735 756 760 748 q 681 764 710 764 l 566 764 q 482 748 523 764 q 403 700 441 732 q 313 547 331 637 l 201 29 m 78 -53 q 60 -31 66 -45 q 57 0 54 -17 l 186 607 q 231 723 199 671 q 315 821 262 776 q 538 908 417 908 l 653 908 q 759 887 713 908 q 838 821 804 865 q 850 803 845 812 q 860 783 854 794 l 879 758 q 917 547 941 672 l 786 -61 q 778 -82 784 -72 q 763 -99 772 -92 q 744 -111 755 -106 q 724 -115 734 -115 l 608 -115 q 589 -111 598 -115 q 575 -100 581 -107 l 539 -53 q 522 -31 528 -45 q 519 0 516 -17 l 624 486 l 625 492 l 507 492 q 480 486 494 492 q 457 472 467 481 q 438 451 446 463 q 428 425 431 439 l 325 -61 q 316 -82 322 -72 q 301 -99 310 -92 q 282 -111 292 -106 q 262 -115 273 -115 l 147 -115 q 113 -100 125 -115 l 78 -53 m 575 0 l 677 486 q 680 534 684 512 q 663 572 675 556 q 632 598 651 589 q 587 607 612 607 l 472 607 q 426 597 448 607 q 384 572 403 588 q 351 533 365 555 q 332 486 337 511 l 228 0 l 113 0 l 241 607 q 278 701 253 658 q 345 779 304 743 q 525 850 429 850 l 640 850 q 726 833 688 850 q 789 781 763 817 q 819 607 841 709 l 690 0 l 575 0 m 685 -29 q 705 -20 695 -29 q 718 0 715 -12 l 847 607 q 851 713 860 666 q 812 802 843 761 q 742 860 782 842 q 646 879 701 879 l 530 879 q 330 800 425 879 q 254 712 283 760 q 214 607 225 665 l 85 0 q 89 -20 83 -12 q 107 -29 96 -29 l 222 -29 q 244 -20 234 -29 q 257 0 254 -12 l 359 486 q 374 522 363 505 q 399 551 385 539 q 431 571 414 564 q 467 578 448 578 l 582 578 q 615 571 601 578 q 639 552 630 564 q 651 523 648 540 q 650 486 654 506 l 547 0 q 551 -20 544 -12 q 568 -29 557 -29 l 685 -29 z "},"o":{"ha":861,"x_min":82,"x_max":929,"o":"m 624 486 l 625 492 l 507 492 q 480 486 494 492 q 457 472 467 481 q 438 451 446 463 q 428 425 431 439 l 403 301 l 408 301 l 524 301 q 549 306 536 301 q 571 319 561 311 q 588 339 581 328 q 597 364 595 351 l 624 486 m 317 237 q 280 291 291 258 q 278 364 269 324 l 304 486 q 328 545 311 517 q 369 593 345 572 q 421 625 393 613 q 479 636 450 636 l 595 636 q 661 618 633 636 q 700 568 688 600 l 729 529 q 749 483 744 509 q 747 425 753 456 l 722 304 q 699 245 715 273 q 659 199 682 218 q 608 168 636 179 q 550 157 580 157 l 435 157 q 382 168 404 157 q 345 199 359 179 l 317 237 m 791 607 q 778 733 807 680 q 734 756 758 748 q 681 764 710 764 l 566 764 q 482 748 523 764 q 403 700 441 732 q 313 547 331 637 l 235 182 q 228 123 229 151 q 237 69 228 95 q 288 39 259 50 q 350 29 317 29 l 465 29 q 624 92 552 29 q 714 243 694 153 l 791 607 m 175 -3 q 147 29 159 10 q 110 243 82 117 l 186 607 q 231 723 199 671 q 315 821 262 776 q 538 908 417 908 l 653 908 q 758 886 713 908 q 835 821 802 865 q 847 802 842 811 q 859 782 852 793 l 878 757 q 920 661 910 713 q 917 547 929 609 l 839 182 q 713 -29 812 58 q 607 -94 661 -73 q 493 -115 553 -115 l 378 -115 q 195 -29 258 -115 l 175 -3 m 677 486 q 679 533 684 511 q 663 572 675 555 q 631 597 650 588 q 587 607 612 607 l 472 607 q 426 597 448 607 q 384 572 403 588 q 351 533 365 555 q 332 486 337 511 l 306 364 q 305 317 300 339 q 322 278 310 295 q 353 252 334 262 q 396 243 372 243 l 511 243 q 559 252 536 243 q 601 278 583 262 q 633 316 620 294 q 653 364 647 338 l 677 486 m 743 243 q 706 149 732 192 q 637 71 680 106 q 460 0 555 0 l 345 0 q 258 18 296 0 q 195 71 220 35 q 165 243 142 143 l 241 607 q 278 701 253 658 q 345 779 304 743 q 525 850 429 850 l 640 850 q 787 779 736 850 q 822 701 813 743 q 819 607 830 658 l 743 243 m 771 243 l 847 607 q 811 800 870 720 q 646 879 753 879 l 530 879 q 330 800 425 879 q 254 712 283 760 q 214 607 225 665 l 138 243 q 133 138 125 186 q 171 50 140 90 q 242 -10 200 9 q 338 -29 284 -29 l 453 -29 q 557 -10 508 -29 q 654 50 606 9 q 729 138 701 90 q 771 243 758 185 m 625 364 q 611 328 621 345 q 586 299 600 311 q 554 279 572 286 q 518 272 537 272 l 403 272 q 370 279 385 272 q 346 299 355 287 q 334 329 337 312 q 335 364 331 345 l 359 486 q 374 522 363 505 q 399 551 385 539 q 431 571 414 564 q 467 578 448 578 l 582 578 q 615 571 600 578 q 638 551 629 564 q 651 522 648 539 q 650 486 654 505 l 625 364 z "},"p":{"ha":861,"x_min":2,"x_max":929,"o":"m 624 486 l 625 492 l 507 492 q 457 473 479 492 q 428 425 434 454 l 403 301 l 408 301 l 524 301 q 548 306 536 301 q 570 320 560 311 q 588 340 581 328 q 597 364 595 351 l 624 486 m 317 237 q 280 291 291 258 q 278 364 269 324 l 304 486 q 328 546 311 519 q 368 594 345 574 q 420 625 391 614 q 479 636 449 636 l 595 636 q 661 618 633 636 q 700 568 688 600 l 729 529 q 749 483 744 509 q 747 425 753 456 l 722 304 q 699 247 715 274 q 658 200 682 220 q 607 168 635 180 q 550 157 578 157 l 435 157 q 382 168 404 157 q 345 199 359 179 l 317 237 m 791 607 q 778 733 807 680 q 734 756 758 748 q 681 764 710 764 l 566 764 q 404 701 477 764 q 344 630 366 669 q 313 547 322 592 l 150 -214 l 155 -214 l 218 86 l 275 87 q 275 83 275 84 q 275 79 274 81 l 306 37 q 327 31 315 33 q 350 29 338 29 l 465 29 q 547 45 507 29 q 623 92 587 61 q 681 161 658 123 q 714 243 705 199 l 791 607 m 25 -296 q 8 -274 14 -288 q 4 -243 2 -260 l 186 607 q 231 724 199 672 q 315 821 262 777 q 421 887 366 865 q 538 908 477 908 l 653 908 q 758 886 713 908 q 835 821 802 865 q 847 802 842 811 q 859 782 852 793 l 878 757 q 920 661 910 713 q 917 547 929 609 l 839 182 q 794 68 825 120 q 711 -28 762 16 q 493 -115 608 -115 l 378 -115 q 345 -113 361 -115 q 315 -106 329 -111 l 273 -304 q 249 -342 268 -326 q 210 -358 231 -358 l 94 -358 q 75 -354 84 -358 q 61 -343 66 -351 l 25 -296 m 677 486 q 679 533 684 511 q 663 572 675 555 q 631 597 650 588 q 587 607 612 607 l 472 607 q 425 598 448 607 q 383 572 401 589 q 351 534 364 556 q 332 486 337 512 l 306 364 q 305 317 300 339 q 322 278 310 295 q 353 252 334 262 q 396 243 372 243 l 511 243 q 558 252 535 243 q 600 278 581 262 q 633 317 619 295 q 653 364 647 339 l 677 486 m 743 243 q 706 150 732 193 q 637 72 680 108 q 460 0 555 0 l 345 0 q 306 4 323 0 q 273 20 288 9 q 245 82 239 41 l 176 -243 l 61 -243 l 241 607 q 278 701 253 658 q 345 781 304 745 q 432 833 387 817 q 525 850 477 850 l 640 850 q 787 779 736 850 q 822 701 813 743 q 819 607 830 658 l 743 243 m 771 243 l 847 607 q 811 800 870 720 q 646 879 753 879 l 530 879 q 427 860 476 879 q 330 802 378 842 q 255 713 283 761 q 214 607 227 666 l 33 -243 q 37 -263 31 -254 q 54 -272 43 -272 l 170 -272 q 192 -263 181 -272 q 204 -243 202 -254 l 256 -5 q 293 -24 271 -18 q 338 -29 314 -29 l 453 -29 q 653 52 559 -29 q 728 139 699 92 q 771 243 758 186 m 625 364 q 611 329 621 345 q 586 299 600 312 q 554 279 571 287 q 518 272 536 272 l 403 272 q 370 279 385 272 q 346 299 355 287 q 334 329 337 312 q 335 364 331 345 l 359 486 q 374 523 363 506 q 399 552 385 540 q 430 571 413 564 q 467 578 448 578 l 582 578 q 615 571 600 578 q 638 551 629 564 q 651 522 648 539 q 650 486 654 505 l 625 364 z "},"q":{"ha":861,"x_min":83,"x_max":941,"o":"m 624 486 l 625 492 l 507 492 q 480 486 494 492 q 457 472 467 481 q 438 451 446 463 q 428 425 431 439 l 403 301 l 408 301 l 524 301 q 548 306 536 301 q 570 320 560 311 q 588 340 581 328 q 597 364 595 351 l 624 486 m 317 237 q 280 291 291 258 q 278 364 269 324 l 304 486 q 328 545 311 517 q 369 593 345 572 q 421 625 393 613 q 479 636 450 636 l 595 636 q 664 617 635 636 q 704 566 692 598 l 729 529 q 749 483 744 509 q 747 425 755 456 l 722 304 q 699 247 715 274 q 658 200 682 220 q 607 168 635 180 q 550 157 578 157 l 435 157 q 382 168 404 157 q 345 199 359 179 l 317 237 m 619 79 l 663 22 l 612 -214 l 616 -214 l 791 607 q 797 675 799 644 q 781 733 794 706 q 735 756 760 748 q 681 764 710 764 l 566 764 q 483 748 523 764 q 404 700 442 732 q 313 547 331 635 l 235 182 q 229 123 229 151 q 237 71 229 95 q 350 29 283 29 l 465 29 q 498 33 482 29 q 529 45 513 36 q 552 63 544 52 q 566 87 561 74 l 621 86 l 619 79 m 176 -1 q 149 31 161 12 q 110 243 83 120 l 186 607 q 232 723 199 671 q 315 821 264 776 q 538 908 419 908 l 653 908 q 759 887 713 908 q 838 821 804 865 q 850 803 845 812 q 860 783 854 794 l 879 758 q 917 547 941 672 l 734 -304 q 726 -325 732 -315 q 711 -342 720 -335 q 692 -354 703 -349 q 672 -358 682 -358 l 557 -358 q 522 -343 533 -358 l 488 -296 q 470 -274 475 -288 q 468 -243 465 -260 l 496 -115 l 378 -115 q 196 -28 260 -115 l 176 -1 m 677 486 q 680 534 684 512 q 663 572 675 556 q 632 598 651 589 q 587 607 612 607 l 472 607 q 426 597 448 607 q 384 572 403 588 q 351 533 365 555 q 332 486 337 511 l 306 364 q 305 317 300 339 q 322 278 310 295 q 353 252 334 262 q 396 243 372 243 l 511 243 q 558 252 535 243 q 600 278 581 262 q 633 317 619 295 q 653 364 647 339 l 677 486 m 522 -243 l 591 82 q 538 20 583 42 q 499 4 519 9 q 460 0 479 0 l 345 0 q 259 18 296 0 q 197 72 222 35 q 165 243 142 144 l 241 607 q 346 779 264 708 q 525 850 431 850 l 640 850 q 726 833 688 850 q 789 781 763 817 q 819 607 841 709 l 637 -243 l 522 -243 m 632 -272 q 653 -263 642 -272 q 665 -243 664 -254 l 847 607 q 851 713 860 666 q 812 802 843 761 q 742 860 782 842 q 646 879 701 879 l 530 879 q 332 800 425 879 q 255 712 285 760 q 214 607 225 665 l 138 243 q 172 52 112 131 q 338 -29 232 -29 l 453 -29 q 500 -24 477 -29 q 546 -5 524 -18 l 494 -243 q 499 -263 492 -254 q 517 -272 505 -272 l 632 -272 m 625 364 q 611 329 621 345 q 586 299 600 312 q 554 279 571 287 q 518 272 536 272 l 403 272 q 370 279 385 272 q 346 299 355 287 q 334 329 337 312 q 335 364 331 345 l 359 486 q 374 522 363 505 q 399 551 385 539 q 431 571 414 564 q 467 578 448 578 l 582 578 q 615 571 601 578 q 639 552 630 564 q 651 523 648 540 q 650 486 654 506 l 625 364 z "},"r":{"ha":717,"x_min":54,"x_max":854,"o":"m 682 636 l 710 764 l 566 764 q 531 760 548 764 q 498 749 514 757 q 473 729 483 740 q 461 705 463 719 l 412 707 l 371 764 l 358 764 l 201 29 l 207 29 l 304 486 q 328 545 311 517 q 369 593 345 572 q 421 625 393 613 q 479 636 450 636 l 682 636 m 78 -53 q 60 -31 66 -45 q 57 0 54 -17 l 237 850 q 247 872 240 862 q 263 891 254 883 q 284 903 273 899 q 306 908 295 908 l 422 908 q 438 904 431 908 q 453 895 446 901 q 538 908 493 908 l 768 908 q 797 898 786 908 q 811 871 808 888 l 844 828 q 852 811 850 821 q 851 790 854 801 l 802 547 q 792 526 799 536 q 777 509 785 516 q 758 496 768 501 q 737 492 747 492 l 507 492 q 480 486 494 492 q 457 472 467 481 q 438 451 446 463 q 428 425 431 439 l 325 -61 q 316 -82 322 -72 q 301 -99 310 -92 q 282 -111 292 -106 q 262 -115 273 -115 l 147 -115 q 113 -100 125 -115 l 78 -53 m 472 607 q 426 597 448 607 q 384 572 403 588 q 351 533 365 555 q 332 486 337 511 l 228 0 l 113 0 l 294 850 l 410 850 l 393 770 q 446 831 401 807 q 485 845 465 841 q 525 850 505 850 l 755 850 l 704 607 l 472 607 m 697 578 q 719 587 709 578 q 732 607 730 595 l 783 850 q 780 871 787 863 q 762 879 773 879 l 530 879 q 484 874 507 879 q 439 857 460 869 l 437 857 q 432 873 437 867 q 415 879 426 879 l 300 879 q 279 871 290 879 q 267 850 269 863 l 85 0 q 89 -20 83 -12 q 107 -29 96 -29 l 222 -29 q 244 -20 234 -29 q 257 0 254 -12 l 359 486 q 374 522 363 505 q 399 551 385 539 q 431 571 414 564 q 467 578 448 578 l 697 578 z "},"s":{"ha":861,"x_min":54,"x_max":970,"o":"m 714 243 q 701 370 728 315 q 656 392 680 384 q 603 400 632 400 l 488 400 q 457 407 471 400 q 433 425 443 414 l 403 469 q 377 502 385 481 q 375 547 370 522 q 389 583 379 566 q 413 611 399 599 q 444 629 427 623 q 479 636 461 636 l 798 636 l 825 764 l 566 764 q 483 748 523 764 q 404 700 442 732 q 313 547 331 635 q 306 488 305 515 q 315 435 307 460 q 366 404 337 415 q 428 393 394 393 l 543 393 q 583 380 567 393 q 607 347 600 367 l 639 304 q 651 276 647 292 q 652 243 655 260 q 638 209 648 224 q 614 182 628 193 q 584 163 601 170 q 550 157 568 157 l 228 157 l 201 29 l 465 29 q 547 45 507 29 q 623 92 587 61 q 681 161 658 123 q 714 243 705 199 m 725 492 q 742 475 733 484 q 758 456 751 466 q 770 437 766 446 q 781 418 774 429 l 802 393 q 839 182 864 305 q 794 68 825 120 q 711 -28 762 16 q 493 -115 608 -115 l 147 -115 q 113 -100 125 -115 l 78 -53 q 60 -31 66 -45 q 57 0 54 -17 l 110 243 q 118 266 112 255 q 134 284 125 276 q 155 297 144 292 q 178 301 166 301 l 306 301 q 288 317 296 309 q 273 336 280 326 l 253 363 q 239 378 246 370 q 227 395 233 386 q 183 492 192 439 q 186 607 174 544 q 232 723 199 671 q 315 821 264 776 q 538 908 419 908 l 884 908 q 912 898 901 908 q 926 871 923 888 l 960 828 q 967 811 965 821 q 966 790 970 801 l 917 547 q 907 526 914 536 q 892 509 901 516 q 873 496 883 501 q 852 492 863 492 l 725 492 m 743 243 q 706 150 732 193 q 637 72 680 108 q 460 0 555 0 l 113 0 l 165 243 l 511 243 q 556 260 536 243 q 582 304 576 278 q 574 346 587 328 q 538 364 561 364 l 422 364 q 273 436 327 364 q 241 607 221 508 q 346 779 264 708 q 525 850 431 850 l 871 850 l 819 607 l 472 607 q 449 602 460 607 q 428 589 437 597 q 412 570 419 581 q 403 547 406 559 q 410 504 397 522 q 447 486 423 486 l 562 486 q 647 468 611 486 q 710 414 684 450 q 743 243 762 344 m 771 243 q 733 435 793 356 q 568 515 675 515 l 453 515 q 434 525 441 515 q 431 547 427 534 q 444 569 433 561 q 467 578 454 578 l 812 578 q 834 587 824 578 q 847 607 845 595 l 899 850 q 895 871 902 863 q 878 879 888 879 l 530 879 q 332 800 425 879 q 255 712 285 760 q 214 607 225 665 q 211 503 202 550 q 250 415 220 456 q 321 355 279 376 q 415 335 362 335 l 530 335 q 550 326 543 335 q 554 304 557 317 q 541 281 551 291 q 518 272 530 272 l 171 272 q 150 263 160 272 q 138 243 140 254 l 85 0 q 89 -20 83 -12 q 107 -29 96 -29 l 453 -29 q 653 52 559 -29 q 728 139 699 92 q 771 243 758 186 z "},"t":{"ha":717,"x_min":96,"x_max":739,"o":"m 553 29 l 579 157 l 435 157 q 381 168 404 157 q 345 199 359 179 l 318 235 q 280 288 291 254 q 278 364 269 321 l 363 758 l 593 758 l 595 764 l 425 764 l 383 821 l 375 821 l 389 886 l 383 886 l 235 182 q 228 122 227 151 q 237 69 228 94 q 350 29 281 29 l 553 29 m 403 301 l 408 301 l 639 301 q 668 291 656 301 q 682 264 679 281 l 714 220 q 723 203 722 212 q 724 182 725 193 l 671 -61 q 663 -82 669 -72 q 648 -99 656 -92 q 629 -111 640 -106 q 608 -115 618 -115 l 378 -115 q 195 -29 258 -115 l 175 -3 q 147 29 159 10 q 105 126 114 74 q 110 243 96 179 l 264 972 q 289 1014 269 996 q 332 1031 309 1031 l 447 1031 q 476 1020 465 1031 q 490 993 487 1010 l 524 949 q 531 932 529 941 q 530 911 534 922 l 530 908 l 653 908 q 681 898 669 908 q 694 871 692 888 l 729 828 q 737 811 734 821 q 736 790 739 801 l 711 668 q 702 647 709 657 q 687 630 696 637 q 668 618 678 623 q 647 614 657 614 l 468 614 l 403 301 m 345 0 q 195 71 247 0 q 165 243 142 142 l 319 972 l 435 972 l 410 850 l 640 850 l 615 729 l 383 729 l 306 364 q 304 316 300 338 q 321 278 309 294 q 352 252 333 262 q 396 243 372 243 l 627 243 l 575 0 l 345 0 m 568 -29 q 590 -20 580 -29 q 603 0 600 -12 l 656 243 q 650 263 657 254 q 633 272 644 272 l 403 272 q 369 279 384 272 q 346 299 355 286 q 334 328 336 311 q 335 364 331 345 l 404 700 l 607 700 q 629 709 618 700 q 643 729 640 718 l 668 850 q 664 871 671 863 q 646 879 657 879 l 443 879 l 463 972 q 459 993 466 984 q 441 1002 452 1002 l 325 1002 q 305 993 315 1002 q 292 972 295 984 l 138 243 q 171 50 112 128 q 241 -10 200 9 q 338 -29 283 -29 l 568 -29 z "},"u":{"ha":861,"x_min":82,"x_max":970,"o":"m 825 764 l 821 764 l 722 304 q 699 245 715 273 q 659 199 682 218 q 608 168 636 179 q 550 157 580 157 l 435 157 q 382 168 404 157 q 345 199 359 179 l 317 237 q 280 291 291 258 q 278 364 269 324 l 364 764 l 358 764 l 235 182 q 228 123 229 151 q 237 69 228 95 q 288 39 259 50 q 350 29 317 29 l 465 29 q 624 92 552 29 q 714 243 694 153 l 825 764 m 403 301 l 408 301 l 524 301 q 549 306 536 301 q 571 319 561 311 q 588 339 581 328 q 597 364 595 351 l 701 850 q 710 872 703 862 q 725 891 716 883 q 746 903 734 899 q 768 908 757 908 l 884 908 q 912 898 901 908 q 926 871 923 888 l 960 828 q 967 811 965 821 q 966 790 970 801 l 839 182 q 713 -29 812 58 q 607 -94 661 -73 q 493 -115 553 -115 l 378 -115 q 195 -29 258 -115 l 175 -3 q 147 29 159 10 q 110 243 82 117 l 237 850 q 247 872 240 862 q 263 891 254 883 q 284 903 273 899 q 306 908 295 908 l 422 908 q 450 898 439 908 q 464 871 462 888 l 498 828 q 506 811 504 821 q 505 790 509 801 l 403 301 m 743 243 q 706 149 732 192 q 637 71 680 106 q 460 0 555 0 l 345 0 q 258 18 296 0 q 195 71 220 35 q 165 243 142 143 l 294 850 l 410 850 l 306 364 q 305 317 300 339 q 322 278 310 295 q 353 252 334 262 q 396 243 372 243 l 511 243 q 559 252 536 243 q 601 278 583 262 q 633 316 620 294 q 653 364 647 338 l 755 850 l 871 850 l 743 243 m 771 243 l 899 850 q 895 871 902 863 q 878 879 888 879 l 762 879 q 741 871 751 879 q 728 850 731 863 l 625 364 q 611 328 621 345 q 586 299 600 311 q 554 279 572 286 q 518 272 537 272 l 403 272 q 370 279 385 272 q 346 299 355 287 q 334 329 337 312 q 335 364 331 345 l 437 850 q 434 871 441 863 q 415 879 427 879 l 300 879 q 279 871 290 879 q 267 850 269 863 l 138 243 q 133 138 125 186 q 171 50 140 90 q 242 -10 200 9 q 338 -29 284 -29 l 453 -29 q 557 -10 508 -29 q 654 50 606 9 q 729 138 701 90 q 771 243 758 185 z "},"v":{"ha":861,"x_min":54,"x_max":970,"o":"m 825 764 l 821 764 l 722 304 q 699 245 715 273 q 659 199 682 218 q 608 168 636 179 q 550 157 580 157 l 296 157 l 253 214 l 245 214 l 364 764 l 358 764 l 201 29 l 465 29 q 624 92 552 29 q 714 243 694 153 l 825 764 m 403 301 l 524 301 q 549 306 536 301 q 571 319 561 311 q 588 339 581 328 q 597 364 595 351 l 701 850 q 710 872 703 862 q 725 891 716 883 q 746 903 734 899 q 768 908 757 908 l 884 908 q 912 898 901 908 q 926 871 923 888 l 960 828 q 967 811 965 821 q 966 790 970 801 l 839 182 q 713 -29 812 58 q 607 -94 661 -73 q 493 -115 553 -115 l 147 -115 q 113 -100 125 -115 l 78 -53 q 60 -31 66 -45 q 57 0 54 -17 l 237 850 q 247 872 240 862 q 263 891 254 883 q 284 903 273 899 q 306 908 295 908 l 422 908 q 450 898 439 908 q 464 871 462 888 l 498 828 q 506 811 504 821 q 505 790 509 801 l 403 301 m 743 243 q 706 149 732 192 q 637 71 680 106 q 460 0 555 0 l 113 0 l 294 850 l 410 850 l 281 243 l 511 243 q 559 252 536 243 q 601 278 583 262 q 633 316 620 294 q 653 364 647 338 l 755 850 l 871 850 l 743 243 m 771 243 l 899 850 q 895 871 902 863 q 878 879 888 879 l 762 879 q 741 871 751 879 q 728 850 731 863 l 625 364 q 611 328 621 345 q 586 299 600 311 q 554 279 572 286 q 518 272 537 272 l 315 272 l 437 850 q 434 871 441 863 q 415 879 427 879 l 300 879 q 279 871 290 879 q 267 850 269 863 l 85 0 q 89 -20 83 -12 q 107 -29 96 -29 l 453 -29 q 557 -10 508 -29 q 654 50 606 9 q 729 138 701 90 q 771 243 758 185 z "},"w":{"ha":1324,"x_min":83,"x_max":1432,"o":"m 235 182 q 229 123 229 151 q 237 71 229 95 q 350 29 283 29 l 419 29 q 475 40 446 29 q 534 71 505 51 q 592 121 564 92 q 646 187 620 151 q 600 165 624 173 q 550 157 575 157 l 435 157 q 382 168 404 157 q 345 199 359 179 l 317 237 q 280 291 291 258 q 278 364 269 324 l 364 764 l 358 764 l 235 182 m 1287 764 l 1282 764 l 1183 304 q 1160 247 1177 274 q 1120 200 1143 220 q 1069 168 1097 180 q 1013 157 1041 157 l 897 157 q 844 168 866 157 q 807 199 822 179 l 781 235 q 742 288 752 254 q 741 364 731 321 l 825 764 l 821 764 l 722 304 q 710 268 718 285 q 692 236 702 252 l 730 186 q 739 128 732 155 q 755 78 746 101 q 802 42 775 54 q 859 29 829 29 l 928 29 q 1009 45 970 29 q 1083 92 1048 61 q 1143 161 1120 123 q 1177 243 1166 199 l 1287 764 m 864 301 l 869 301 l 986 301 q 1010 306 998 301 q 1031 320 1021 311 q 1049 340 1042 328 q 1059 364 1056 351 l 1161 850 q 1171 872 1164 862 q 1186 891 1177 883 q 1207 903 1196 899 q 1229 908 1218 908 l 1346 908 q 1374 898 1362 908 q 1388 871 1385 888 l 1422 828 q 1430 811 1428 821 q 1429 790 1432 801 l 1300 182 q 1255 68 1286 120 q 1173 -28 1223 16 q 1068 -94 1121 -72 q 956 -115 1015 -115 l 886 -115 q 780 -93 827 -115 q 703 -29 733 -70 l 688 -8 q 574 -87 636 -59 q 447 -115 512 -115 l 378 -115 q 196 -28 260 -115 l 176 -1 q 149 31 161 12 q 110 243 83 120 l 237 850 q 247 872 240 862 q 263 891 254 883 q 284 903 273 899 q 306 908 295 908 l 422 908 q 450 898 439 908 q 464 871 462 888 l 498 828 q 506 811 504 821 q 505 790 509 801 l 403 301 l 408 301 l 524 301 q 549 306 536 301 q 571 319 561 311 q 588 339 581 328 q 597 364 595 351 l 701 850 q 710 872 703 862 q 725 891 716 883 q 746 903 734 899 q 768 908 757 908 l 884 908 q 912 898 901 908 q 926 871 923 888 l 960 828 q 967 811 965 821 q 966 790 970 801 l 864 301 m 1204 243 q 1167 150 1194 193 q 1100 72 1141 108 q 921 0 1017 0 l 851 0 q 782 12 814 0 q 725 44 749 23 q 686 97 701 66 q 668 165 671 127 q 620 97 648 127 q 558 44 592 66 q 488 12 525 23 q 412 0 450 0 l 345 0 q 259 18 296 0 q 197 72 222 35 q 165 243 142 144 l 294 850 l 410 850 l 306 364 q 305 317 300 339 q 322 278 310 295 q 353 252 334 262 q 396 243 372 243 l 511 243 q 559 252 536 243 q 601 278 583 262 q 633 316 620 294 q 653 364 647 338 l 755 850 l 871 850 l 768 364 q 766 316 762 338 q 783 278 770 294 q 814 252 795 262 q 859 243 833 243 l 974 243 q 1020 252 997 243 q 1062 278 1043 262 q 1095 317 1081 295 q 1114 364 1108 339 l 1218 850 l 1333 850 l 1204 243 m 1232 243 l 1361 850 q 1357 871 1364 863 q 1339 879 1350 879 l 1223 879 q 1203 871 1213 879 q 1190 850 1192 863 l 1086 364 q 1072 329 1082 345 q 1047 299 1061 312 q 1015 279 1032 287 q 979 272 998 272 l 864 272 q 830 279 845 272 q 807 299 816 286 q 795 328 798 311 q 796 364 792 345 l 899 850 q 895 871 902 863 q 878 879 888 879 l 762 879 q 741 871 751 879 q 728 850 731 863 l 625 364 q 611 328 621 345 q 586 299 600 311 q 554 279 572 286 q 518 272 537 272 l 403 272 q 370 279 385 272 q 346 299 355 287 q 334 329 337 312 q 335 364 331 345 l 437 850 q 434 871 441 863 q 415 879 427 879 l 300 879 q 279 871 290 879 q 267 850 269 863 l 138 243 q 172 52 112 131 q 338 -29 232 -29 l 407 -29 q 540 4 475 -29 q 654 97 605 38 q 726 4 676 37 q 846 -29 777 -29 l 916 -29 q 1114 52 1023 -29 q 1190 139 1161 92 q 1232 243 1219 186 z "},"x":{"ha":861,"x_min":54,"x_max":970,"o":"m 201 29 q 306 62 256 33 q 361 113 333 81 q 418 192 389 144 q 371 166 396 175 q 319 157 345 157 l 228 157 l 201 29 m 711 722 q 659 675 686 705 q 607 599 633 645 q 655 626 629 616 q 710 636 682 636 l 798 636 l 825 764 q 768 751 795 762 q 711 722 740 740 m 668 29 l 694 157 l 665 157 q 614 168 636 157 q 576 199 591 179 l 549 237 q 511 291 522 258 q 510 364 500 324 l 534 486 q 564 551 542 522 l 529 596 q 529 591 529 593 q 528 587 529 589 q 514 673 522 636 q 494 736 506 710 q 403 764 456 764 l 358 764 l 330 636 l 364 636 q 429 618 401 636 q 469 568 457 600 l 498 529 q 518 483 513 509 q 517 425 523 456 l 490 304 q 479 271 487 287 q 463 240 472 255 l 500 191 q 510 117 503 149 q 526 61 516 85 q 572 37 546 45 q 627 29 598 29 l 668 29 m 633 301 l 639 301 l 754 301 q 783 291 772 301 q 798 264 794 281 l 831 220 q 839 203 837 212 q 839 182 840 193 l 786 -61 q 778 -82 784 -72 q 763 -99 772 -92 q 744 -111 755 -106 q 724 -115 734 -115 l 656 -115 q 500 -60 562 -115 q 486 -45 492 -52 q 472 -29 479 -37 l 457 -7 q 426 -35 442 -22 q 393 -60 410 -48 q 216 -115 307 -115 l 147 -115 q 113 -100 125 -115 l 78 -53 q 60 -31 66 -45 q 57 0 54 -17 l 110 243 q 118 266 112 255 q 134 284 125 276 q 155 297 144 292 q 178 301 166 301 l 293 301 q 317 306 305 301 q 339 320 329 311 q 357 340 349 328 q 367 364 364 351 l 393 486 l 393 492 l 277 492 q 256 496 265 492 q 241 509 247 501 l 207 555 q 188 576 195 563 q 186 607 182 590 l 237 850 q 247 872 240 862 q 263 891 254 883 q 284 903 273 899 q 306 908 295 908 l 375 908 q 437 901 408 908 q 492 878 466 893 l 494 884 q 507 871 500 877 q 519 859 514 865 q 528 852 524 855 q 536 846 532 849 l 533 844 q 554 821 545 833 q 572 799 563 809 q 598 821 584 809 q 629 844 612 833 l 628 846 q 637 852 633 849 q 646 859 640 855 q 665 871 655 865 q 685 884 675 877 l 684 878 q 750 901 717 893 q 814 908 783 908 l 884 908 q 912 898 901 908 q 926 871 923 888 l 960 828 q 967 811 965 821 q 966 790 970 801 l 917 547 q 907 526 914 536 q 892 509 901 516 q 873 496 883 501 q 852 492 863 492 l 737 492 q 711 486 724 492 q 688 472 699 481 q 669 451 677 463 q 659 425 661 439 l 633 301 m 621 0 q 496 46 546 0 q 456 100 471 70 q 437 168 441 130 q 390 100 418 130 q 326 46 362 70 q 182 0 258 0 l 113 0 l 165 243 l 281 243 q 328 252 304 243 q 370 278 351 262 q 402 317 389 295 q 422 364 416 339 l 447 486 q 448 533 452 511 q 431 572 444 555 q 400 597 419 588 q 357 607 381 607 l 241 607 l 294 850 l 364 850 q 432 838 401 850 q 488 803 463 827 q 528 750 513 780 q 547 684 543 721 q 594 750 566 721 q 656 803 621 780 q 729 838 692 827 q 802 850 765 850 l 871 850 l 819 607 l 704 607 q 657 597 680 607 q 615 572 634 588 q 582 533 596 555 q 562 486 568 511 l 538 364 q 536 317 532 339 q 553 278 541 295 q 584 252 565 262 q 627 243 603 243 l 743 243 l 690 0 l 621 0 m 685 -29 q 705 -20 695 -29 q 718 0 715 -12 l 771 243 q 766 263 772 254 q 749 272 759 272 l 633 272 q 601 279 615 272 q 577 299 586 287 q 565 329 568 312 q 566 364 562 345 l 590 486 q 605 522 594 505 q 630 551 615 539 q 662 571 644 564 q 697 578 679 578 l 812 578 q 834 587 824 578 q 847 607 845 595 l 899 850 q 895 871 902 863 q 878 879 888 879 l 808 879 q 646 827 726 879 l 646 828 q 561 751 598 797 q 539 793 553 774 q 510 828 526 812 l 510 827 q 370 879 452 879 l 300 879 q 279 871 290 879 q 267 850 269 863 l 214 607 q 218 587 212 595 q 236 578 224 578 l 351 578 q 384 571 370 578 q 408 551 399 564 q 420 522 417 539 q 419 486 423 505 l 393 364 q 379 329 389 345 q 354 299 369 312 q 322 279 340 287 q 286 272 304 272 l 171 272 q 150 263 160 272 q 138 243 140 254 l 85 0 q 89 -20 83 -12 q 107 -29 96 -29 l 176 -29 q 339 22 260 -29 q 422 98 387 53 q 444 57 431 75 q 475 22 457 38 q 615 -29 531 -29 l 685 -29 z "},"y":{"ha":861,"x_min":83,"x_max":970,"o":"m 825 764 l 821 764 l 722 304 q 699 245 715 273 q 659 199 682 218 q 608 168 636 179 q 550 157 580 157 l 435 157 q 382 168 404 157 q 345 199 359 179 l 317 237 q 280 291 291 258 q 278 364 269 324 l 364 764 l 358 764 l 235 182 q 229 123 229 151 q 237 71 229 95 q 350 29 283 29 l 465 29 q 498 33 482 29 q 529 45 513 36 q 552 63 544 52 q 566 87 561 74 l 621 86 l 619 79 l 663 22 l 644 -61 q 621 -119 637 -92 q 582 -166 605 -146 q 531 -197 559 -186 q 473 -208 503 -208 l 383 -208 l 354 -336 l 387 -336 q 470 -321 430 -336 q 546 -273 510 -305 q 604 -204 581 -242 q 636 -122 627 -166 l 825 764 m 403 301 l 408 301 l 524 301 q 549 306 536 301 q 571 319 561 311 q 588 339 581 328 q 597 364 595 351 l 701 850 q 710 872 703 862 q 725 891 716 883 q 746 903 734 899 q 768 908 757 908 l 884 908 q 912 898 901 908 q 926 871 923 888 l 960 828 q 967 811 965 821 q 966 790 970 801 l 761 -182 q 716 -298 747 -245 q 635 -395 685 -351 q 415 -481 534 -481 l 300 -481 q 281 -476 290 -481 q 267 -464 272 -471 l 231 -416 q 213 -395 219 -409 q 211 -366 208 -381 l 264 -122 q 267 -108 265 -115 q 273 -94 269 -101 q 232 -67 252 -84 q 196 -28 213 -50 l 176 -1 q 149 31 161 12 q 110 243 83 120 l 237 850 q 247 872 240 862 q 263 891 254 883 q 284 903 273 899 q 306 908 295 908 l 422 908 q 450 898 439 908 q 464 871 462 888 l 498 828 q 506 811 504 821 q 505 790 509 801 l 403 301 m 665 -122 q 628 -216 654 -174 q 561 -294 603 -259 q 382 -366 477 -366 l 267 -366 l 318 -122 l 433 -122 q 481 -113 458 -122 q 523 -87 505 -103 q 555 -48 542 -71 q 575 0 569 -26 l 591 82 q 538 20 583 42 q 499 4 519 9 q 460 0 479 0 l 345 0 q 259 18 296 0 q 197 72 222 35 q 165 243 142 144 l 294 850 l 410 850 l 306 364 q 305 317 300 339 q 322 278 310 295 q 353 252 334 262 q 396 243 372 243 l 511 243 q 559 252 536 243 q 601 278 583 262 q 633 316 620 294 q 653 364 647 338 l 755 850 l 871 850 l 665 -122 m 693 -122 l 899 850 q 895 871 902 863 q 878 879 888 879 l 762 879 q 741 871 751 879 q 728 850 731 863 l 625 364 q 611 328 621 345 q 586 299 600 311 q 554 279 572 286 q 518 272 537 272 l 403 272 q 370 279 385 272 q 346 299 355 287 q 334 329 337 312 q 335 364 331 345 l 437 850 q 434 871 441 863 q 415 879 427 879 l 300 879 q 279 871 290 879 q 267 850 269 863 l 138 243 q 172 52 112 131 q 338 -29 232 -29 l 453 -29 q 500 -24 477 -29 q 546 -5 524 -18 q 529 -40 540 -24 q 505 -67 519 -56 q 474 -86 491 -79 q 440 -93 458 -93 l 325 -93 q 303 -101 313 -93 q 290 -122 294 -110 l 237 -366 q 242 -386 235 -377 q 260 -395 249 -395 l 375 -395 q 480 -375 431 -395 q 576 -315 530 -355 q 651 -227 623 -275 q 693 -122 680 -180 z "},"z":{"ha":861,"x_min":54,"x_max":970,"o":"m 677 631 l 722 572 l 232 171 l 201 29 l 668 29 l 694 157 l 351 157 l 310 214 l 297 214 l 793 618 l 825 764 l 358 764 l 330 636 l 685 636 l 677 631 m 639 301 l 754 301 q 783 291 772 301 q 798 264 794 281 l 831 220 q 839 203 837 212 q 839 182 840 193 l 786 -61 q 778 -82 784 -72 q 763 -99 772 -92 q 744 -111 755 -106 q 724 -115 734 -115 l 147 -115 q 113 -100 125 -115 l 78 -53 q 60 -31 66 -45 q 57 0 54 -17 l 110 243 q 114 253 111 247 q 121 266 117 259 q 129 278 125 273 q 136 286 134 283 l 390 492 l 277 492 q 256 496 265 492 q 241 509 247 501 l 207 555 q 188 576 195 563 q 186 607 182 590 l 237 850 q 247 872 240 862 q 263 891 254 883 q 284 903 273 899 q 306 908 295 908 l 884 908 q 912 898 901 908 q 926 871 923 888 l 960 828 q 967 811 965 821 q 966 790 970 801 l 917 547 q 912 538 916 544 q 906 527 909 533 q 898 515 902 521 q 890 507 893 510 l 639 301 m 113 0 l 165 243 l 611 607 l 241 607 l 294 850 l 871 850 l 819 607 l 374 243 l 743 243 l 690 0 l 113 0 m 685 -29 q 705 -20 695 -29 q 718 0 715 -12 l 771 243 q 766 263 772 254 q 749 272 759 272 l 450 272 l 832 586 q 841 596 836 588 q 847 607 846 604 l 899 850 q 895 871 902 863 q 878 879 888 879 l 300 879 q 279 871 290 879 q 267 850 269 863 l 214 607 q 218 587 212 595 q 236 578 224 578 l 534 578 l 150 265 q 143 254 148 262 q 138 243 138 246 l 85 0 q 89 -20 83 -12 q 107 -29 96 -29 l 685 -29 z "},"{":{"ha":688,"x_min":143,"x_max":791,"o":"m 292 454 l 353 454 l 351 447 l 393 390 l 325 61 q 318 2 317 30 q 328 -50 318 -25 q 366 -75 345 -66 q 412 -90 387 -85 l 444 64 q 439 70 442 67 q 435 78 437 73 l 401 121 q 369 174 378 142 q 368 243 359 205 l 471 729 q 490 780 477 756 q 523 824 504 804 q 567 856 543 843 q 616 875 591 869 l 642 986 q 605 968 623 979 q 572 943 588 957 q 512 873 536 911 q 479 790 489 835 l 410 461 l 294 461 l 292 454 m 490 179 l 497 179 q 526 169 514 179 q 541 142 538 159 l 574 98 q 582 61 586 84 l 528 -193 l 478 -237 q 286 -150 350 -237 l 265 -122 q 251 -107 258 -115 q 237 -92 243 -100 q 199 121 172 -3 l 237 310 q 203 325 214 310 l 168 374 q 149 395 155 381 q 147 425 143 408 l 174 547 q 182 569 176 559 q 198 588 189 580 q 219 601 208 596 q 241 606 230 606 l 301 606 l 354 850 q 399 966 367 913 q 484 1064 431 1019 q 590 1130 534 1108 q 704 1152 646 1152 q 733 1141 722 1152 q 747 1114 744 1131 l 781 1071 q 789 1054 787 1063 q 789 1034 791 1044 l 736 790 q 728 769 734 779 q 713 751 722 759 q 695 739 705 744 q 675 734 685 734 q 648 729 661 734 q 625 714 635 724 q 606 693 614 705 q 596 668 599 682 l 490 179 m 433 -122 q 349 -104 387 -122 q 286 -50 312 -85 q 254 121 233 22 l 318 425 l 203 425 l 229 547 l 345 547 l 410 850 q 446 944 419 901 q 514 1022 472 987 q 692 1093 595 1093 l 640 850 q 594 840 616 850 q 552 814 571 831 q 518 776 532 798 q 500 729 505 754 l 396 243 q 395 196 391 218 q 412 157 399 174 q 443 131 424 140 q 485 121 461 121 l 433 -122 m 461 -122 l 513 121 q 509 142 516 134 q 490 150 502 150 q 458 157 472 150 q 434 177 444 165 q 422 207 425 190 q 424 243 420 224 l 528 729 q 542 765 532 748 q 567 794 552 782 q 599 813 581 806 q 635 821 616 821 q 655 829 645 821 q 668 850 666 838 l 720 1093 q 716 1114 723 1105 q 697 1122 709 1122 q 498 1043 592 1122 q 422 955 452 1002 q 382 850 393 907 l 323 576 l 236 576 q 214 568 224 576 q 201 547 203 559 l 175 425 q 179 405 173 414 q 197 396 186 396 l 285 396 l 227 121 q 223 17 214 64 q 262 -71 232 -30 q 332 -131 292 -111 q 428 -151 373 -151 l 461 -122 z "},"|":{"ha":400,"x_min":28,"x_max":559,"o":"m 176 -93 l 180 -93 l 414 1007 l 410 1007 l 176 -93 m 53 -174 q 34 -152 39 -166 q 32 -122 28 -138 l 289 1093 q 298 1116 292 1105 q 315 1134 305 1126 q 335 1147 324 1142 q 358 1152 347 1152 l 473 1152 q 502 1141 491 1152 q 517 1114 513 1131 l 549 1071 q 558 1054 556 1063 q 558 1034 559 1044 l 298 -182 q 290 -203 296 -193 q 276 -220 284 -213 q 257 -233 267 -228 q 237 -237 248 -237 l 121 -237 q 101 -233 111 -237 q 86 -221 92 -229 l 53 -174 m 87 -122 l 345 1093 l 461 1093 l 203 -122 l 87 -122 m 197 -151 q 218 -142 208 -151 q 231 -122 229 -134 l 489 1093 q 484 1114 491 1105 q 467 1122 477 1122 l 351 1122 q 330 1114 340 1122 q 317 1093 320 1105 l 60 -122 q 63 -142 56 -134 q 82 -151 71 -151 l 197 -151 z "},"}":{"ha":688,"x_min":86,"x_max":732,"o":"m 586 454 l 587 461 l 533 461 l 490 518 l 485 518 l 555 850 q 558 917 563 886 q 542 977 554 948 q 467 1006 509 1002 l 433 850 q 435 847 433 849 q 448 834 442 841 q 460 818 454 827 l 492 772 q 512 726 507 753 q 510 668 517 699 l 407 182 q 388 131 401 155 q 354 87 374 106 q 310 55 334 68 q 261 37 286 42 l 237 -74 q 274 -55 256 -66 q 307 -29 292 -43 q 367 39 344 2 q 400 121 391 77 l 471 454 l 586 454 m 640 606 l 646 606 q 674 595 663 606 q 688 568 686 584 l 724 524 q 730 506 728 516 q 730 486 732 496 l 704 364 q 695 343 702 353 q 680 326 689 334 q 661 314 671 319 q 640 310 650 310 l 578 310 l 525 61 q 479 -54 511 -2 q 396 -150 447 -106 q 179 -237 295 -237 q 159 -233 169 -237 q 144 -221 150 -229 l 111 -174 q 91 -152 96 -166 q 90 -122 86 -138 l 140 121 q 150 143 143 133 q 166 162 157 154 q 186 174 176 170 q 208 179 197 179 q 233 184 220 179 q 255 198 245 189 q 273 218 266 207 q 283 243 281 230 l 386 729 l 387 734 l 385 734 q 366 739 375 734 q 351 751 357 744 l 317 799 q 298 820 303 806 q 296 850 292 833 l 347 1093 q 357 1116 350 1105 q 373 1134 363 1126 q 394 1147 382 1142 q 416 1152 405 1152 q 520 1130 476 1152 q 599 1064 565 1108 q 611 1045 605 1055 q 621 1025 616 1036 l 639 1002 l 640 1000 q 679 790 707 914 l 640 606 m 492 425 l 428 121 q 323 -50 406 20 q 237 -104 281 -85 q 146 -122 193 -122 l 197 121 q 244 131 220 121 q 287 157 267 140 q 320 196 306 174 q 339 243 334 218 l 441 729 q 443 776 447 754 q 426 814 438 798 q 395 840 414 831 q 353 850 376 850 l 403 1093 q 551 1022 499 1093 q 583 850 604 951 l 519 547 l 635 547 l 607 425 l 492 425 m 602 396 q 623 405 613 396 q 635 425 633 414 l 661 547 q 657 568 663 559 q 640 576 652 576 l 551 576 l 610 850 q 613 955 623 907 q 575 1043 604 1002 q 410 1122 517 1122 q 388 1114 397 1122 q 375 1093 378 1105 l 325 850 q 328 829 321 838 q 346 821 334 821 q 378 813 363 821 q 401 794 392 806 q 414 765 410 782 q 414 729 418 748 l 311 243 q 296 207 307 224 q 271 177 286 190 q 238 157 256 165 q 203 150 220 150 q 181 142 191 150 q 170 121 172 134 l 118 -122 q 121 -142 115 -134 q 140 -151 127 -151 q 242 -131 193 -151 q 339 -71 292 -111 q 454 121 431 10 l 513 396 l 602 396 z "},"~":{"ha":770,"x_min":132,"x_max":809,"o":"m 490 414 q 465 426 477 420 q 444 433 454 431 q 450 431 448 432 q 457 428 453 429 q 481 416 469 420 q 503 408 493 412 q 497 411 500 410 q 490 414 494 412 m 158 322 q 139 342 146 328 q 138 376 132 357 l 158 473 q 163 487 159 479 q 172 501 167 494 q 183 514 178 508 q 193 522 189 519 q 295 567 244 553 q 399 581 346 581 q 443 573 420 581 q 496 551 467 565 q 527 537 513 542 q 549 532 541 532 q 620 542 585 532 q 689 572 654 553 q 706 578 699 576 q 724 581 714 581 q 750 572 739 581 q 764 546 762 563 l 800 500 q 807 484 806 492 q 806 461 809 475 l 783 358 l 755 322 q 653 276 703 291 q 550 261 602 261 q 505 269 529 261 q 453 290 481 277 q 420 306 434 301 q 399 310 407 310 q 326 299 361 310 q 256 269 291 289 q 240 263 247 265 q 227 261 234 261 q 192 277 204 261 l 158 322 m 688 425 q 604 389 646 401 q 517 376 562 376 q 483 382 502 376 q 441 401 463 389 q 398 419 418 413 q 364 425 378 425 q 278 413 320 425 q 193 376 236 401 l 214 473 q 298 511 256 499 q 385 522 340 522 q 461 498 415 522 q 538 473 508 473 q 625 486 583 473 q 708 522 667 498 l 688 425 m 715 425 l 736 522 q 729 549 741 541 q 700 547 717 556 q 623 514 662 526 q 543 503 584 503 q 479 525 521 503 q 432 545 453 538 q 393 551 411 551 q 297 538 344 551 q 204 498 251 526 q 194 487 200 495 q 186 473 187 479 l 165 376 q 173 351 161 359 q 203 353 185 342 q 358 396 279 396 q 422 374 380 396 q 470 354 448 361 q 510 347 492 347 q 605 360 559 347 q 697 401 651 373 l 715 425 z "},"€":{"ha":861,"x_min":83,"x_max":997,"o":"m 668 29 l 694 157 l 435 157 q 388 168 409 157 q 354 199 368 179 l 325 235 q 284 300 296 258 q 285 393 273 342 l 317 393 l 297 421 l 290 421 l 318 551 l 351 551 l 330 578 l 323 578 q 350 647 332 614 q 393 705 368 680 q 447 744 418 730 q 505 758 475 758 l 823 758 l 850 886 l 590 886 q 432 821 506 886 q 338 668 356 758 l 235 182 q 229 123 229 151 q 237 71 229 95 q 350 29 283 29 l 668 29 m 749 301 l 754 301 q 783 291 772 301 q 798 264 794 281 l 831 220 q 839 203 837 212 q 839 182 840 193 l 786 -61 q 778 -82 784 -72 q 763 -99 772 -92 q 744 -111 755 -106 q 724 -115 734 -115 l 378 -115 q 196 -28 260 -115 l 176 -1 q 149 31 161 12 q 110 243 83 120 l 212 729 q 343 942 237 852 q 562 1031 444 1031 l 908 1031 q 937 1020 926 1031 q 953 993 949 1010 l 986 949 q 993 911 997 933 l 942 668 q 933 647 940 657 q 918 630 927 637 q 899 618 909 623 q 879 614 889 614 l 771 614 l 791 585 q 801 567 799 577 q 802 547 803 557 l 782 461 q 774 441 780 450 q 760 424 769 431 q 766 408 764 416 q 766 389 769 399 l 749 301 m 345 0 q 259 18 296 0 q 197 72 222 35 q 165 243 142 144 l 268 729 q 374 900 289 829 q 550 972 456 972 l 897 972 l 846 729 l 500 729 q 453 720 476 729 q 410 693 429 710 q 377 654 391 677 q 357 607 363 632 l 704 607 l 685 522 l 339 522 l 325 450 l 671 450 l 653 364 l 306 364 q 305 317 300 339 q 322 278 310 295 q 353 252 334 262 q 396 243 372 243 l 743 243 l 690 0 l 345 0 m 685 -29 q 705 -20 695 -29 q 718 0 715 -12 l 771 243 q 766 263 772 254 q 749 272 759 272 l 403 272 q 354 289 374 272 q 334 335 335 307 l 646 335 q 667 344 657 335 q 681 364 677 353 l 699 450 q 694 471 701 462 q 676 479 688 479 l 358 479 l 361 493 l 679 493 q 701 502 690 493 q 714 522 712 511 l 732 607 q 727 628 734 620 q 710 636 720 636 l 396 636 q 436 682 410 665 q 492 700 463 700 l 839 700 q 860 709 849 700 q 873 729 870 718 l 925 972 q 921 993 927 984 q 903 1002 914 1002 l 557 1002 q 357 921 450 1002 q 240 729 265 842 l 138 243 q 172 52 112 131 q 338 -29 232 -29 l 685 -29 z "},"‚":{"ha":446,"x_min":54,"x_max":410,"o":"m 201 29 l 253 29 l 265 83 l 214 83 l 201 29 m 98 -174 q 80 -152 86 -166 q 78 -122 73 -138 l 87 -74 l 89 -68 l 78 -53 q 60 -32 66 -45 q 57 0 54 -18 l 93 170 q 102 192 96 182 q 118 211 109 203 q 139 223 127 218 q 161 228 150 228 l 323 228 q 352 217 340 228 q 366 191 363 207 l 400 147 q 408 130 406 140 q 407 110 410 120 l 345 -182 q 336 -203 342 -193 q 322 -220 330 -213 q 303 -233 313 -228 q 283 -237 294 -237 l 168 -237 q 148 -233 157 -237 q 132 -221 138 -229 l 98 -174 m 134 -122 l 143 -74 l 212 -74 l 228 0 l 113 0 l 150 170 l 311 170 l 249 -122 l 134 -122 m 243 -151 q 264 -142 254 -151 q 277 -122 274 -134 l 339 170 q 335 190 342 182 q 317 199 328 199 l 155 199 q 134 190 144 199 q 121 170 124 182 l 85 0 q 89 -20 83 -12 q 107 -29 96 -29 l 195 -29 l 191 -45 l 150 -45 q 129 -53 138 -45 q 115 -74 119 -61 l 106 -122 q 109 -142 102 -134 q 127 -151 116 -151 l 243 -151 z "},"ƒ":{"ha":832,"x_min":-256,"x_max":1009,"o":"m 392 518 l 383 518 l 383 519 l 224 -24 q 227 -10 226 -16 q 231 3 229 -3 l 364 454 l 595 454 l 597 461 l 432 461 l 392 518 m -100 -336 l -74 -336 q 90 -275 14 -336 q 154 -205 128 -245 q 195 -118 179 -165 q 202 -92 199 -104 q 208 -69 205 -80 q 181 -124 199 -99 q 139 -169 163 -150 q 88 -198 115 -187 q 32 -208 60 -208 l -61 -208 l -100 -336 m 429 671 q 460 731 441 703 q 502 778 478 758 q 554 808 526 798 q 614 819 583 819 l 818 819 l 857 947 l 720 947 q 551 884 630 947 q 486 812 513 851 q 444 726 459 773 l 429 671 m -231 -416 q -250 -395 -243 -409 q -252 -366 -256 -381 l -250 -359 l -178 -117 q -153 -79 -172 -95 q -113 -64 -134 -64 l 4 -64 q 31 -58 18 -64 q 55 -44 44 -53 q 75 -22 66 -35 q 89 4 84 -10 l 322 794 q 375 909 339 857 q 467 1006 412 961 q 577 1071 522 1050 q 692 1092 633 1092 l 922 1092 q 951 1081 940 1092 q 965 1054 962 1069 l 999 1010 q 1007 992 1004 1002 q 1006 972 1009 983 l 1006 966 l 935 724 q 925 705 931 713 q 910 689 919 696 q 891 679 901 683 q 871 675 881 675 l 640 675 q 588 655 611 675 q 554 606 565 636 l 664 606 q 692 595 681 606 q 705 568 703 584 l 741 524 q 748 506 745 516 q 747 486 751 496 l 746 482 l 711 359 q 702 341 709 350 q 687 325 696 332 q 668 314 678 318 q 648 310 659 310 l 465 310 l 354 -65 q 344 -101 350 -80 q 329 -147 338 -121 q 323 -168 326 -157 q 317 -191 320 -179 q 261 -304 297 -252 q 172 -399 225 -357 q -46 -481 70 -481 l -161 -481 q -182 -476 -173 -481 q -196 -464 -191 -471 l -231 -416 m 839 790 l 607 790 q 558 781 581 790 q 515 756 535 772 q 480 718 496 740 q 456 668 465 695 q 421 547 452 662 l 652 547 l 615 425 l 383 425 l 258 0 q 243 -50 252 -20 q 222 -122 234 -80 q 103 -296 189 -225 q 15 -348 61 -330 q -81 -366 -32 -366 l -196 -366 l -123 -122 l -8 -122 q 40 -113 16 -122 q 84 -87 64 -103 q 120 -48 104 -71 q 143 0 135 -26 l 376 790 q 493 962 408 892 q 679 1034 583 1034 l 909 1034 l 839 790 m 937 1031 q 935 1053 941 1043 q 917 1063 928 1063 l 685 1063 q 481 985 579 1063 q 399 897 431 944 q 350 791 367 849 l 115 3 q 97 -35 109 -18 q 70 -65 85 -53 q 35 -85 54 -78 q -3 -93 16 -93 l -118 -93 q -138 -100 -129 -93 q -151 -119 -148 -108 l -222 -363 q -220 -385 -227 -375 q -201 -395 -214 -395 l -86 -395 q 119 -317 23 -395 l 118 -317 q 197 -231 165 -279 q 249 -125 230 -182 q 271 -53 262 -84 q 286 -3 280 -22 l 403 396 l 608 396 q 629 404 620 396 q 643 422 639 412 l 677 545 q 676 567 682 557 q 657 576 669 576 l 457 576 q 474 641 467 617 q 485 669 481 664 q 530 735 498 710 q 602 761 562 761 l 832 761 q 852 768 842 761 q 867 787 863 776 l 937 1031 z "},"„":{"ha":700,"x_min":54,"x_max":665,"o":"m 456 29 l 507 29 l 519 83 l 468 83 l 456 29 m 201 29 l 253 29 l 265 83 l 214 83 l 201 29 m 98 -174 q 80 -152 86 -166 q 78 -122 73 -138 l 87 -74 l 89 -68 l 78 -53 q 60 -32 66 -45 q 57 0 54 -18 l 93 170 q 102 192 96 182 q 118 211 109 203 q 139 223 127 218 q 161 228 150 228 l 323 228 q 364 200 353 228 q 387 221 374 214 q 415 228 401 228 l 578 228 q 606 217 595 228 q 619 191 617 207 l 654 147 q 662 130 660 140 q 661 110 665 120 l 599 -182 q 590 -203 597 -193 q 575 -220 584 -213 q 557 -233 567 -228 q 538 -237 547 -237 l 422 -237 q 402 -233 411 -237 q 386 -221 393 -229 l 353 -174 q 350 -172 351 -172 q 347 -171 349 -171 l 345 -182 q 336 -203 342 -193 q 322 -220 330 -213 q 303 -233 313 -228 q 283 -237 294 -237 l 168 -237 q 148 -233 157 -237 q 132 -221 138 -229 l 98 -174 m 134 -122 l 143 -74 l 212 -74 l 228 0 l 113 0 l 150 170 l 311 170 l 249 -122 l 134 -122 m 387 -122 l 397 -74 l 467 -74 l 482 0 l 367 0 l 403 170 l 566 170 l 503 -122 l 387 -122 m 497 -151 q 518 -142 508 -151 q 530 -122 528 -134 l 593 170 q 589 190 596 182 q 571 199 583 199 l 410 199 q 388 190 398 199 q 375 170 378 182 l 339 0 q 342 -20 336 -12 q 361 -29 349 -29 l 449 -29 l 444 -45 l 403 -45 q 382 -53 392 -45 q 370 -74 373 -61 l 359 -122 q 363 -142 356 -134 q 382 -151 370 -151 l 497 -151 m 243 -151 q 264 -142 254 -151 q 277 -122 274 -134 l 339 170 q 335 190 342 182 q 317 199 328 199 l 155 199 q 134 190 144 199 q 121 170 124 182 l 85 0 q 89 -20 83 -12 q 107 -29 96 -29 l 195 -29 l 191 -45 l 150 -45 q 129 -53 138 -45 q 115 -74 119 -61 l 106 -122 q 109 -142 102 -134 q 127 -151 116 -151 l 243 -151 z "},"…":{"ha":1000,"x_min":54,"x_max":964,"o":"m 201 29 l 253 29 l 265 83 l 214 83 l 201 29 m 755 29 l 807 29 l 819 83 l 768 83 l 755 29 m 479 29 l 529 29 l 542 83 l 490 83 l 479 29 m 78 -53 q 60 -31 66 -45 q 57 0 54 -17 l 93 170 q 102 192 96 182 q 118 211 109 203 q 139 223 127 218 q 161 228 150 228 l 323 228 q 353 217 340 228 q 367 189 365 205 l 372 179 q 400 214 380 200 q 439 228 419 228 l 600 228 q 629 217 618 228 q 644 189 641 205 l 650 179 q 676 214 657 200 q 715 228 696 228 l 878 228 q 906 217 895 228 q 920 191 918 207 l 954 147 q 962 130 960 140 q 961 110 964 120 l 925 -61 q 916 -82 922 -72 q 901 -99 910 -92 q 883 -111 892 -106 q 863 -115 873 -115 l 701 -115 q 667 -100 679 -115 l 646 -71 q 636 -87 642 -79 q 621 -102 629 -96 q 604 -112 613 -108 q 586 -115 595 -115 l 424 -115 q 390 -100 401 -115 l 368 -71 q 344 -102 361 -88 q 309 -115 328 -115 l 147 -115 q 113 -100 125 -115 l 78 -53 m 113 0 l 150 170 l 311 170 l 275 0 l 113 0 m 390 0 l 427 170 l 587 170 l 551 0 l 390 0 m 667 0 l 704 170 l 865 170 l 829 0 l 667 0 m 822 -29 q 844 -20 833 -29 q 857 0 854 -12 l 893 170 q 889 190 897 182 q 871 199 882 199 l 710 199 q 688 190 699 199 q 675 170 678 182 l 639 0 q 643 -20 637 -12 q 661 -29 650 -29 l 822 -29 m 268 -29 q 289 -20 279 -29 q 302 0 299 -12 l 339 170 q 335 190 342 182 q 317 199 328 199 l 155 199 q 134 190 144 199 q 121 170 124 182 l 85 0 q 89 -20 83 -12 q 107 -29 96 -29 l 268 -29 m 546 -29 q 567 -20 556 -29 q 579 0 577 -12 l 616 170 q 612 190 618 182 q 595 199 605 199 l 432 199 q 412 190 421 199 q 399 170 402 182 l 363 0 q 366 -20 359 -12 q 383 -29 373 -29 l 546 -29 z "},"†":{"ha":746,"x_min":176,"x_max":831,"o":"m 682 636 l 684 643 l 571 643 l 529 700 l 522 700 l 562 886 l 557 886 l 504 643 l 332 643 l 330 636 l 449 636 l 447 629 l 490 572 l 323 -214 l 329 -214 l 510 636 l 682 636 m 679 787 l 743 787 q 771 777 760 787 q 785 750 783 767 l 818 705 q 827 668 831 692 l 802 547 q 792 526 799 536 q 777 509 785 516 q 758 496 768 501 q 737 492 747 492 l 616 492 l 447 -304 q 438 -325 445 -315 q 423 -342 432 -335 q 404 -354 414 -349 q 383 -358 393 -358 l 267 -358 q 248 -354 257 -358 q 235 -343 239 -351 l 199 -296 q 181 -274 186 -288 q 179 -243 176 -260 l 335 492 l 277 492 q 256 496 265 492 q 241 509 247 501 l 207 555 q 188 576 195 563 q 186 607 182 590 l 212 729 q 221 752 214 741 q 237 770 228 762 q 258 783 247 778 q 281 787 269 787 l 399 787 l 437 972 q 463 1014 443 996 q 505 1031 482 1031 l 621 1031 q 649 1020 638 1031 q 664 993 661 1010 l 697 949 q 705 932 703 941 q 704 911 707 922 l 679 787 m 530 607 l 350 -243 l 235 -243 l 415 607 l 241 607 l 268 729 l 441 729 l 493 972 l 608 972 l 558 729 l 730 729 l 704 607 l 530 607 m 697 578 q 719 587 709 578 q 732 607 730 595 l 758 729 q 754 749 760 741 q 736 758 747 758 l 590 758 l 636 972 q 632 993 638 984 q 615 1002 626 1002 l 500 1002 q 478 993 488 1002 q 465 972 469 984 l 421 758 l 275 758 q 253 749 264 758 q 240 729 242 741 l 214 607 q 218 587 212 595 q 236 578 224 578 l 382 578 l 207 -243 q 211 -263 205 -254 q 228 -272 216 -272 l 345 -272 q 365 -263 355 -272 q 376 -243 374 -254 l 551 578 l 697 578 z "}}}
